# Deterministic B202 final layout
o LowestFloor
g LowestFloor
usemtl LowestFloor
v -6.54088909 0 2.742370361
v 4 0 -0.85
v -4 0 -0.85
vn 0 1 0
f 1//1 2//1 3//1
v -6.54088909 0 2.742370361
v 6.54088909 0 2.742370361
v 4 0 -0.85
vn 0 1 0
f 4//2 5//2 6//2
v -6.54088909 0 2.742370361
v 5.91911091 0 3.161765038
v 6.54088909 0 2.742370361
vn 0 1 0
f 7//3 8//3 9//3
v -6.54088909 0 2.742370361
v 3.365877048 0 4.462702669
v 5.91911091 0 3.161765038
vn 0 1 0
f 10//4 11//4 12//4
v -6.54088909 0 2.742370361
v 2.614122952 0 4.736318784
v 3.365877048 0 4.462702669
vn 0 1 0
f 13//5 14//5 15//5
v -6.54088909 0 2.742370361
v 0.4 0 5.126728399
v 2.614122952 0 4.736318784
vn 0 1 0
f 16//6 17//6 18//6
v -6.54088909 0 2.742370361
v -0.4 0 5.126728399
v 0.4 0 5.126728399
vn 0 1 0
f 19//7 20//7 21//7
v -6.54088909 0 2.742370361
v -2.614122952 0 4.736318784
v -0.4 0 5.126728399
vn 0 1 0
f 22//8 23//8 24//8
v -6.54088909 0 2.742370361
v -3.365877048 0 4.462702669
v -2.614122952 0 4.736318784
vn 0 1 0
f 25//9 26//9 27//9
v -3.365877048 0 4.462702669
v -6.54088909 0 2.742370361
v -5.91911091 0 3.161765038
vn 0 1 0
f 28//10 29//10 30//10
v -7.114061816 0 3.592133872
v -5.91911091 0 3.161765038
v -6.54088909 0 2.742370361
vn 0 1 0
f 31//11 32//11 33//11
v -5.91911091 0 3.161765038
v -7.114061816 0 3.592133872
v -6.492283636 0 4.01152855
vn 0 1 0
f 34//12 35//12 36//12
v -6.492283636 0 4.01152855
v -3.365877048 0 4.462702669
v -5.91911091 0 3.161765038
vn 0 1 0
f 37//13 38//13 39//13
v -6.492283636 0 4.01152855
v -3.716447695 0 5.425887606
v -3.365877048 0 4.462702669
vn 0 1 0
f 40//14 41//14 42//14
v -6.492283636 0 4.01152855
v -4.067018342 0 6.389072542
v -3.716447695 0 5.425887606
vn 0 1 0
f 43//15 44//15 45//15
v -4.067018342 0 6.389072542
v -6.492283636 0 4.01152855
v -7.065456362 0 4.861292062
vn 0 1 0
f 46//16 47//16 48//16
v -3.716447695 0 5.425887606
v -2.614122952 0 4.736318784
v -3.365877048 0 4.462702669
vn 0 1 0
f 49//17 50//17 51//17
v -2.614122952 0 4.736318784
v -3.716447695 0 5.425887606
v -2.964693599 0 5.69950372
vn 0 1 0
f 52//18 53//18 54//18
v -2.964693599 0 5.69950372
v -0.4 0 5.126728399
v -2.614122952 0 4.736318784
vn 0 1 0
f 55//19 56//19 57//19
v -2.964693599 0 5.69950372
v -0.4 0 6.151728399
v -0.4 0 5.126728399
vn 0 1 0
f 58//20 59//20 60//20
v -2.964693599 0 5.69950372
v -0.4 0 7.176728399
v -0.4 0 6.151728399
vn 0 1 0
f 61//21 62//21 63//21
v -0.4 0 7.176728399
v -2.964693599 0 5.69950372
v -3.315264246 0 6.662688657
vn 0 1 0
f 64//22 65//22 66//22
v -0.4 0 6.151728399
v 0.4 0 5.126728399
v -0.4 0 5.126728399
vn 0 1 0
f 67//23 68//23 69//23
v 0.4 0 5.126728399
v -0.4 0 6.151728399
v 0.4 0 6.151728399
vn 0 1 0
f 70//24 71//24 72//24
v 0.4 0 6.151728399
v 2.614122952 0 4.736318784
v 0.4 0 5.126728399
vn 0 1 0
f 73//25 74//25 75//25
v 0.4 0 6.151728399
v 2.964693599 0 5.69950372
v 2.614122952 0 4.736318784
vn 0 1 0
f 76//26 77//26 78//26
v 0.4 0 6.151728399
v 3.315264246 0 6.662688657
v 2.964693599 0 5.69950372
vn 0 1 0
f 79//27 80//27 81//27
v 3.315264246 0 6.662688657
v 0.4 0 6.151728399
v 0.4 0 7.176728399
vn 0 1 0
f 82//28 83//28 84//28
v 2.964693599 0 5.69950372
v 3.365877048 0 4.462702669
v 2.614122952 0 4.736318784
vn 0 1 0
f 85//29 86//29 87//29
v 3.365877048 0 4.462702669
v 2.964693599 0 5.69950372
v 3.716447695 0 5.425887606
vn 0 1 0
f 88//30 89//30 90//30
v 3.716447695 0 5.425887606
v 5.91911091 0 3.161765038
v 3.365877048 0 4.462702669
vn 0 1 0
f 91//31 92//31 93//31
v 3.716447695 0 5.425887606
v 6.492283636 0 4.01152855
v 5.91911091 0 3.161765038
vn 0 1 0
f 94//32 95//32 96//32
v 3.716447695 0 5.425887606
v 7.065456362 0 4.861292062
v 6.492283636 0 4.01152855
vn 0 1 0
f 97//33 98//33 99//33
v 7.065456362 0 4.861292062
v 3.716447695 0 5.425887606
v 4.067018342 0 6.389072542
vn 0 1 0
f 100//34 101//34 102//34
v 6.492283636 0 4.01152855
v 6.54088909 0 2.742370361
v 5.91911091 0 3.161765038
vn 0 1 0
f 103//35 104//35 105//35
v 6.54088909 0 2.742370361
v 6.492283636 0 4.01152855
v 7.114061816 0 3.592133872
vn 0 1 0
f 106//36 107//36 108//36
o Terrace02
g Terrace02
usemtl Terrace02
v -8.260407268 0.5 5.291660896
v -7.065456362 0.5 4.861292062
v -7.687234542 0.5 4.441897384
vn 0 1 0
f 109//37 110//37 111//37
v -7.065456362 0.5 4.861292062
v -8.260407268 0.5 5.291660896
v -7.638629088 0.5 5.711055574
vn 0 1 0
f 112//38 113//38 114//38
v -7.638629088 0.5 5.711055574
v -4.067018342 0.5 6.389072542
v -7.065456362 0.5 4.861292062
vn 0 1 0
f 115//39 116//39 117//39
v -7.638629088 0.5 5.711055574
v -4.417588989 0.5 7.352257478
v -4.067018342 0.5 6.389072542
vn 0 1 0
f 118//40 119//40 120//40
v -7.638629088 0.5 5.711055574
v -4.768159636 0.5 8.315442415
v -4.417588989 0.5 7.352257478
vn 0 1 0
f 121//41 122//41 123//41
v -4.768159636 0.5 8.315442415
v -7.638629088 0.5 5.711055574
v -8.211801815 0.5 6.560819086
vn 0 1 0
f 124//42 125//42 126//42
v -4.417588989 0.5 7.352257478
v -3.315264246 0.5 6.662688657
v -4.067018342 0.5 6.389072542
vn 0 1 0
f 127//43 128//43 129//43
v -3.315264246 0.5 6.662688657
v -4.417588989 0.5 7.352257478
v -3.665834892 0.5 7.625873593
vn 0 1 0
f 130//44 131//44 132//44
v -3.665834892 0.5 7.625873593
v -0.4 0.5 7.176728399
v -3.315264246 0.5 6.662688657
vn 0 1 0
f 133//45 134//45 135//45
v -3.665834892 0.5 7.625873593
v -0.4 0.5 8.201728399
v -0.4 0.5 7.176728399
vn 0 1 0
f 136//46 137//46 138//46
v -3.665834892 0.5 7.625873593
v -0.4 0.5 9.226728399
v -0.4 0.5 8.201728399
vn 0 1 0
f 139//47 140//47 141//47
v -0.4 0.5 9.226728399
v -3.665834892 0.5 7.625873593
v -4.016405539 0.5 8.589058529
vn 0 1 0
f 142//48 143//48 144//48
v -0.4 0.5 8.201728399
v 0.4 0.5 7.176728399
v -0.4 0.5 7.176728399
vn 0 1 0
f 145//49 146//49 147//49
v 0.4 0.5 7.176728399
v -0.4 0.5 8.201728399
v 0.4 0.5 8.201728399
vn 0 1 0
f 148//50 149//50 150//50
v 0.4 0.5 8.201728399
v 3.315264246 0.5 6.662688657
v 0.4 0.5 7.176728399
vn 0 1 0
f 151//51 152//51 153//51
v 0.4 0.5 8.201728399
v 3.665834892 0.5 7.625873593
v 3.315264246 0.5 6.662688657
vn 0 1 0
f 154//52 155//52 156//52
v 0.4 0.5 8.201728399
v 4.016405539 0.5 8.589058529
v 3.665834892 0.5 7.625873593
vn 0 1 0
f 157//53 158//53 159//53
v 4.016405539 0.5 8.589058529
v 0.4 0.5 8.201728399
v 0.4 0.5 9.226728399
vn 0 1 0
f 160//54 161//54 162//54
v 3.665834892 0.5 7.625873593
v 4.067018342 0.5 6.389072542
v 3.315264246 0.5 6.662688657
vn 0 1 0
f 163//55 164//55 165//55
v 4.067018342 0.5 6.389072542
v 3.665834892 0.5 7.625873593
v 4.417588989 0.5 7.352257478
vn 0 1 0
f 166//56 167//56 168//56
v 4.417588989 0.5 7.352257478
v 7.065456362 0.5 4.861292062
v 4.067018342 0.5 6.389072542
vn 0 1 0
f 169//57 170//57 171//57
v 4.417588989 0.5 7.352257478
v 7.638629088 0.5 5.711055574
v 7.065456362 0.5 4.861292062
vn 0 1 0
f 172//58 173//58 174//58
v 4.417588989 0.5 7.352257478
v 8.211801815 0.5 6.560819086
v 7.638629088 0.5 5.711055574
vn 0 1 0
f 175//59 176//59 177//59
v 8.211801815 0.5 6.560819086
v 4.417588989 0.5 7.352257478
v 4.768159636 0.5 8.315442415
vn 0 1 0
f 178//60 179//60 180//60
v 7.638629088 0.5 5.711055574
v 7.687234542 0.5 4.441897384
v 7.065456362 0.5 4.861292062
vn 0 1 0
f 181//61 182//61 183//61
v 7.687234542 0.5 4.441897384
v 7.638629088 0.5 5.711055574
v 8.260407268 0.5 5.291660896
vn 0 1 0
f 184//62 185//62 186//62
o Terrace03
g Terrace03
usemtl Terrace03
v -9.40675272 1 6.99118792
v -8.211801815 1 6.560819086
v -8.833579994 1 6.141424408
vn 0 1 0
f 187//63 188//63 189//63
v -8.211801815 1 6.560819086
v -9.40675272 1 6.99118792
v -8.784974541 1 7.410582598
vn 0 1 0
f 190//64 191//64 192//64
v -8.784974541 1 7.410582598
v -4.768159636 1 8.315442415
v -8.211801815 1 6.560819086
vn 0 1 0
f 193//65 194//65 195//65
v -8.784974541 1 7.410582598
v -5.118730283 1 9.278627351
v -4.768159636 1 8.315442415
vn 0 1 0
f 196//66 197//66 198//66
v -8.784974541 1 7.410582598
v -5.46930093 1 10.241812287
v -5.118730283 1 9.278627351
vn 0 1 0
f 199//67 200//67 201//67
v -5.46930093 1 10.241812287
v -8.784974541 1 7.410582598
v -9.358147267 1 8.260346109
vn 0 1 0
f 202//68 203//68 204//68
v -5.118730283 1 9.278627351
v -4.016405539 1 8.589058529
v -4.768159636 1 8.315442415
vn 0 1 0
f 205//69 206//69 207//69
v -4.016405539 1 8.589058529
v -5.118730283 1 9.278627351
v -4.366976186 1 9.552243466
vn 0 1 0
f 208//70 209//70 210//70
v -4.366976186 1 9.552243466
v -0.4 1 9.226728399
v -4.016405539 1 8.589058529
vn 0 1 0
f 211//71 212//71 213//71
v -4.366976186 1 9.552243466
v -0.4 1 10.251728399
v -0.4 1 9.226728399
vn 0 1 0
f 214//72 215//72 216//72
v -4.366976186 1 9.552243466
v -0.4 1 11.276728399
v -0.4 1 10.251728399
vn 0 1 0
f 217//73 218//73 219//73
v -0.4 1 11.276728399
v -4.366976186 1 9.552243466
v -4.717546833 1 10.515428402
vn 0 1 0
f 220//74 221//74 222//74
v -0.4 1 10.251728399
v 0.4 1 9.226728399
v -0.4 1 9.226728399
vn 0 1 0
f 223//75 224//75 225//75
v 0.4 1 9.226728399
v -0.4 1 10.251728399
v 0.4 1 10.251728399
vn 0 1 0
f 226//76 227//76 228//76
v 0.4 1 10.251728399
v 4.016405539 1 8.589058529
v 0.4 1 9.226728399
vn 0 1 0
f 229//77 230//77 231//77
v 0.4 1 10.251728399
v 4.366976186 1 9.552243466
v 4.016405539 1 8.589058529
vn 0 1 0
f 232//78 233//78 234//78
v 0.4 1 10.251728399
v 4.717546833 1 10.515428402
v 4.366976186 1 9.552243466
vn 0 1 0
f 235//79 236//79 237//79
v 4.717546833 1 10.515428402
v 0.4 1 10.251728399
v 0.4 1 11.276728399
vn 0 1 0
f 238//80 239//80 240//80
v 4.366976186 1 9.552243466
v 4.768159636 1 8.315442415
v 4.016405539 1 8.589058529
vn 0 1 0
f 241//81 242//81 243//81
v 4.768159636 1 8.315442415
v 4.366976186 1 9.552243466
v 5.118730283 1 9.278627351
vn 0 1 0
f 244//82 245//82 246//82
v 5.118730283 1 9.278627351
v 8.211801815 1 6.560819086
v 4.768159636 1 8.315442415
vn 0 1 0
f 247//83 248//83 249//83
v 5.118730283 1 9.278627351
v 8.784974541 1 7.410582598
v 8.211801815 1 6.560819086
vn 0 1 0
f 250//84 251//84 252//84
v 5.118730283 1 9.278627351
v 9.358147267 1 8.260346109
v 8.784974541 1 7.410582598
vn 0 1 0
f 253//85 254//85 255//85
v 9.358147267 1 8.260346109
v 5.118730283 1 9.278627351
v 5.46930093 1 10.241812287
vn 0 1 0
f 256//86 257//86 258//86
v 8.784974541 1 7.410582598
v 8.833579994 1 6.141424408
v 8.211801815 1 6.560819086
vn 0 1 0
f 259//87 260//87 261//87
v 8.833579994 1 6.141424408
v 8.784974541 1 7.410582598
v 9.40675272 1 6.99118792
vn 0 1 0
f 262//88 263//88 264//88
o Terrace04
g Terrace04
usemtl Terrace04
v -10.553098172 1.5 8.690714944
v -9.358147267 1.5 8.260346109
v -9.979925446 1.5 7.840951432
vn 0 1 0
f 265//89 266//89 267//89
v -9.358147267 1.5 8.260346109
v -10.553098172 1.5 8.690714944
v -9.931319993 1.5 9.110109621
vn 0 1 0
f 268//90 269//90 270//90
v -9.931319993 1.5 9.110109621
v -5.46930093 1.5 10.241812287
v -9.358147267 1.5 8.260346109
vn 0 1 0
f 271//91 272//91 273//91
v -9.931319993 1.5 9.110109621
v -5.819871577 1.5 11.204997223
v -5.46930093 1.5 10.241812287
vn 0 1 0
f 274//92 275//92 276//92
v -9.931319993 1.5 9.110109621
v -6.170442224 1.5 12.16818216
v -5.819871577 1.5 11.204997223
vn 0 1 0
f 277//93 278//93 279//93
v -6.170442224 1.5 12.16818216
v -9.931319993 1.5 9.110109621
v -10.504492719 1.5 9.959873133
vn 0 1 0
f 280//94 281//94 282//94
v -5.819871577 1.5 11.204997223
v -4.717546833 1.5 10.515428402
v -5.46930093 1.5 10.241812287
vn 0 1 0
f 283//95 284//95 285//95
v -4.717546833 1.5 10.515428402
v -5.819871577 1.5 11.204997223
v -5.06811748 1.5 11.478613338
vn 0 1 0
f 286//96 287//96 288//96
v -5.06811748 1.5 11.478613338
v -0.4 1.5 11.276728399
v -4.717546833 1.5 10.515428402
vn 0 1 0
f 289//97 290//97 291//97
v -5.06811748 1.5 11.478613338
v -0.4 1.5 12.301728399
v -0.4 1.5 11.276728399
vn 0 1 0
f 292//98 293//98 294//98
v -5.06811748 1.5 11.478613338
v -0.4 1.5 13.326728399
v -0.4 1.5 12.301728399
vn 0 1 0
f 295//99 296//99 297//99
v -0.4 1.5 13.326728399
v -5.06811748 1.5 11.478613338
v -5.418688127 1.5 12.441798274
vn 0 1 0
f 298//100 299//100 300//100
v -0.4 1.5 12.301728399
v 0.4 1.5 11.276728399
v -0.4 1.5 11.276728399
vn 0 1 0
f 301//101 302//101 303//101
v 0.4 1.5 11.276728399
v -0.4 1.5 12.301728399
v 0.4 1.5 12.301728399
vn 0 1 0
f 304//102 305//102 306//102
v 0.4 1.5 12.301728399
v 4.717546833 1.5 10.515428402
v 0.4 1.5 11.276728399
vn 0 1 0
f 307//103 308//103 309//103
v 0.4 1.5 12.301728399
v 5.06811748 1.5 11.478613338
v 4.717546833 1.5 10.515428402
vn 0 1 0
f 310//104 311//104 312//104
v 0.4 1.5 12.301728399
v 5.418688127 1.5 12.441798274
v 5.06811748 1.5 11.478613338
vn 0 1 0
f 313//105 314//105 315//105
v 5.418688127 1.5 12.441798274
v 0.4 1.5 12.301728399
v 0.4 1.5 13.326728399
vn 0 1 0
f 316//106 317//106 318//106
v 5.06811748 1.5 11.478613338
v 5.46930093 1.5 10.241812287
v 4.717546833 1.5 10.515428402
vn 0 1 0
f 319//107 320//107 321//107
v 5.46930093 1.5 10.241812287
v 5.06811748 1.5 11.478613338
v 5.819871577 1.5 11.204997223
vn 0 1 0
f 322//108 323//108 324//108
v 5.819871577 1.5 11.204997223
v 9.358147267 1.5 8.260346109
v 5.46930093 1.5 10.241812287
vn 0 1 0
f 325//109 326//109 327//109
v 5.819871577 1.5 11.204997223
v 9.931319993 1.5 9.110109621
v 9.358147267 1.5 8.260346109
vn 0 1 0
f 328//110 329//110 330//110
v 5.819871577 1.5 11.204997223
v 10.504492719 1.5 9.959873133
v 9.931319993 1.5 9.110109621
vn 0 1 0
f 331//111 332//111 333//111
v 10.504492719 1.5 9.959873133
v 5.819871577 1.5 11.204997223
v 6.170442224 1.5 12.16818216
vn 0 1 0
f 334//112 335//112 336//112
v 9.931319993 1.5 9.110109621
v 9.979925446 1.5 7.840951432
v 9.358147267 1.5 8.260346109
vn 0 1 0
f 337//113 338//113 339//113
v 9.979925446 1.5 7.840951432
v 9.931319993 1.5 9.110109621
v 10.553098172 1.5 8.690714944
vn 0 1 0
f 340//114 341//114 342//114
o Terrace05
g Terrace05
usemtl Terrace05
v -11.699443624 2 10.390241967
v -10.504492719 2 9.959873133
v -11.126270898 2 9.540478456
vn 0 1 0
f 343//115 344//115 345//115
v -10.504492719 2 9.959873133
v -11.699443624 2 10.390241967
v -11.077665445 2 10.809636645
vn 0 1 0
f 346//116 347//116 348//116
v -11.077665445 2 10.809636645
v -6.170442224 2 12.16818216
v -10.504492719 2 9.959873133
vn 0 1 0
f 349//117 350//117 351//117
v -11.077665445 2 10.809636645
v -6.52101287 2 13.131367096
v -6.170442224 2 12.16818216
vn 0 1 0
f 352//118 353//118 354//118
v -11.077665445 2 10.809636645
v -6.871583517 2 14.094552032
v -6.52101287 2 13.131367096
vn 0 1 0
f 355//119 356//119 357//119
v -6.871583517 2 14.094552032
v -11.077665445 2 10.809636645
v -11.650838171 2 11.659400157
vn 0 1 0
f 358//120 359//120 360//120
v -6.52101287 2 13.131367096
v -5.418688127 2 12.441798274
v -6.170442224 2 12.16818216
vn 0 1 0
f 361//121 362//121 363//121
v -5.418688127 2 12.441798274
v -6.52101287 2 13.131367096
v -5.769258774 2 13.404983211
vn 0 1 0
f 364//122 365//122 366//122
v -5.769258774 2 13.404983211
v -0.4 2 13.326728399
v -5.418688127 2 12.441798274
vn 0 1 0
f 367//123 368//123 369//123
v -5.769258774 2 13.404983211
v -0.4 2 14.351728399
v -0.4 2 13.326728399
vn 0 1 0
f 370//124 371//124 372//124
v -5.769258774 2 13.404983211
v -0.4 2 15.376728399
v -0.4 2 14.351728399
vn 0 1 0
f 373//125 374//125 375//125
v -0.4 2 15.376728399
v -5.769258774 2 13.404983211
v -6.119829421 2 14.368168147
vn 0 1 0
f 376//126 377//126 378//126
v -0.4 2 14.351728399
v 0.4 2 13.326728399
v -0.4 2 13.326728399
vn 0 1 0
f 379//127 380//127 381//127
v 0.4 2 13.326728399
v -0.4 2 14.351728399
v 0.4 2 14.351728399
vn 0 1 0
f 382//128 383//128 384//128
v 0.4 2 14.351728399
v 5.418688127 2 12.441798274
v 0.4 2 13.326728399
vn 0 1 0
f 385//129 386//129 387//129
v 0.4 2 14.351728399
v 5.769258774 2 13.404983211
v 5.418688127 2 12.441798274
vn 0 1 0
f 388//130 389//130 390//130
v 0.4 2 14.351728399
v 6.119829421 2 14.368168147
v 5.769258774 2 13.404983211
vn 0 1 0
f 391//131 392//131 393//131
v 6.119829421 2 14.368168147
v 0.4 2 14.351728399
v 0.4 2 15.376728399
vn 0 1 0
f 394//132 395//132 396//132
v 5.769258774 2 13.404983211
v 6.170442224 2 12.16818216
v 5.418688127 2 12.441798274
vn 0 1 0
f 397//133 398//133 399//133
v 6.170442224 2 12.16818216
v 5.769258774 2 13.404983211
v 6.52101287 2 13.131367096
vn 0 1 0
f 400//134 401//134 402//134
v 6.52101287 2 13.131367096
v 10.504492719 2 9.959873133
v 6.170442224 2 12.16818216
vn 0 1 0
f 403//135 404//135 405//135
v 6.52101287 2 13.131367096
v 11.077665445 2 10.809636645
v 10.504492719 2 9.959873133
vn 0 1 0
f 406//136 407//136 408//136
v 6.52101287 2 13.131367096
v 11.650838171 2 11.659400157
v 11.077665445 2 10.809636645
vn 0 1 0
f 409//137 410//137 411//137
v 11.650838171 2 11.659400157
v 6.52101287 2 13.131367096
v 6.871583517 2 14.094552032
vn 0 1 0
f 412//138 413//138 414//138
v 11.077665445 2 10.809636645
v 11.126270898 2 9.540478456
v 10.504492719 2 9.959873133
vn 0 1 0
f 415//139 416//139 417//139
v 11.126270898 2 9.540478456
v 11.077665445 2 10.809636645
v 11.699443624 2 10.390241967
vn 0 1 0
f 418//140 419//140 420//140
o Terrace06
g Terrace06
usemtl Terrace06
v -12.845789076 2.5 12.089768991
v -11.650838171 2.5 11.659400157
v -12.27261635 2.5 11.240005479
vn 0 1 0
f 421//141 422//141 423//141
v -11.650838171 2.5 11.659400157
v -12.845789076 2.5 12.089768991
v -12.224010897 2.5 12.509163669
vn 0 1 0
f 424//142 425//142 426//142
v -12.224010897 2.5 12.509163669
v -6.871583517 2.5 14.094552032
v -11.650838171 2.5 11.659400157
vn 0 1 0
f 427//143 428//143 429//143
v -12.224010897 2.5 12.509163669
v -7.222154164 2.5 15.057736969
v -6.871583517 2.5 14.094552032
vn 0 1 0
f 430//144 431//144 432//144
v -12.224010897 2.5 12.509163669
v -7.572724811 2.5 16.020921905
v -7.222154164 2.5 15.057736969
vn 0 1 0
f 433//145 434//145 435//145
v -7.572724811 2.5 16.020921905
v -12.224010897 2.5 12.509163669
v -12.797183623 2.5 13.358927181
vn 0 1 0
f 436//146 437//146 438//146
v -7.222154164 2.5 15.057736969
v -6.119829421 2.5 14.368168147
v -6.871583517 2.5 14.094552032
vn 0 1 0
f 439//147 440//147 441//147
v -6.119829421 2.5 14.368168147
v -7.222154164 2.5 15.057736969
v -6.470400068 2.5 15.331353083
vn 0 1 0
f 442//148 443//148 444//148
v -6.470400068 2.5 15.331353083
v -0.4 2.5 15.376728399
v -6.119829421 2.5 14.368168147
vn 0 1 0
f 445//149 446//149 447//149
v -6.470400068 2.5 15.331353083
v -0.4 2.5 16.401728399
v -0.4 2.5 15.376728399
vn 0 1 0
f 448//150 449//150 450//150
v -6.470400068 2.5 15.331353083
v -0.4 2.5 17.426728399
v -0.4 2.5 16.401728399
vn 0 1 0
f 451//151 452//151 453//151
v -0.4 2.5 17.426728399
v -6.470400068 2.5 15.331353083
v -6.820970715 2.5 16.29453802
vn 0 1 0
f 454//152 455//152 456//152
v -0.4 2.5 16.401728399
v 0.4 2.5 15.376728399
v -0.4 2.5 15.376728399
vn 0 1 0
f 457//153 458//153 459//153
v 0.4 2.5 15.376728399
v -0.4 2.5 16.401728399
v 0.4 2.5 16.401728399
vn 0 1 0
f 460//154 461//154 462//154
v 0.4 2.5 16.401728399
v 6.119829421 2.5 14.368168147
v 0.4 2.5 15.376728399
vn 0 1 0
f 463//155 464//155 465//155
v 0.4 2.5 16.401728399
v 6.470400068 2.5 15.331353083
v 6.119829421 2.5 14.368168147
vn 0 1 0
f 466//156 467//156 468//156
v 0.4 2.5 16.401728399
v 6.820970715 2.5 16.29453802
v 6.470400068 2.5 15.331353083
vn 0 1 0
f 469//157 470//157 471//157
v 6.820970715 2.5 16.29453802
v 0.4 2.5 16.401728399
v 0.4 2.5 17.426728399
vn 0 1 0
f 472//158 473//158 474//158
v 6.470400068 2.5 15.331353083
v 6.871583517 2.5 14.094552032
v 6.119829421 2.5 14.368168147
vn 0 1 0
f 475//159 476//159 477//159
v 6.871583517 2.5 14.094552032
v 6.470400068 2.5 15.331353083
v 7.222154164 2.5 15.057736969
vn 0 1 0
f 478//160 479//160 480//160
v 7.222154164 2.5 15.057736969
v 11.650838171 2.5 11.659400157
v 6.871583517 2.5 14.094552032
vn 0 1 0
f 481//161 482//161 483//161
v 7.222154164 2.5 15.057736969
v 12.224010897 2.5 12.509163669
v 11.650838171 2.5 11.659400157
vn 0 1 0
f 484//162 485//162 486//162
v 7.222154164 2.5 15.057736969
v 12.797183623 2.5 13.358927181
v 12.224010897 2.5 12.509163669
vn 0 1 0
f 487//163 488//163 489//163
v 12.797183623 2.5 13.358927181
v 7.222154164 2.5 15.057736969
v 7.572724811 2.5 16.020921905
vn 0 1 0
f 490//164 491//164 492//164
v 12.224010897 2.5 12.509163669
v 12.27261635 2.5 11.240005479
v 11.650838171 2.5 11.659400157
vn 0 1 0
f 493//165 494//165 495//165
v 12.27261635 2.5 11.240005479
v 12.224010897 2.5 12.509163669
v 12.845789076 2.5 12.089768991
vn 0 1 0
f 496//166 497//166 498//166
o RearLanding
g RearLanding
usemtl RearLanding
v -18.51856152 3 20.5
v -12.797183623 3 13.358927181
v -13.418961802 3 12.939532503
vn 0 1 0
f 499//167 500//167 501//167
v -18.51856152 3 20.5
v -7.572724811 3 16.020921905
v -12.797183623 3 13.358927181
vn 0 1 0
f 502//168 503//168 504//168
v -18.51856152 3 20.5
v -6.820970715 3 16.29453802
v -7.572724811 3 16.020921905
vn 0 1 0
f 505//169 506//169 507//169
v -18.51856152 3 20.5
v -0.4 3 17.426728399
v -6.820970715 3 16.29453802
vn 0 1 0
f 508//170 509//170 510//170
v -18.51856152 3 20.5
v 0.4 3 17.426728399
v -0.4 3 17.426728399
vn 0 1 0
f 511//171 512//171 513//171
v 12.797183623 3 13.358927181
v 18.51856152 3 20.5
v 13.418961802 3 12.939532503
vn 0 1 0
f 514//172 515//172 516//172
v 7.572724811 3 16.020921905
v 18.51856152 3 20.5
v 12.797183623 3 13.358927181
vn 0 1 0
f 517//173 518//173 519//173
v 6.820970715 3 16.29453802
v 18.51856152 3 20.5
v 7.572724811 3 16.020921905
vn 0 1 0
f 520//174 521//174 522//174
v 0.4 3 17.426728399
v 18.51856152 3 20.5
v 6.820970715 3 16.29453802
vn 0 1 0
f 523//175 524//175 525//175
v 0.4 3 17.426728399
v -18.51856152 3 20.5
v 18.51856152 3 20.5
vn 0 1 0
f 526//176 527//176 528//176
o Riser01
g Riser01
usemtl Riser01
v -7.065456362 0 4.861292062
v -7.065456362 0.5 4.861292062
v -4.067018342 0.5 6.389072542
vn 0.4539905 0 -0.891006524
f 529//177 530//177 531//177
v -7.065456362 0 4.861292062
v -4.067018342 0.5 6.389072542
v -4.067018342 0 6.389072542
vn 0.4539905 0 -0.891006524
f 532//178 533//178 534//178
v -3.315264246 0 6.662688657
v -3.315264246 0.5 6.662688657
v -0.4 0.5 7.176728399
vn 0.173648178 0 -0.984807753
f 535//179 536//179 537//179
v -3.315264246 0 6.662688657
v -0.4 0.5 7.176728399
v -0.4 0 7.176728399
vn 0.173648178 0 -0.984807753
f 538//180 539//180 540//180
v 0.4 0 7.176728399
v 0.4 0.5 7.176728399
v 3.315264246 0.5 6.662688657
vn -0.173648178 0 -0.984807753
f 541//181 542//181 543//181
v 0.4 0 7.176728399
v 3.315264246 0.5 6.662688657
v 3.315264246 0 6.662688657
vn -0.173648178 0 -0.984807753
f 544//182 545//182 546//182
v 4.067018342 0 6.389072542
v 4.067018342 0.5 6.389072542
v 7.065456362 0.5 4.861292062
vn -0.4539905 0 -0.891006524
f 547//183 548//183 549//183
v 4.067018342 0 6.389072542
v 7.065456362 0.5 4.861292062
v 7.065456362 0 4.861292062
vn -0.4539905 0 -0.891006524
f 550//184 551//184 552//184
o Riser02
g Riser02
usemtl Riser02
v -8.211801815 0.5 6.560819086
v -8.211801815 1 6.560819086
v -4.768159636 1 8.315442415
vn 0.4539905 0 -0.891006524
f 553//185 554//185 555//185
v -8.211801815 0.5 6.560819086
v -4.768159636 1 8.315442415
v -4.768159636 0.5 8.315442415
vn 0.4539905 0 -0.891006524
f 556//186 557//186 558//186
v -4.016405539 0.5 8.589058529
v -4.016405539 1 8.589058529
v -0.4 1 9.226728399
vn 0.173648178 0 -0.984807753
f 559//187 560//187 561//187
v -4.016405539 0.5 8.589058529
v -0.4 1 9.226728399
v -0.4 0.5 9.226728399
vn 0.173648178 0 -0.984807753
f 562//188 563//188 564//188
v 0.4 0.5 9.226728399
v 0.4 1 9.226728399
v 4.016405539 1 8.589058529
vn -0.173648178 0 -0.984807753
f 565//189 566//189 567//189
v 0.4 0.5 9.226728399
v 4.016405539 1 8.589058529
v 4.016405539 0.5 8.589058529
vn -0.173648178 0 -0.984807753
f 568//190 569//190 570//190
v 4.768159636 0.5 8.315442415
v 4.768159636 1 8.315442415
v 8.211801815 1 6.560819086
vn -0.4539905 0 -0.891006524
f 571//191 572//191 573//191
v 4.768159636 0.5 8.315442415
v 8.211801815 1 6.560819086
v 8.211801815 0.5 6.560819086
vn -0.4539905 0 -0.891006524
f 574//192 575//192 576//192
o Riser03
g Riser03
usemtl Riser03
v -9.358147267 1 8.260346109
v -9.358147267 1.5 8.260346109
v -5.46930093 1.5 10.241812287
vn 0.4539905 0 -0.891006524
f 577//193 578//193 579//193
v -9.358147267 1 8.260346109
v -5.46930093 1.5 10.241812287
v -5.46930093 1 10.241812287
vn 0.4539905 0 -0.891006524
f 580//194 581//194 582//194
v -4.717546833 1 10.515428402
v -4.717546833 1.5 10.515428402
v -0.4 1.5 11.276728399
vn 0.173648178 0 -0.984807753
f 583//195 584//195 585//195
v -4.717546833 1 10.515428402
v -0.4 1.5 11.276728399
v -0.4 1 11.276728399
vn 0.173648178 0 -0.984807753
f 586//196 587//196 588//196
v 0.4 1 11.276728399
v 0.4 1.5 11.276728399
v 4.717546833 1.5 10.515428402
vn -0.173648178 0 -0.984807753
f 589//197 590//197 591//197
v 0.4 1 11.276728399
v 4.717546833 1.5 10.515428402
v 4.717546833 1 10.515428402
vn -0.173648178 0 -0.984807753
f 592//198 593//198 594//198
v 5.46930093 1 10.241812287
v 5.46930093 1.5 10.241812287
v 9.358147267 1.5 8.260346109
vn -0.4539905 0 -0.891006524
f 595//199 596//199 597//199
v 5.46930093 1 10.241812287
v 9.358147267 1.5 8.260346109
v 9.358147267 1 8.260346109
vn -0.4539905 0 -0.891006524
f 598//200 599//200 600//200
o Riser04
g Riser04
usemtl Riser04
v -10.504492719 1.5 9.959873133
v -10.504492719 2 9.959873133
v -6.170442224 2 12.16818216
vn 0.4539905 0 -0.891006524
f 601//201 602//201 603//201
v -10.504492719 1.5 9.959873133
v -6.170442224 2 12.16818216
v -6.170442224 1.5 12.16818216
vn 0.4539905 0 -0.891006524
f 604//202 605//202 606//202
v -5.418688127 1.5 12.441798274
v -5.418688127 2 12.441798274
v -0.4 2 13.326728399
vn 0.173648178 0 -0.984807753
f 607//203 608//203 609//203
v -5.418688127 1.5 12.441798274
v -0.4 2 13.326728399
v -0.4 1.5 13.326728399
vn 0.173648178 0 -0.984807753
f 610//204 611//204 612//204
v 0.4 1.5 13.326728399
v 0.4 2 13.326728399
v 5.418688127 2 12.441798274
vn -0.173648178 0 -0.984807753
f 613//205 614//205 615//205
v 0.4 1.5 13.326728399
v 5.418688127 2 12.441798274
v 5.418688127 1.5 12.441798274
vn -0.173648178 0 -0.984807753
f 616//206 617//206 618//206
v 6.170442224 1.5 12.16818216
v 6.170442224 2 12.16818216
v 10.504492719 2 9.959873133
vn -0.4539905 0 -0.891006524
f 619//207 620//207 621//207
v 6.170442224 1.5 12.16818216
v 10.504492719 2 9.959873133
v 10.504492719 1.5 9.959873133
vn -0.4539905 0 -0.891006524
f 622//208 623//208 624//208
o Riser05
g Riser05
usemtl Riser05
v -11.650838171 2 11.659400157
v -11.650838171 2.5 11.659400157
v -6.871583517 2.5 14.094552032
vn 0.4539905 0 -0.891006524
f 625//209 626//209 627//209
v -11.650838171 2 11.659400157
v -6.871583517 2.5 14.094552032
v -6.871583517 2 14.094552032
vn 0.4539905 0 -0.891006524
f 628//210 629//210 630//210
v -6.119829421 2 14.368168147
v -6.119829421 2.5 14.368168147
v -0.4 2.5 15.376728399
vn 0.173648178 0 -0.984807753
f 631//211 632//211 633//211
v -6.119829421 2 14.368168147
v -0.4 2.5 15.376728399
v -0.4 2 15.376728399
vn 0.173648178 0 -0.984807753
f 634//212 635//212 636//212
v 0.4 2 15.376728399
v 0.4 2.5 15.376728399
v 6.119829421 2.5 14.368168147
vn -0.173648178 0 -0.984807753
f 637//213 638//213 639//213
v 0.4 2 15.376728399
v 6.119829421 2.5 14.368168147
v 6.119829421 2 14.368168147
vn -0.173648178 0 -0.984807753
f 640//214 641//214 642//214
v 6.871583517 2 14.094552032
v 6.871583517 2.5 14.094552032
v 11.650838171 2.5 11.659400157
vn -0.4539905 0 -0.891006524
f 643//215 644//215 645//215
v 6.871583517 2 14.094552032
v 11.650838171 2.5 11.659400157
v 11.650838171 2 11.659400157
vn -0.4539905 0 -0.891006524
f 646//216 647//216 648//216
o Riser06
g Riser06
usemtl Riser06
v -12.797183623 2.5 13.358927181
v -12.797183623 3 13.358927181
v -7.572724811 3 16.020921905
vn 0.4539905 0 -0.891006524
f 649//217 650//217 651//217
v -12.797183623 2.5 13.358927181
v -7.572724811 3 16.020921905
v -7.572724811 2.5 16.020921905
vn 0.4539905 0 -0.891006524
f 652//218 653//218 654//218
v -6.820970715 2.5 16.29453802
v -6.820970715 3 16.29453802
v -0.4 3 17.426728399
vn 0.173648178 0 -0.984807753
f 655//219 656//219 657//219
v -6.820970715 2.5 16.29453802
v -0.4 3 17.426728399
v -0.4 2.5 17.426728399
vn 0.173648178 0 -0.984807753
f 658//220 659//220 660//220
v 0.4 2.5 17.426728399
v 0.4 3 17.426728399
v 6.820970715 3 16.29453802
vn -0.173648178 0 -0.984807753
f 661//221 662//221 663//221
v 0.4 2.5 17.426728399
v 6.820970715 3 16.29453802
v 6.820970715 2.5 16.29453802
vn -0.173648178 0 -0.984807753
f 664//222 665//222 666//222
v 7.572724811 2.5 16.020921905
v 7.572724811 3 16.020921905
v 12.797183623 3 13.358927181
vn -0.4539905 0 -0.891006524
f 667//223 668//223 669//223
v 7.572724811 2.5 16.020921905
v 12.797183623 3 13.358927181
v 12.797183623 2.5 13.358927181
vn -0.4539905 0 -0.891006524
f 670//224 671//224 672//224
