# Deterministic B202 final layout
o FacetedWalls
g FacetedWalls
usemtl FacetedWalls
v -4 -0.25 -0.85
v 4 -0.25 -0.85
v 4 7.2 -0.85
vn 0 0 1
f 1//1 2//1 3//1
v -4 -0.25 -0.85
v 4 7.2 -0.85
v -4 7.2 -0.85
vn 0 0 1
f 4//2 5//2 6//2
v 4.122723631 -0.25 -1.1
v -4.122723631 -0.25 -1.1
v -4.122723631 7.2 -1.1
vn 0 0 -1
f 7//3 8//3 9//3
v 4.122723631 -0.25 -1.1
v -4.122723631 7.2 -1.1
v 4.122723631 7.2 -1.1
vn 0 0 -1
f 10//4 11//4 12//4
v -4 7.2 -0.85
v 4 7.2 -0.85
v 4.122723631 7.2 -1.1
vn 0 1 0
f 13//5 14//5 15//5
v -4 7.2 -0.85
v 4.122723631 7.2 -1.1
v -4.122723631 7.2 -1.1
vn 0 1 0
f 16//6 17//6 18//6
v -4 -0.25 -0.85
v -4.122723631 -0.25 -1.1
v 4.122723631 -0.25 -1.1
vn 0 -1 0
f 19//7 20//7 21//7
v -4 -0.25 -0.85
v 4.122723631 -0.25 -1.1
v 4 -0.25 -0.85
vn 0 -1 0
f 22//8 23//8 24//8
v 4 -0.25 -0.85
v 6.697191888 -0.25 2.638794104
v 6.697191888 7.2 2.638794104
vn -0.791141741 0 0.611632852
f 25//9 26//9 27//9
v 4 -0.25 -0.85
v 6.697191888 7.2 2.638794104
v 4 7.2 -0.85
vn -0.791141741 0 0.611632852
f 28//10 29//10 30//10
v 6.899926466 -0.25 2.492287564
v 4.122723631 -0.25 -1.1
v 4.122723631 7.2 -1.1
vn 0.791141741 0 -0.611632852
f 31//11 32//11 33//11
v 6.899926466 -0.25 2.492287564
v 4.122723631 7.2 -1.1
v 6.899926466 7.2 2.492287564
vn 0.791141741 0 -0.611632852
f 34//12 35//12 36//12
v 4 7.2 -0.85
v 6.697191888 7.2 2.638794104
v 6.899926466 7.2 2.492287564
vn 0 1 0
f 37//13 38//13 39//13
v 4 7.2 -0.85
v 6.899926466 7.2 2.492287564
v 4.122723631 7.2 -1.1
vn 0 1 0
f 40//14 41//14 42//14
v 4 -0.25 -0.85
v 4.122723631 -0.25 -1.1
v 6.899926466 -0.25 2.492287564
vn 0 -1 0
f 43//15 44//15 45//15
v 4 -0.25 -0.85
v 6.899926466 -0.25 2.492287564
v 6.697191888 -0.25 2.638794104
vn 0 -1 0
f 46//16 47//16 48//16
v 6.697191888 -0.25 2.638794104
v 7.84353734 -0.25 4.338321128
v 7.84353734 7.2 4.338321128
vn -0.829037573 0 0.559192903
f 49//17 50//17 51//17
v 6.697191888 -0.25 2.638794104
v 7.84353734 7.2 4.338321128
v 6.697191888 7.2 2.638794104
vn -0.829037573 0 0.559192903
f 52//18 53//18 54//18
v 8.050796733 -0.25 4.198522902
v 6.899926466 -0.25 2.492287564
v 6.899926466 7.2 2.492287564
vn 0.829037573 0 -0.559192903
f 55//19 56//19 57//19
v 8.050796733 -0.25 4.198522902
v 6.899926466 7.2 2.492287564
v 8.050796733 7.2 4.198522902
vn 0.829037573 0 -0.559192903
f 58//20 59//20 60//20
v 6.697191888 7.2 2.638794104
v 7.84353734 7.2 4.338321128
v 8.050796733 7.2 4.198522902
vn 0 1 0
f 61//21 62//21 63//21
v 6.697191888 7.2 2.638794104
v 8.050796733 7.2 4.198522902
v 6.899926466 7.2 2.492287564
vn 0 1 0
f 64//22 65//22 66//22
v 6.697191888 -0.25 2.638794104
v 6.899926466 -0.25 2.492287564
v 8.050796733 -0.25 4.198522902
vn 0 -1 0
f 67//23 68//23 69//23
v 6.697191888 -0.25 2.638794104
v 8.050796733 -0.25 4.198522902
v 7.84353734 -0.25 4.338321128
vn 0 -1 0
f 70//24 71//24 72//24
v 7.84353734 -0.25 4.338321128
v 8.989882792 -0.25 6.037848151
v 8.989882792 7.2 6.037848151
vn -0.829037573 0 0.559192903
f 73//25 74//25 75//25
v 7.84353734 -0.25 4.338321128
v 8.989882792 7.2 6.037848151
v 7.84353734 7.2 4.338321128
vn -0.829037573 0 0.559192903
f 76//26 77//26 78//26
v 9.197142185 -0.25 5.898049925
v 8.050796733 -0.25 4.198522902
v 8.050796733 7.2 4.198522902
vn 0.829037573 0 -0.559192903
f 79//27 80//27 81//27
v 9.197142185 -0.25 5.898049925
v 8.050796733 7.2 4.198522902
v 9.197142185 7.2 5.898049925
vn 0.829037573 0 -0.559192903
f 82//28 83//28 84//28
v 7.84353734 7.2 4.338321128
v 8.989882792 7.2 6.037848151
v 9.197142185 7.2 5.898049925
vn 0 1 0
f 85//29 86//29 87//29
v 7.84353734 7.2 4.338321128
v 9.197142185 7.2 5.898049925
v 8.050796733 7.2 4.198522902
vn 0 1 0
f 88//30 89//30 90//30
v 7.84353734 -0.25 4.338321128
v 8.050796733 -0.25 4.198522902
v 9.197142185 -0.25 5.898049925
vn 0 -1 0
f 91//31 92//31 93//31
v 7.84353734 -0.25 4.338321128
v 9.197142185 -0.25 5.898049925
v 8.989882792 -0.25 6.037848151
vn 0 -1 0
f 94//32 95//32 96//32
v 8.989882792 -0.25 6.037848151
v 10.136228244 -0.25 7.737375175
v 10.136228244 7.2 7.737375175
vn -0.829037573 0 0.559192903
f 97//33 98//33 99//33
v 8.989882792 -0.25 6.037848151
v 10.136228244 7.2 7.737375175
v 8.989882792 7.2 6.037848151
vn -0.829037573 0 0.559192903
f 100//34 101//34 102//34
v 10.343487637 -0.25 7.597576949
v 9.197142185 -0.25 5.898049925
v 9.197142185 7.2 5.898049925
vn 0.829037573 0 -0.559192903
f 103//35 104//35 105//35
v 10.343487637 -0.25 7.597576949
v 9.197142185 7.2 5.898049925
v 10.343487637 7.2 7.597576949
vn 0.829037573 0 -0.559192903
f 106//36 107//36 108//36
v 8.989882792 7.2 6.037848151
v 10.136228244 7.2 7.737375175
v 10.343487637 7.2 7.597576949
vn 0 1 0
f 109//37 110//37 111//37
v 8.989882792 7.2 6.037848151
v 10.343487637 7.2 7.597576949
v 9.197142185 7.2 5.898049925
vn 0 1 0
f 112//38 113//38 114//38
v 8.989882792 -0.25 6.037848151
v 9.197142185 -0.25 5.898049925
v 10.343487637 -0.25 7.597576949
vn 0 -1 0
f 115//39 116//39 117//39
v 8.989882792 -0.25 6.037848151
v 10.343487637 -0.25 7.597576949
v 10.136228244 -0.25 7.737375175
vn 0 -1 0
f 118//40 119//40 120//40
v 10.136228244 -0.25 7.737375175
v 11.282573696 -0.25 9.436902199
v 11.282573696 7.2 9.436902199
vn -0.829037573 0 0.559192903
f 121//41 122//41 123//41
v 10.136228244 -0.25 7.737375175
v 11.282573696 7.2 9.436902199
v 10.136228244 7.2 7.737375175
vn -0.829037573 0 0.559192903
f 124//42 125//42 126//42
v 11.489833089 -0.25 9.297103973
v 10.343487637 -0.25 7.597576949
v 10.343487637 7.2 7.597576949
vn 0.829037573 0 -0.559192903
f 127//43 128//43 129//43
v 11.489833089 -0.25 9.297103973
v 10.343487637 7.2 7.597576949
v 11.489833089 7.2 9.297103973
vn 0.829037573 0 -0.559192903
f 130//44 131//44 132//44
v 10.136228244 7.2 7.737375175
v 11.282573696 7.2 9.436902199
v 11.489833089 7.2 9.297103973
vn 0 1 0
f 133//45 134//45 135//45
v 10.136228244 7.2 7.737375175
v 11.489833089 7.2 9.297103973
v 10.343487637 7.2 7.597576949
vn 0 1 0
f 136//46 137//46 138//46
v 10.136228244 -0.25 7.737375175
v 10.343487637 -0.25 7.597576949
v 11.489833089 -0.25 9.297103973
vn 0 -1 0
f 139//47 140//47 141//47
v 10.136228244 -0.25 7.737375175
v 11.489833089 -0.25 9.297103973
v 11.282573696 -0.25 9.436902199
vn 0 -1 0
f 142//48 143//48 144//48
v 11.282573696 -0.25 9.436902199
v 12.428919148 -0.25 11.136429223
v 12.428919148 7.2 11.136429223
vn -0.829037573 0 0.559192903
f 145//49 146//49 147//49
v 11.282573696 -0.25 9.436902199
v 12.428919148 7.2 11.136429223
v 11.282573696 7.2 9.436902199
vn -0.829037573 0 0.559192903
f 148//50 149//50 150//50
v 12.636178541 -0.25 10.996630997
v 11.489833089 -0.25 9.297103973
v 11.489833089 7.2 9.297103973
vn 0.829037573 0 -0.559192903
f 151//51 152//51 153//51
v 12.636178541 -0.25 10.996630997
v 11.489833089 7.2 9.297103973
v 12.636178541 7.2 10.996630997
vn 0.829037573 0 -0.559192903
f 154//52 155//52 156//52
v 11.282573696 7.2 9.436902199
v 12.428919148 7.2 11.136429223
v 12.636178541 7.2 10.996630997
vn 0 1 0
f 157//53 158//53 159//53
v 11.282573696 7.2 9.436902199
v 12.636178541 7.2 10.996630997
v 11.489833089 7.2 9.297103973
vn 0 1 0
f 160//54 161//54 162//54
v 11.282573696 -0.25 9.436902199
v 11.489833089 -0.25 9.297103973
v 12.636178541 -0.25 10.996630997
vn 0 -1 0
f 163//55 164//55 165//55
v 11.282573696 -0.25 9.436902199
v 12.636178541 -0.25 10.996630997
v 12.428919148 -0.25 11.136429223
vn 0 -1 0
f 166//56 167//56 168//56
v 12.428919148 -0.25 11.136429223
v 13.5752646 -0.25 12.835956246
v 13.5752646 7.2 12.835956246
vn -0.829037573 0 0.559192903
f 169//57 170//57 171//57
v 12.428919148 -0.25 11.136429223
v 13.5752646 7.2 12.835956246
v 12.428919148 7.2 11.136429223
vn -0.829037573 0 0.559192903
f 172//58 173//58 174//58
v 13.782523994 -0.25 12.69615802
v 12.636178541 -0.25 10.996630997
v 12.636178541 7.2 10.996630997
vn 0.829037573 0 -0.559192903
f 175//59 176//59 177//59
v 13.782523994 -0.25 12.69615802
v 12.636178541 7.2 10.996630997
v 13.782523994 7.2 12.69615802
vn 0.829037573 0 -0.559192903
f 178//60 179//60 180//60
v 12.428919148 7.2 11.136429223
v 13.5752646 7.2 12.835956246
v 13.782523994 7.2 12.69615802
vn 0 1 0
f 181//61 182//61 183//61
v 12.428919148 7.2 11.136429223
v 13.782523994 7.2 12.69615802
v 12.636178541 7.2 10.996630997
vn 0 1 0
f 184//62 185//62 186//62
v 12.428919148 -0.25 11.136429223
v 12.636178541 -0.25 10.996630997
v 13.782523994 -0.25 12.69615802
vn 0 -1 0
f 187//63 188//63 189//63
v 12.428919148 -0.25 11.136429223
v 13.782523994 -0.25 12.69615802
v 13.5752646 -0.25 12.835956246
vn 0 -1 0
f 190//64 191//64 192//64
v 13.5752646 -0.25 12.835956246
v 18.744727386 -0.25 20.5
v 18.744727386 7.2 20.5
vn -0.829037573 0 0.559192903
f 193//65 194//65 195//65
v 13.5752646 -0.25 12.835956246
v 18.744727386 7.2 20.5
v 13.5752646 7.2 12.835956246
vn -0.829037573 0 0.559192903
f 196//66 197//66 198//66
v 19.214909002 -0.25 20.75
v 13.782523994 -0.25 12.69615802
v 13.782523994 7.2 12.69615802
vn 0.829037573 0 -0.559192903
f 199//67 200//67 201//67
v 19.214909002 -0.25 20.75
v 13.782523994 7.2 12.69615802
v 19.214909002 7.2 20.75
vn 0.829037573 0 -0.559192903
f 202//68 203//68 204//68
v 13.5752646 7.2 12.835956246
v 18.744727386 7.2 20.5
v 19.214909002 7.2 20.75
vn 0 1 0
f 205//69 206//69 207//69
v 13.5752646 7.2 12.835956246
v 19.214909002 7.2 20.75
v 13.782523994 7.2 12.69615802
vn 0 1 0
f 208//70 209//70 210//70
v 13.5752646 -0.25 12.835956246
v 13.782523994 -0.25 12.69615802
v 19.214909002 -0.25 20.75
vn 0 -1 0
f 211//71 212//71 213//71
v 13.5752646 -0.25 12.835956246
v 19.214909002 -0.25 20.75
v 18.744727386 -0.25 20.5
vn 0 -1 0
f 214//72 215//72 216//72
v -18.744727386 -0.25 20.5
v -1.3 3 20.5
v -1.3 -0.25 20.5
vn 0 0 -1
f 217//73 218//73 219//73
v -18.744727386 -0.25 20.5
v -18.744727386 7.2 20.5
v -1.3 3 20.5
vn 0 0 -1
f 220//74 221//74 222//74
v -1.3 3 20.5
v -18.744727386 7.2 20.5
v -1.3 5.6 20.5
vn 0 0 -1
f 223//75 224//75 225//75
v -1.3 5.6 20.5
v -18.744727386 7.2 20.5
v -1.3 7.2 20.5
vn 0 0 -1
f 226//76 227//76 228//76
v 1.3 -0.25 20.5
v 1.3 3 20.5
v 18.744727386 -0.25 20.5
vn 0 0 -1
f 229//77 230//77 231//77
v 18.744727386 -0.25 20.5
v 1.3 3 20.5
v 18.744727386 7.2 20.5
vn 0 0 -1
f 232//78 233//78 234//78
v 18.744727386 7.2 20.5
v 1.3 3 20.5
v 1.3 5.6 20.5
vn 0 0 -1
f 235//79 236//79 237//79
v 18.744727386 7.2 20.5
v 1.3 5.6 20.5
v 1.3 7.2 20.5
vn 0 0 -1
f 238//80 239//80 240//80
v 1.3 -0.25 20.5
v -1.3 -0.25 20.5
v -1.3 3 20.5
vn 0 0 -1
f 241//81 242//81 243//81
v 1.3 -0.25 20.5
v -1.3 3 20.5
v 1.3 3 20.5
vn 0 0 -1
f 244//82 245//82 246//82
v 1.3 5.6 20.5
v -1.3 5.6 20.5
v -1.3 7.2 20.5
vn 0 0 -1
f 247//83 248//83 249//83
v 1.3 5.6 20.5
v -1.3 7.2 20.5
v 1.3 7.2 20.5
vn 0 0 -1
f 250//84 251//84 252//84
v -19.214909002 -0.25 20.75
v -1.3 -0.25 20.75
v -1.3 3 20.75
vn 0 0 1
f 253//85 254//85 255//85
v -19.214909002 -0.25 20.75
v -1.3 3 20.75
v -19.214909002 7.2 20.75
vn 0 0 1
f 256//86 257//86 258//86
v -1.3 3 20.75
v -1.3 5.6 20.75
v -19.214909002 7.2 20.75
vn 0 0 1
f 259//87 260//87 261//87
v -1.3 5.6 20.75
v -1.3 7.2 20.75
v -19.214909002 7.2 20.75
vn 0 0 1
f 262//88 263//88 264//88
v 1.3 -0.25 20.75
v 19.214909002 -0.25 20.75
v 1.3 3 20.75
vn 0 0 1
f 265//89 266//89 267//89
v 19.214909002 -0.25 20.75
v 19.214909002 7.2 20.75
v 1.3 3 20.75
vn 0 0 1
f 268//90 269//90 270//90
v 19.214909002 7.2 20.75
v 1.3 5.6 20.75
v 1.3 3 20.75
vn 0 0 1
f 271//91 272//91 273//91
v 19.214909002 7.2 20.75
v 1.3 7.2 20.75
v 1.3 5.6 20.75
vn 0 0 1
f 274//92 275//92 276//92
v -1.3 -0.25 20.75
v 1.3 -0.25 20.75
v 1.3 3 20.75
vn 0 0 1
f 277//93 278//93 279//93
v -1.3 -0.25 20.75
v 1.3 3 20.75
v -1.3 3 20.75
vn 0 0 1
f 280//94 281//94 282//94
v -1.3 5.6 20.75
v 1.3 5.6 20.75
v 1.3 7.2 20.75
vn 0 0 1
f 283//95 284//95 285//95
v -1.3 5.6 20.75
v 1.3 7.2 20.75
v -1.3 7.2 20.75
vn 0 0 1
f 286//96 287//96 288//96
v -18.744727386 7.2 20.5
v -19.214909002 7.2 20.75
v -1.3 7.2 20.75
vn 0 1 0
f 289//97 290//97 291//97
v -18.744727386 7.2 20.5
v -1.3 7.2 20.75
v -1.3 7.2 20.5
vn 0 1 0
f 292//98 293//98 294//98
v -18.744727386 -0.25 20.5
v -1.3 -0.25 20.5
v -1.3 -0.25 20.75
vn 0 -1 0
f 295//99 296//99 297//99
v -18.744727386 -0.25 20.5
v -1.3 -0.25 20.75
v -19.214909002 -0.25 20.75
vn 0 -1 0
f 298//100 299//100 300//100
v -1.3 7.2 20.5
v -1.3 7.2 20.75
v 1.3 7.2 20.75
vn 0 1 0
f 301//101 302//101 303//101
v -1.3 7.2 20.5
v 1.3 7.2 20.75
v 1.3 7.2 20.5
vn 0 1 0
f 304//102 305//102 306//102
v -1.3 -0.25 20.5
v 1.3 -0.25 20.5
v 1.3 -0.25 20.75
vn 0 -1 0
f 307//103 308//103 309//103
v -1.3 -0.25 20.5
v 1.3 -0.25 20.75
v -1.3 -0.25 20.75
vn 0 -1 0
f 310//104 311//104 312//104
v 1.3 7.2 20.5
v 1.3 7.2 20.75
v 19.214909002 7.2 20.75
vn 0 1 0
f 313//105 314//105 315//105
v 1.3 7.2 20.5
v 19.214909002 7.2 20.75
v 18.744727386 7.2 20.5
vn 0 1 0
f 316//106 317//106 318//106
v 1.3 -0.25 20.5
v 18.744727386 -0.25 20.5
v 19.214909002 -0.25 20.75
vn 0 -1 0
f 319//107 320//107 321//107
v 1.3 -0.25 20.5
v 19.214909002 -0.25 20.75
v 1.3 -0.25 20.75
vn 0 -1 0
f 322//108 323//108 324//108
v -1.3 3 20.5
v -1.3 3 20.75
v 1.3 3 20.75
vn 0 1 0
f 325//109 326//109 327//109
v -1.3 3 20.5
v 1.3 3 20.75
v 1.3 3 20.5
vn 0 1 0
f 328//110 329//110 330//110
v -1.3 5.6 20.5
v 1.3 5.6 20.5
v 1.3 5.6 20.75
vn 0 -1 0
f 331//111 332//111 333//111
v -1.3 5.6 20.5
v 1.3 5.6 20.75
v -1.3 5.6 20.75
vn 0 -1 0
f 334//112 335//112 336//112
v -1.3 3 20.5
v -1.3 5.6 20.5
v -1.3 5.6 20.75
vn 1 0 0
f 337//113 338//113 339//113
v -1.3 3 20.5
v -1.3 5.6 20.75
v -1.3 3 20.75
vn 1 0 0
f 340//114 341//114 342//114
v 1.3 3 20.5
v 1.3 3 20.75
v 1.3 5.6 20.75
vn -1 0 0
f 343//115 344//115 345//115
v 1.3 3 20.5
v 1.3 5.6 20.75
v 1.3 5.6 20.5
vn -1 0 0
f 346//116 347//116 348//116
v -18.744727386 -0.25 20.5
v -13.5752646 -0.25 12.835956246
v -13.5752646 7.2 12.835956246
vn 0.829037573 0 0.559192903
f 349//117 350//117 351//117
v -18.744727386 -0.25 20.5
v -13.5752646 7.2 12.835956246
v -18.744727386 7.2 20.5
vn 0.829037573 0 0.559192903
f 352//118 353//118 354//118
v -13.782523994 -0.25 12.69615802
v -19.214909002 -0.25 20.75
v -19.214909002 7.2 20.75
vn -0.829037573 0 -0.559192903
f 355//119 356//119 357//119
v -13.782523994 -0.25 12.69615802
v -19.214909002 7.2 20.75
v -13.782523994 7.2 12.69615802
vn -0.829037573 0 -0.559192903
f 358//120 359//120 360//120
v -18.744727386 7.2 20.5
v -13.5752646 7.2 12.835956246
v -13.782523994 7.2 12.69615802
vn 0 1 0
f 361//121 362//121 363//121
v -18.744727386 7.2 20.5
v -13.782523994 7.2 12.69615802
v -19.214909002 7.2 20.75
vn 0 1 0
f 364//122 365//122 366//122
v -18.744727386 -0.25 20.5
v -19.214909002 -0.25 20.75
v -13.782523994 -0.25 12.69615802
vn 0 -1 0
f 367//123 368//123 369//123
v -18.744727386 -0.25 20.5
v -13.782523994 -0.25 12.69615802
v -13.5752646 -0.25 12.835956246
vn 0 -1 0
f 370//124 371//124 372//124
v -13.5752646 -0.25 12.835956246
v -12.428919148 -0.25 11.136429223
v -12.428919148 7.2 11.136429223
vn 0.829037573 0 0.559192903
f 373//125 374//125 375//125
v -13.5752646 -0.25 12.835956246
v -12.428919148 7.2 11.136429223
v -13.5752646 7.2 12.835956246
vn 0.829037573 0 0.559192903
f 376//126 377//126 378//126
v -12.636178541 -0.25 10.996630997
v -13.782523994 -0.25 12.69615802
v -13.782523994 7.2 12.69615802
vn -0.829037573 0 -0.559192903
f 379//127 380//127 381//127
v -12.636178541 -0.25 10.996630997
v -13.782523994 7.2 12.69615802
v -12.636178541 7.2 10.996630997
vn -0.829037573 0 -0.559192903
f 382//128 383//128 384//128
v -13.5752646 7.2 12.835956246
v -12.428919148 7.2 11.136429223
v -12.636178541 7.2 10.996630997
vn 0 1 0
f 385//129 386//129 387//129
v -13.5752646 7.2 12.835956246
v -12.636178541 7.2 10.996630997
v -13.782523994 7.2 12.69615802
vn 0 1 0
f 388//130 389//130 390//130
v -13.5752646 -0.25 12.835956246
v -13.782523994 -0.25 12.69615802
v -12.636178541 -0.25 10.996630997
vn 0 -1 0
f 391//131 392//131 393//131
v -13.5752646 -0.25 12.835956246
v -12.636178541 -0.25 10.996630997
v -12.428919148 -0.25 11.136429223
vn 0 -1 0
f 394//132 395//132 396//132
v -12.428919148 -0.25 11.136429223
v -11.282573696 -0.25 9.436902199
v -11.282573696 7.2 9.436902199
vn 0.829037573 0 0.559192903
f 397//133 398//133 399//133
v -12.428919148 -0.25 11.136429223
v -11.282573696 7.2 9.436902199
v -12.428919148 7.2 11.136429223
vn 0.829037573 0 0.559192903
f 400//134 401//134 402//134
v -11.489833089 -0.25 9.297103973
v -12.636178541 -0.25 10.996630997
v -12.636178541 7.2 10.996630997
vn -0.829037573 0 -0.559192903
f 403//135 404//135 405//135
v -11.489833089 -0.25 9.297103973
v -12.636178541 7.2 10.996630997
v -11.489833089 7.2 9.297103973
vn -0.829037573 0 -0.559192903
f 406//136 407//136 408//136
v -12.428919148 7.2 11.136429223
v -11.282573696 7.2 9.436902199
v -11.489833089 7.2 9.297103973
vn 0 1 0
f 409//137 410//137 411//137
v -12.428919148 7.2 11.136429223
v -11.489833089 7.2 9.297103973
v -12.636178541 7.2 10.996630997
vn 0 1 0
f 412//138 413//138 414//138
v -12.428919148 -0.25 11.136429223
v -12.636178541 -0.25 10.996630997
v -11.489833089 -0.25 9.297103973
vn 0 -1 0
f 415//139 416//139 417//139
v -12.428919148 -0.25 11.136429223
v -11.489833089 -0.25 9.297103973
v -11.282573696 -0.25 9.436902199
vn 0 -1 0
f 418//140 419//140 420//140
v -11.282573696 -0.25 9.436902199
v -10.136228244 -0.25 7.737375175
v -10.136228244 7.2 7.737375175
vn 0.829037573 0 0.559192903
f 421//141 422//141 423//141
v -11.282573696 -0.25 9.436902199
v -10.136228244 7.2 7.737375175
v -11.282573696 7.2 9.436902199
vn 0.829037573 0 0.559192903
f 424//142 425//142 426//142
v -10.343487637 -0.25 7.597576949
v -11.489833089 -0.25 9.297103973
v -11.489833089 7.2 9.297103973
vn -0.829037573 0 -0.559192903
f 427//143 428//143 429//143
v -10.343487637 -0.25 7.597576949
v -11.489833089 7.2 9.297103973
v -10.343487637 7.2 7.597576949
vn -0.829037573 0 -0.559192903
f 430//144 431//144 432//144
v -11.282573696 7.2 9.436902199
v -10.136228244 7.2 7.737375175
v -10.343487637 7.2 7.597576949
vn 0 1 0
f 433//145 434//145 435//145
v -11.282573696 7.2 9.436902199
v -10.343487637 7.2 7.597576949
v -11.489833089 7.2 9.297103973
vn 0 1 0
f 436//146 437//146 438//146
v -11.282573696 -0.25 9.436902199
v -11.489833089 -0.25 9.297103973
v -10.343487637 -0.25 7.597576949
vn 0 -1 0
f 439//147 440//147 441//147
v -11.282573696 -0.25 9.436902199
v -10.343487637 -0.25 7.597576949
v -10.136228244 -0.25 7.737375175
vn 0 -1 0
f 442//148 443//148 444//148
v -10.136228244 -0.25 7.737375175
v -8.989882792 -0.25 6.037848151
v -8.989882792 7.2 6.037848151
vn 0.829037573 0 0.559192903
f 445//149 446//149 447//149
v -10.136228244 -0.25 7.737375175
v -8.989882792 7.2 6.037848151
v -10.136228244 7.2 7.737375175
vn 0.829037573 0 0.559192903
f 448//150 449//150 450//150
v -9.197142185 -0.25 5.898049925
v -10.343487637 -0.25 7.597576949
v -10.343487637 7.2 7.597576949
vn -0.829037573 0 -0.559192903
f 451//151 452//151 453//151
v -9.197142185 -0.25 5.898049925
v -10.343487637 7.2 7.597576949
v -9.197142185 7.2 5.898049925
vn -0.829037573 0 -0.559192903
f 454//152 455//152 456//152
v -10.136228244 7.2 7.737375175
v -8.989882792 7.2 6.037848151
v -9.197142185 7.2 5.898049925
vn 0 1 0
f 457//153 458//153 459//153
v -10.136228244 7.2 7.737375175
v -9.197142185 7.2 5.898049925
v -10.343487637 7.2 7.597576949
vn 0 1 0
f 460//154 461//154 462//154
v -10.136228244 -0.25 7.737375175
v -10.343487637 -0.25 7.597576949
v -9.197142185 -0.25 5.898049925
vn 0 -1 0
f 463//155 464//155 465//155
v -10.136228244 -0.25 7.737375175
v -9.197142185 -0.25 5.898049925
v -8.989882792 -0.25 6.037848151
vn 0 -1 0
f 466//156 467//156 468//156
v -8.989882792 -0.25 6.037848151
v -7.84353734 -0.25 4.338321128
v -7.84353734 7.2 4.338321128
vn 0.829037573 0 0.559192903
f 469//157 470//157 471//157
v -8.989882792 -0.25 6.037848151
v -7.84353734 7.2 4.338321128
v -8.989882792 7.2 6.037848151
vn 0.829037573 0 0.559192903
f 472//158 473//158 474//158
v -8.050796733 -0.25 4.198522902
v -9.197142185 -0.25 5.898049925
v -9.197142185 7.2 5.898049925
vn -0.829037573 0 -0.559192903
f 475//159 476//159 477//159
v -8.050796733 -0.25 4.198522902
v -9.197142185 7.2 5.898049925
v -8.050796733 7.2 4.198522902
vn -0.829037573 0 -0.559192903
f 478//160 479//160 480//160
v -8.989882792 7.2 6.037848151
v -7.84353734 7.2 4.338321128
v -8.050796733 7.2 4.198522902
vn 0 1 0
f 481//161 482//161 483//161
v -8.989882792 7.2 6.037848151
v -8.050796733 7.2 4.198522902
v -9.197142185 7.2 5.898049925
vn 0 1 0
f 484//162 485//162 486//162
v -8.989882792 -0.25 6.037848151
v -9.197142185 -0.25 5.898049925
v -8.050796733 -0.25 4.198522902
vn 0 -1 0
f 487//163 488//163 489//163
v -8.989882792 -0.25 6.037848151
v -8.050796733 -0.25 4.198522902
v -7.84353734 -0.25 4.338321128
vn 0 -1 0
f 490//164 491//164 492//164
v -7.84353734 -0.25 4.338321128
v -6.697191888 -0.25 2.638794104
v -6.697191888 7.2 2.638794104
vn 0.829037573 0 0.559192903
f 493//165 494//165 495//165
v -7.84353734 -0.25 4.338321128
v -6.697191888 7.2 2.638794104
v -7.84353734 7.2 4.338321128
vn 0.829037573 0 0.559192903
f 496//166 497//166 498//166
v -6.899926466 -0.25 2.492287564
v -8.050796733 -0.25 4.198522902
v -8.050796733 7.2 4.198522902
vn -0.829037573 0 -0.559192903
f 499//167 500//167 501//167
v -6.899926466 -0.25 2.492287564
v -8.050796733 7.2 4.198522902
v -6.899926466 7.2 2.492287564
vn -0.829037573 0 -0.559192903
f 502//168 503//168 504//168
v -7.84353734 7.2 4.338321128
v -6.697191888 7.2 2.638794104
v -6.899926466 7.2 2.492287564
vn 0 1 0
f 505//169 506//169 507//169
v -7.84353734 7.2 4.338321128
v -6.899926466 7.2 2.492287564
v -8.050796733 7.2 4.198522902
vn 0 1 0
f 508//170 509//170 510//170
v -7.84353734 -0.25 4.338321128
v -8.050796733 -0.25 4.198522902
v -6.899926466 -0.25 2.492287564
vn 0 -1 0
f 511//171 512//171 513//171
v -7.84353734 -0.25 4.338321128
v -6.899926466 -0.25 2.492287564
v -6.697191888 -0.25 2.638794104
vn 0 -1 0
f 514//172 515//172 516//172
v -6.697191888 -0.25 2.638794104
v -4 -0.25 -0.85
v -4 7.2 -0.85
vn 0.791141741 0 0.611632852
f 517//173 518//173 519//173
v -6.697191888 -0.25 2.638794104
v -4 7.2 -0.85
v -6.697191888 7.2 2.638794104
vn 0.791141741 0 0.611632852
f 520//174 521//174 522//174
v -4.122723631 -0.25 -1.1
v -6.899926466 -0.25 2.492287564
v -6.899926466 7.2 2.492287564
vn -0.791141741 0 -0.611632852
f 523//175 524//175 525//175
v -4.122723631 -0.25 -1.1
v -6.899926466 7.2 2.492287564
v -4.122723631 7.2 -1.1
vn -0.791141741 0 -0.611632852
f 526//176 527//176 528//176
v -6.697191888 7.2 2.638794104
v -4 7.2 -0.85
v -4.122723631 7.2 -1.1
vn 0 1 0
f 529//177 530//177 531//177
v -6.697191888 7.2 2.638794104
v -4.122723631 7.2 -1.1
v -6.899926466 7.2 2.492287564
vn 0 1 0
f 532//178 533//178 534//178
v -6.697191888 -0.25 2.638794104
v -6.899926466 -0.25 2.492287564
v -4.122723631 -0.25 -1.1
vn 0 -1 0
f 535//179 536//179 537//179
v -6.697191888 -0.25 2.638794104
v -4.122723631 -0.25 -1.1
v -4 -0.25 -0.85
vn 0 -1 0
f 538//180 539//180 540//180
