# Deterministic B202 final layout
o Ceiling
g Ceiling
usemtl Ceiling
v -5.103825 7.2 2.812478
v -4 7.2 -0.85
v 4 7.2 -0.85
vn 0 -1 0
f 1//1 2//1 3//1
v -5.103825 7.2 2.812478
v 4 7.2 -0.85
v 5.103825 7.2 2.812478
vn 0 -1 0
f 4//2 5//2 6//2
v -5.103825 7.2 2.812478
v 5.103825 7.2 2.812478
v 6.717226 7.2 5.033134
vn 0 -1 0
f 7//3 8//3 9//3
v -5.103825 7.2 2.812478
v 6.717226 7.2 5.033134
v 8.330627 7.2 7.253789
vn 0 -1 0
f 10//4 11//4 12//4
v -5.103825 7.2 2.812478
v 8.330627 7.2 7.253789
v 9.944027 7.2 9.474445
vn 0 -1 0
f 13//5 14//5 15//5
v -5.103825 7.2 2.812478
v 9.944027 7.2 9.474445
v 11.557428 7.2 11.6951
vn 0 -1 0
f 16//6 17//6 18//6
v -5.103825 7.2 2.812478
v 11.557428 7.2 11.6951
v 13.170829 7.2 13.915756
vn 0 -1 0
f 19//7 20//7 21//7
v -5.103825 7.2 2.812478
v 13.170829 7.2 13.915756
v 14.784229 7.2 16.136411
vn 0 -1 0
f 22//8 23//8 24//8
v -5.103825 7.2 2.812478
v 14.784229 7.2 16.136411
v 17.954561995 7.2 20.5
vn 0 -1 0
f 25//9 26//9 27//9
v 17.954561995 7.2 20.5
v -17.954561995 7.2 20.5
v -14.784229 7.2 16.136411
vn 0 -1 0
f 28//10 29//10 30//10
v 17.954561995 7.2 20.5
v -14.784229 7.2 16.136411
v -13.170829 7.2 13.915756
vn 0 -1 0
f 31//11 32//11 33//11
v 17.954561995 7.2 20.5
v -13.170829 7.2 13.915756
v -11.557428 7.2 11.6951
vn 0 -1 0
f 34//12 35//12 36//12
v 17.954561995 7.2 20.5
v -11.557428 7.2 11.6951
v -9.944027 7.2 9.474445
vn 0 -1 0
f 37//13 38//13 39//13
v -5.103825 7.2 2.812478
v 17.954561995 7.2 20.5
v -9.944027 7.2 9.474445
vn 0 -1 0
f 40//14 41//14 42//14
v -9.944027 7.2 9.474445
v -8.330627 7.2 7.253789
v -6.717226 7.2 5.033134
vn 0 -1 0
f 43//15 44//15 45//15
v -9.944027 7.2 9.474445
v -6.717226 7.2 5.033134
v -5.103825 7.2 2.812478
vn 0 -1 0
f 46//16 47//16 48//16
