# Deterministic B202 final layout
o LowestFloor
g LowestFloor
usemtl LowestFloor
v -5.103825 0 2.812478
v 4 0 -0.85
v -4 0 -0.85
vn 0 1 0
f 1//1 2//1 3//1
v -5.103825 0 2.812478
v 5.103825 0 2.812478
v 4 0 -0.85
vn 0 1 0
f 4//2 5//2 6//2
v -5.103825 0 2.812478
v 4.435107 0 3.168042
v 5.103825 0 2.812478
vn 0 1 0
f 7//3 8//3 9//3
v 4.435107 0 3.168042
v 1.943529 0 3.563863
v 2.940123 0 3.962939
vn 0 1 0
f 10//4 11//4 12//4
v -5.103825 0 2.812478
v 1.943529 0 3.563863
v 4.435107 0 3.168042
vn 0 1 0
f 13//5 14//5 15//5
v -5.103825 0 2.812478
v 0.4 0 3.836029
v 1.943529 0 3.563863
vn 0 1 0
f 16//6 17//6 18//6
v -5.103825 0 2.812478
v -0.4 0 3.836029
v 0.4 0 3.836029
vn 0 1 0
f 19//7 20//7 21//7
v -5.103825 0 2.812478
v -1.943529 0 3.563863
v -0.4 0 3.836029
vn 0 1 0
f 22//8 23//8 24//8
v -5.103825 0 2.812478
v -2.940123 0 3.962939
v -1.943529 0 3.563863
vn 0 1 0
f 25//9 26//9 27//9
v -2.940123 0 3.962939
v -5.103825 0 2.812478
v -4.435107 0 3.168042
vn 0 1 0
f 28//10 29//10 30//10
v -5.9105255 0 3.922806
v -4.435107 0 3.168042
v -5.103825 0 2.812478
vn 0 1 0
f 31//11 32//11 33//11
v -4.435107 0 3.168042
v -5.9105255 0 3.922806
v -5.241807 0 4.27837
vn 0 1 0
f 34//12 35//12 36//12
v -6.048507 0 5.388698
v -2.940123 0 3.962939
v -4.435107 0 3.168042
vn 0 1 0
f 37//13 38//13 39//13
v -2.940123 0 3.962939
v -6.048507 0 5.388698
v -3.878927 0 6.542284
vn 0 1 0
f 40//14 41//14 42//14
v -3.409525 0 5.2526115
v -1.943529 0 3.563863
v -2.940123 0 3.962939
vn 0 1 0
f 43//15 44//15 45//15
v -1.943529 0 3.563863
v -3.409525 0 5.2526115
v -2.3667135 0 4.7265535
vn 0 1 0
f 46//16 47//16 48//16
v -2.789898 0 5.889244
v -0.4 0 3.836029
v -1.943529 0 3.563863
vn 0 1 0
f 49//17 50//17 51//17
v -0.4 0 3.836029
v -2.789898 0 5.889244
v -0.4 0 6.310648
vn 0 1 0
f 52//18 53//18 54//18
v -0.4 0 5.0733385
v 0.4 0 3.836029
v -0.4 0 3.836029
vn 0 1 0
f 55//19 56//19 57//19
v 0.4 0 3.836029
v -0.4 0 5.0733385
v 0.4 0 5.0733385
vn 0 1 0
f 58//20 59//20 60//20
v 0.4 0 6.310648
v 1.943529 0 3.563863
v 0.4 0 3.836029
vn 0 1 0
f 61//21 62//21 63//21
v 1.943529 0 3.563863
v 0.4 0 6.310648
v 2.789898 0 5.889244
vn 0 1 0
f 64//22 65//22 66//22
v 2.3667135 0 4.7265535
v 2.940123 0 3.962939
v 1.943529 0 3.563863
vn 0 1 0
f 67//23 68//23 69//23
v 2.940123 0 3.962939
v 2.3667135 0 4.7265535
v 3.409525 0 5.2526115
vn 0 1 0
f 70//24 71//24 72//24
v 3.878927 0 6.542284
v 4.435107 0 3.168042
v 2.940123 0 3.962939
vn 0 1 0
f 73//25 74//25 75//25
v 4.435107 0 3.168042
v 3.878927 0 6.542284
v 6.048507 0 5.388698
vn 0 1 0
f 76//26 77//26 78//26
v 5.241807 0 4.27837
v 5.103825 0 2.812478
v 4.435107 0 3.168042
vn 0 1 0
f 79//27 80//27 81//27
v 5.103825 0 2.812478
v 5.241807 0 4.27837
v 5.9105255 0 3.922806
vn 0 1 0
f 82//28 83//28 84//28
o Terrace02
g Terrace02
usemtl Terrace02
v -7.5239265 0.5 6.1434615
v -6.048507 0.5 5.388698
v -6.717226 0.5 5.033134
vn 0 1 0
f 85//29 86//29 87//29
v -6.048507 0.5 5.388698
v -7.5239265 0.5 6.1434615
v -6.8552075 0.5 6.4990255
vn 0 1 0
f 88//30 89//30 90//30
v -7.661908 0.5 7.609353
v -3.878927 0.5 6.542284
v -6.048507 0.5 5.388698
vn 0 1 0
f 91//31 92//31 93//31
v -3.878927 0.5 6.542284
v -7.661908 0.5 7.609353
v -4.817732 0.5 9.121628
vn 0 1 0
f 94//32 95//32 96//32
v -4.3483295 0.5 7.831956
v -2.789898 0.5 5.889244
v -3.878927 0.5 6.542284
vn 0 1 0
f 97//33 98//33 99//33
v -2.789898 0.5 5.889244
v -4.3483295 0.5 7.831956
v -3.213083 0.5 7.051935
vn 0 1 0
f 100//34 101//34 102//34
v -3.636268 0.5 8.214626
v -0.4 0.5 6.310648
v -2.789898 0.5 5.889244
vn 0 1 0
f 103//35 104//35 105//35
v -0.4 0.5 6.310648
v -3.636268 0.5 8.214626
v -0.4 0.5 8.785267
vn 0 1 0
f 106//36 107//36 108//36
v -0.4 0.5 7.5479575
v 0.4 0.5 6.310648
v -0.4 0.5 6.310648
vn 0 1 0
f 109//37 110//37 111//37
v 0.4 0.5 6.310648
v -0.4 0.5 7.5479575
v 0.4 0.5 7.5479575
vn 0 1 0
f 112//38 113//38 114//38
v 0.4 0.5 8.785267
v 2.789898 0.5 5.889244
v 0.4 0.5 6.310648
vn 0 1 0
f 115//39 116//39 117//39
v 2.789898 0.5 5.889244
v 0.4 0.5 8.785267
v 3.636268 0.5 8.214626
vn 0 1 0
f 118//40 119//40 120//40
v 3.213083 0.5 7.051935
v 3.878927 0.5 6.542284
v 2.789898 0.5 5.889244
vn 0 1 0
f 121//41 122//41 123//41
v 3.878927 0.5 6.542284
v 3.213083 0.5 7.051935
v 4.3483295 0.5 7.831956
vn 0 1 0
f 124//42 125//42 126//42
v 4.817732 0.5 9.121628
v 6.048507 0.5 5.388698
v 3.878927 0.5 6.542284
vn 0 1 0
f 127//43 128//43 129//43
v 6.048507 0.5 5.388698
v 4.817732 0.5 9.121628
v 7.661908 0.5 7.609353
vn 0 1 0
f 130//44 131//44 132//44
v 6.8552075 0.5 6.4990255
v 6.717226 0.5 5.033134
v 6.048507 0.5 5.388698
vn 0 1 0
f 133//45 134//45 135//45
v 6.717226 0.5 5.033134
v 6.8552075 0.5 6.4990255
v 7.5239265 0.5 6.1434615
vn 0 1 0
f 136//46 137//46 138//46
o Terrace03
g Terrace03
usemtl Terrace03
v -9.137327 1 8.364117
v -7.661908 1 7.609353
v -8.330627 1 7.253789
vn 0 1 0
f 139//47 140//47 141//47
v -7.661908 1 7.609353
v -9.137327 1 8.364117
v -8.4686085 1 8.719681
vn 0 1 0
f 142//48 143//48 144//48
v -9.275309 1 9.830009
v -4.817732 1 9.121628
v -7.661908 1 7.609353
vn 0 1 0
f 145//49 146//49 147//49
v -4.817732 1 9.121628
v -9.275309 1 9.830009
v -5.756537 1 11.700973
vn 0 1 0
f 148//50 149//50 150//50
v -5.2871345 1 10.4113005
v -3.636268 1 8.214626
v -4.817732 1 9.121628
vn 0 1 0
f 151//51 152//51 153//51
v -3.636268 1 8.214626
v -5.2871345 1 10.4113005
v -4.0594525 1 9.3773165
vn 0 1 0
f 154//52 155//52 156//52
v -4.482637 1 10.540007
v -0.4 1 8.785267
v -3.636268 1 8.214626
vn 0 1 0
f 157//53 158//53 159//53
v -0.4 1 8.785267
v -4.482637 1 10.540007
v -0.4 1 11.259886
vn 0 1 0
f 160//54 161//54 162//54
v -0.4 1 10.0225765
v 0.4 1 8.785267
v -0.4 1 8.785267
vn 0 1 0
f 163//55 164//55 165//55
v 0.4 1 8.785267
v -0.4 1 10.0225765
v 0.4 1 10.0225765
vn 0 1 0
f 166//56 167//56 168//56
v 0.4 1 11.259886
v 3.636268 1 8.214626
v 0.4 1 8.785267
vn 0 1 0
f 169//57 170//57 171//57
v 3.636268 1 8.214626
v 0.4 1 11.259886
v 4.482637 1 10.540007
vn 0 1 0
f 172//58 173//58 174//58
v 4.0594525 1 9.3773165
v 4.817732 1 9.121628
v 3.636268 1 8.214626
vn 0 1 0
f 175//59 176//59 177//59
v 4.817732 1 9.121628
v 4.0594525 1 9.3773165
v 5.2871345 1 10.4113005
vn 0 1 0
f 178//60 179//60 180//60
v 5.756537 1 11.700973
v 7.661908 1 7.609353
v 4.817732 1 9.121628
vn 0 1 0
f 181//61 182//61 183//61
v 7.661908 1 7.609353
v 5.756537 1 11.700973
v 9.275309 1 9.830009
vn 0 1 0
f 184//62 185//62 186//62
v 8.4686085 1 8.719681
v 8.330627 1 7.253789
v 7.661908 1 7.609353
vn 0 1 0
f 187//63 188//63 189//63
v 8.330627 1 7.253789
v 8.4686085 1 8.719681
v 9.137327 1 8.364117
vn 0 1 0
f 190//64 191//64 192//64
o Terrace04
g Terrace04
usemtl Terrace04
v -10.7507275 1.5 10.5847725
v -9.275309 1.5 9.830009
v -9.944027 1.5 9.474445
vn 0 1 0
f 193//65 194//65 195//65
v -9.275309 1.5 9.830009
v -10.7507275 1.5 10.5847725
v -10.082009 1.5 10.9403365
vn 0 1 0
f 196//66 197//66 198//66
v -10.888709 1.5 12.050664
v -5.756537 1.5 11.700973
v -9.275309 1.5 9.830009
vn 0 1 0
f 199//67 200//67 201//67
v -5.756537 1.5 11.700973
v -10.888709 1.5 12.050664
v -6.695341 1.5 14.280318
vn 0 1 0
f 202//68 203//68 204//68
v -6.225939 1.5 12.9906455
v -4.482637 1.5 10.540007
v -5.756537 1.5 11.700973
vn 0 1 0
f 205//69 206//69 207//69
v -4.482637 1.5 10.540007
v -6.225939 1.5 12.9906455
v -4.905822 1.5 11.7026975
vn 0 1 0
f 208//70 209//70 210//70
v -5.329007 1.5 12.865388
v -0.4 1.5 11.259886
v -4.482637 1.5 10.540007
vn 0 1 0
f 211//71 212//71 213//71
v -0.4 1.5 11.259886
v -5.329007 1.5 12.865388
v -0.4 1.5 13.734505
vn 0 1 0
f 214//72 215//72 216//72
v -0.4 1.5 12.4971955
v 0.4 1.5 11.259886
v -0.4 1.5 11.259886
vn 0 1 0
f 217//73 218//73 219//73
v 0.4 1.5 11.259886
v -0.4 1.5 12.4971955
v 0.4 1.5 12.4971955
vn 0 1 0
f 220//74 221//74 222//74
v 0.4 1.5 13.734505
v 4.482637 1.5 10.540007
v 0.4 1.5 11.259886
vn 0 1 0
f 223//75 224//75 225//75
v 4.482637 1.5 10.540007
v 0.4 1.5 13.734505
v 5.329007 1.5 12.865388
vn 0 1 0
f 226//76 227//76 228//76
v 4.905822 1.5 11.7026975
v 5.756537 1.5 11.700973
v 4.482637 1.5 10.540007
vn 0 1 0
f 229//77 230//77 231//77
v 5.756537 1.5 11.700973
v 4.905822 1.5 11.7026975
v 6.225939 1.5 12.9906455
vn 0 1 0
f 232//78 233//78 234//78
v 6.695341 1.5 14.280318
v 9.275309 1.5 9.830009
v 5.756537 1.5 11.700973
vn 0 1 0
f 235//79 236//79 237//79
v 9.275309 1.5 9.830009
v 6.695341 1.5 14.280318
v 10.888709 1.5 12.050664
vn 0 1 0
f 238//80 239//80 240//80
v 10.082009 1.5 10.9403365
v 9.944027 1.5 9.474445
v 9.275309 1.5 9.830009
vn 0 1 0
f 241//81 242//81 243//81
v 9.944027 1.5 9.474445
v 10.082009 1.5 10.9403365
v 10.7507275 1.5 10.5847725
vn 0 1 0
f 244//82 245//82 246//82
o Terrace05
g Terrace05
usemtl Terrace05
v -12.3641285 2 12.805428
v -10.888709 2 12.050664
v -11.557428 2 11.6951
vn 0 1 0
f 247//83 248//83 249//83
v -10.888709 2 12.050664
v -12.3641285 2 12.805428
v -11.6954095 2 13.160992
vn 0 1 0
f 250//84 251//84 252//84
v -12.50211 2 14.27132
v -6.695341 2 14.280318
v -10.888709 2 12.050664
vn 0 1 0
f 253//85 254//85 255//85
v -6.695341 2 14.280318
v -12.50211 2 14.27132
v -7.634146 2 16.859662
vn 0 1 0
f 256//86 257//86 258//86
v -7.1647435 2 15.56999
v -5.329007 2 12.865388
v -6.695341 2 14.280318
vn 0 1 0
f 259//87 260//87 261//87
v -5.329007 2 12.865388
v -7.1647435 2 15.56999
v -5.7521915 2 14.0280785
vn 0 1 0
f 262//88 263//88 264//88
v -6.175376 2 15.190769
v -0.4 2 13.734505
v -5.329007 2 12.865388
vn 0 1 0
f 265//89 266//89 267//89
v -0.4 2 13.734505
v -6.175376 2 15.190769
v -0.4 2 16.209124
vn 0 1 0
f 268//90 269//90 270//90
v -0.4 2 14.9718145
v 0.4 2 13.734505
v -0.4 2 13.734505
vn 0 1 0
f 271//91 272//91 273//91
v 0.4 2 13.734505
v -0.4 2 14.9718145
v 0.4 2 14.9718145
vn 0 1 0
f 274//92 275//92 276//92
v 0.4 2 16.209124
v 5.329007 2 12.865388
v 0.4 2 13.734505
vn 0 1 0
f 277//93 278//93 279//93
v 5.329007 2 12.865388
v 0.4 2 16.209124
v 6.175376 2 15.190769
vn 0 1 0
f 280//94 281//94 282//94
v 5.7521915 2 14.0280785
v 6.695341 2 14.280318
v 5.329007 2 12.865388
vn 0 1 0
f 283//95 284//95 285//95
v 6.695341 2 14.280318
v 5.7521915 2 14.0280785
v 7.1647435 2 15.56999
vn 0 1 0
f 286//96 287//96 288//96
v 7.634146 2 16.859662
v 10.888709 2 12.050664
v 6.695341 2 14.280318
vn 0 1 0
f 289//97 290//97 291//97
v 10.888709 2 12.050664
v 7.634146 2 16.859662
v 12.50211 2 14.27132
vn 0 1 0
f 292//98 293//98 294//98
v 11.6954095 2 13.160992
v 11.557428 2 11.6951
v 10.888709 2 12.050664
vn 0 1 0
f 295//99 296//99 297//99
v 11.557428 2 11.6951
v 11.6954095 2 13.160992
v 12.3641285 2 12.805428
vn 0 1 0
f 298//100 299//100 300//100
o Terrace06
g Terrace06
usemtl Terrace06
v -13.977529 2.5 15.0260835
v -12.50211 2.5 14.27132
v -13.170829 2.5 13.915756
vn 0 1 0
f 301//101 302//101 303//101
v -12.50211 2.5 14.27132
v -13.977529 2.5 15.0260835
v -13.3088105 2.5 15.3816475
vn 0 1 0
f 304//102 305//102 306//102
v -14.115511 2.5 16.491975
v -7.634146 2.5 16.859662
v -12.50211 2.5 14.27132
vn 0 1 0
f 307//103 308//103 309//103
v -7.634146 2.5 16.859662
v -14.115511 2.5 16.491975
v -8.57295 2.5 19.439007
vn 0 1 0
f 310//104 311//104 312//104
v -8.103548 2.5 18.1493345
v -6.175376 2.5 15.190769
v -7.634146 2.5 16.859662
vn 0 1 0
f 313//105 314//105 315//105
v -6.175376 2.5 15.190769
v -8.103548 2.5 18.1493345
v -6.598561 2.5 16.3534595
vn 0 1 0
f 316//106 317//106 318//106
v -7.021746 2.5 17.51615
v -0.4 2.5 16.209124
v -6.175376 2.5 15.190769
vn 0 1 0
f 319//107 320//107 321//107
v -0.4 2.5 16.209124
v -7.021746 2.5 17.51615
v -0.4 2.5 18.683742
vn 0 1 0
f 322//108 323//108 324//108
v -0.4 2.5 17.446433
v 0.4 2.5 16.209124
v -0.4 2.5 16.209124
vn 0 1 0
f 325//109 326//109 327//109
v 0.4 2.5 16.209124
v -0.4 2.5 17.446433
v 0.4 2.5 17.446433
vn 0 1 0
f 328//110 329//110 330//110
v 0.4 2.5 18.683742
v 6.175376 2.5 15.190769
v 0.4 2.5 16.209124
vn 0 1 0
f 331//111 332//111 333//111
v 6.175376 2.5 15.190769
v 0.4 2.5 18.683742
v 7.021746 2.5 17.51615
vn 0 1 0
f 334//112 335//112 336//112
v 6.598561 2.5 16.3534595
v 7.634146 2.5 16.859662
v 6.175376 2.5 15.190769
vn 0 1 0
f 337//113 338//113 339//113
v 7.634146 2.5 16.859662
v 6.598561 2.5 16.3534595
v 8.103548 2.5 18.1493345
vn 0 1 0
f 340//114 341//114 342//114
v 8.57295 2.5 19.439007
v 12.50211 2.5 14.27132
v 7.634146 2.5 16.859662
vn 0 1 0
f 343//115 344//115 345//115
v 12.50211 2.5 14.27132
v 8.57295 2.5 19.439007
v 14.115511 2.5 16.491975
vn 0 1 0
f 346//116 347//116 348//116
v 13.3088105 2.5 15.3816475
v 13.170829 2.5 13.915756
v 12.50211 2.5 14.27132
vn 0 1 0
f 349//117 350//117 351//117
v 13.170829 2.5 13.915756
v 13.3088105 2.5 15.3816475
v 13.977529 2.5 15.0260835
vn 0 1 0
f 352//118 353//118 354//118
o RearLanding
g RearLanding
usemtl RearLanding
v -17.954561995 3 20.5
v -14.115511 3 16.491975
v -14.784229 3 16.136411
vn 0 1 0
f 355//119 356//119 357//119
v -17.954561995 3 20.5
v -8.57295 3 19.439007
v -14.115511 3 16.491975
vn 0 1 0
f 358//120 359//120 360//120
v -8.57295 3 19.439007
v -0.4 3 18.683742
v -7.021746 3 17.51615
vn 0 1 0
f 361//121 362//121 363//121
v -17.954561995 3 20.5
v -0.4 3 18.683742
v -8.57295 3 19.439007
vn 0 1 0
f 364//122 365//122 366//122
v -17.954561995 3 20.5
v 0.4 3 18.683742
v -0.4 3 18.683742
vn 0 1 0
f 367//123 368//123 369//123
v 0.4 3 18.683742
v 8.57295 3 19.439007
v 7.021746 3 17.51615
vn 0 1 0
f 370//124 371//124 372//124
v -17.954561995 3 20.5
v 8.57295 3 19.439007
v 0.4 3 18.683742
vn 0 1 0
f 373//125 374//125 375//125
v 14.115511 3 16.491975
v 17.954561995 3 20.5
v 14.784229 3 16.136411
vn 0 1 0
f 376//126 377//126 378//126
v 8.57295 3 19.439007
v 17.954561995 3 20.5
v 14.115511 3 16.491975
vn 0 1 0
f 379//127 380//127 381//127
v 8.57295 3 19.439007
v -17.954561995 3 20.5
v 17.954561995 3 20.5
vn 0 1 0
f 382//128 383//128 384//128
o Riser01
g Riser01
usemtl Riser01
v -6.048507 0 5.388698
v -6.048507 0.5 5.388698
v -3.878927 0.5 6.542284
vn 0.469471516 0 -0.882947618
f 385//129 386//129 387//129
v -6.048507 0 5.388698
v -3.878927 0.5 6.542284
v -3.878927 0 6.542284
vn 0.469471516 0 -0.882947618
f 388//130 389//130 390//130
v -2.789898 0 5.889244
v -2.789898 0.5 5.889244
v -0.4 0.5 6.310648
vn 0.173648378 0 -0.984807718
f 391//131 392//131 393//131
v -2.789898 0 5.889244
v -0.4 0.5 6.310648
v -0.4 0 6.310648
vn 0.173648378 0 -0.984807718
f 394//132 395//132 396//132
v 0.4 0 6.310648
v 0.4 0.5 6.310648
v 2.789898 0.5 5.889244
vn -0.173648378 0 -0.984807718
f 397//133 398//133 399//133
v 0.4 0 6.310648
v 2.789898 0.5 5.889244
v 2.789898 0 5.889244
vn -0.173648378 0 -0.984807718
f 400//134 401//134 402//134
v 3.878927 0 6.542284
v 3.878927 0.5 6.542284
v 6.048507 0.5 5.388698
vn -0.469471516 0 -0.882947618
f 403//135 404//135 405//135
v 3.878927 0 6.542284
v 6.048507 0.5 5.388698
v 6.048507 0 5.388698
vn -0.469471516 0 -0.882947618
f 406//136 407//136 408//136
o Riser02
g Riser02
usemtl Riser02
v -7.661908 0.5 7.609353
v -7.661908 1 7.609353
v -4.817732 1 9.121628
vn 0.469471513 0 -0.882947619
f 409//137 410//137 411//137
v -7.661908 0.5 7.609353
v -4.817732 1 9.121628
v -4.817732 0.5 9.121628
vn 0.469471513 0 -0.882947619
f 412//138 413//138 414//138
v -3.636268 0.5 8.214626
v -3.636268 1 8.214626
v -0.4 1 8.785267
vn 0.17364807 0 -0.984807772
f 415//139 416//139 417//139
v -3.636268 0.5 8.214626
v -0.4 1 8.785267
v -0.4 0.5 8.785267
vn 0.17364807 0 -0.984807772
f 418//140 419//140 420//140
v 0.4 0.5 8.785267
v 0.4 1 8.785267
v 3.636268 1 8.214626
vn -0.17364807 0 -0.984807772
f 421//141 422//141 423//141
v 0.4 0.5 8.785267
v 3.636268 1 8.214626
v 3.636268 0.5 8.214626
vn -0.17364807 0 -0.984807772
f 424//142 425//142 426//142
v 4.817732 0.5 9.121628
v 4.817732 1 9.121628
v 7.661908 1 7.609353
vn -0.469471513 0 -0.882947619
f 427//143 428//143 429//143
v 4.817732 0.5 9.121628
v 7.661908 1 7.609353
v 7.661908 0.5 7.609353
vn -0.469471513 0 -0.882947619
f 430//144 431//144 432//144
o Riser03
g Riser03
usemtl Riser03
v -9.275309 1 9.830009
v -9.275309 1.5 9.830009
v -5.756537 1.5 11.700973
vn 0.469471512 0 -0.88294762
f 433//145 434//145 435//145
v -9.275309 1 9.830009
v -5.756537 1.5 11.700973
v -5.756537 1 11.700973
vn 0.469471512 0 -0.88294762
f 436//146 437//146 438//146
v -4.482637 1 10.540007
v -4.482637 1.5 10.540007
v -0.4 1.5 11.259886
vn 0.173648165 0 -0.984807755
f 439//147 440//147 441//147
v -4.482637 1 10.540007
v -0.4 1.5 11.259886
v -0.4 1 11.259886
vn 0.173648165 0 -0.984807755
f 442//148 443//148 444//148
v 0.4 1 11.259886
v 0.4 1.5 11.259886
v 4.482637 1.5 10.540007
vn -0.173648165 0 -0.984807755
f 445//149 446//149 447//149
v 0.4 1 11.259886
v 4.482637 1.5 10.540007
v 4.482637 1 10.540007
vn -0.173648165 0 -0.984807755
f 448//150 449//150 450//150
v 5.756537 1 11.700973
v 5.756537 1.5 11.700973
v 9.275309 1.5 9.830009
vn -0.469471512 0 -0.88294762
f 451//151 452//151 453//151
v 5.756537 1 11.700973
v 9.275309 1.5 9.830009
v 9.275309 1 9.830009
vn -0.469471512 0 -0.88294762
f 454//152 455//152 456//152
o Riser04
g Riser04
usemtl Riser04
v -10.888709 1.5 12.050664
v -10.888709 2 12.050664
v -6.695341 2 14.280318
vn 0.469471675 0 -0.882947533
f 457//153 458//153 459//153
v -10.888709 1.5 12.050664
v -6.695341 2 14.280318
v -6.695341 1.5 14.280318
vn 0.469471675 0 -0.882947533
f 460//154 461//154 462//154
v -5.329007 1.5 12.865388
v -5.329007 2 12.865388
v -0.4 2 13.734505
vn 0.173648193 0 -0.98480775
f 463//155 464//155 465//155
v -5.329007 1.5 12.865388
v -0.4 2 13.734505
v -0.4 1.5 13.734505
vn 0.173648193 0 -0.98480775
f 466//156 467//156 468//156
v 0.4 1.5 13.734505
v 0.4 2 13.734505
v 5.329007 2 12.865388
vn -0.173648193 0 -0.98480775
f 469//157 470//157 471//157
v 0.4 1.5 13.734505
v 5.329007 2 12.865388
v 5.329007 1.5 12.865388
vn -0.173648193 0 -0.98480775
f 472//158 473//158 474//158
v 6.695341 1.5 14.280318
v 6.695341 2 14.280318
v 10.888709 2 12.050664
vn -0.469471675 0 -0.882947533
f 475//159 476//159 477//159
v 6.695341 1.5 14.280318
v 10.888709 2 12.050664
v 10.888709 1.5 12.050664
vn -0.469471675 0 -0.882947533
f 478//160 479//160 480//160
o Riser05
g Riser05
usemtl Riser05
v -12.50211 2 14.27132
v -12.50211 2.5 14.27132
v -7.634146 2.5 16.859662
vn 0.46947151 0 -0.882947621
f 481//161 482//161 483//161
v -12.50211 2 14.27132
v -7.634146 2.5 16.859662
v -7.634146 2 16.859662
vn 0.46947151 0 -0.882947621
f 484//162 485//162 486//162
v -6.175376 2 15.190769
v -6.175376 2.5 15.190769
v -0.4 2.5 16.209124
vn 0.173648242 0 -0.984807742
f 487//163 488//163 489//163
v -6.175376 2 15.190769
v -0.4 2.5 16.209124
v -0.4 2 16.209124
vn 0.173648242 0 -0.984807742
f 490//164 491//164 492//164
v 0.4 2 16.209124
v 0.4 2.5 16.209124
v 6.175376 2.5 15.190769
vn -0.173648242 0 -0.984807742
f 493//165 494//165 495//165
v 0.4 2 16.209124
v 6.175376 2.5 15.190769
v 6.175376 2 15.190769
vn -0.173648242 0 -0.984807742
f 496//166 497//166 498//166
v 7.634146 2 16.859662
v 7.634146 2.5 16.859662
v 12.50211 2.5 14.27132
vn -0.46947151 0 -0.882947621
f 499//167 500//167 501//167
v 7.634146 2 16.859662
v 12.50211 2.5 14.27132
v 12.50211 2 14.27132
vn -0.46947151 0 -0.882947621
f 502//168 503//168 504//168
o Riser06
g Riser06
usemtl Riser06
v -14.115511 2.5 16.491975
v -14.115511 3 16.491975
v -8.57295 3 19.439007
vn 0.469471568 0 -0.88294759
f 505//169 506//169 507//169
v -14.115511 2.5 16.491975
v -8.57295 3 19.439007
v -8.57295 2.5 19.439007
vn 0.469471568 0 -0.88294759
f 508//170 509//170 510//170
v -7.021746 2.5 17.51615
v -7.021746 3 17.51615
v -0.4 3 18.683742
vn 0.173648109 0 -0.984807765
f 511//171 512//171 513//171
v -7.021746 2.5 17.51615
v -0.4 3 18.683742
v -0.4 2.5 18.683742
vn 0.173648109 0 -0.984807765
f 514//172 515//172 516//172
v 0.4 2.5 18.683742
v 0.4 3 18.683742
v 7.021746 3 17.51615
vn -0.173648109 0 -0.984807765
f 517//173 518//173 519//173
v 0.4 2.5 18.683742
v 7.021746 3 17.51615
v 7.021746 2.5 17.51615
vn -0.173648109 0 -0.984807765
f 520//174 521//174 522//174
v 8.57295 2.5 19.439007
v 8.57295 3 19.439007
v 14.115511 3 16.491975
vn -0.469471568 0 -0.88294759
f 523//175 524//175 525//175
v 8.57295 2.5 19.439007
v 14.115511 3 16.491975
v 14.115511 2.5 16.491975
vn -0.469471568 0 -0.88294759
f 526//176 527//176 528//176
