# U-PoC B202 faceted hall: walls
o FacetedWalls
g FacetedWalls
usemtl Wall
v -6.713556 7.2 -0.125
v -5.818916 7.2 1.468137
v -5.51908 7.2 1.491491
v -6.286444 7.2 0.125
f 1 2 3 4
v -6.286444 -0.25 0.125
v -5.51908 -0.25 1.491491
v -5.818916 -0.25 1.468137
v -6.713556 -0.25 -0.125
f 5 6 7 8
f 1 2 7 8
f 3 4 5 6
v -7.0716 7.2 3.058638
v -6.833795 7.2 3.16075
f 2 9 10 3
v -6.833795 -0.25 3.16075
v -7.0716 -0.25 3.058638
f 6 11 12 7
f 2 9 12 7
f 10 3 6 11
v -7.456197 7.2 5.710217
v -7.208504 7.2 5.744161
f 9 13 14 10
v -7.208504 -0.25 5.744161
v -7.456197 -0.25 5.710217
f 11 15 16 12
f 9 13 16 12
f 14 10 11 15
v -7.77936 7.2 8.214312
v -7.530993 7.2 8.243032
f 13 17 18 14
v -7.530993 -0.25 8.243032
v -7.77936 -0.25 8.214312
f 15 19 20 16
f 13 17 20 16
f 18 14 15 19
v -8.02834 7.2 10.649169
v -7.779426 7.2 10.672539
f 17 21 22 18
v -7.779426 -0.25 10.672539
v -8.02834 -0.25 10.649169
f 19 23 24 20
f 17 21 24 20
f 22 18 19 23
v -8.232616 7.2 13.037347
v -7.983422 7.2 13.057443
f 21 25 26 22
v -7.983422 -0.25 13.057443
v -8.232616 -0.25 13.037347
f 23 27 28 24
f 21 25 28 24
f 26 22 23 27
v -8.411103 7.2 15.393392
v -8.161785 7.2 15.411846
f 25 29 30 26
v -8.161785 -0.25 15.411846
v -8.411103 -0.25 15.393392
f 27 31 32 28
f 25 29 32 28
f 30 26 27 31
v -8.587563 7.2 17.834833
v -8.323911 7.2 17.654969
f 29 33 34 30
v -8.323911 -0.25 17.654969
v -8.587563 -0.25 17.834833
f 31 35 36 32
f 29 33 36 32
f 34 30 31 35
v -4.115092 7.2 19.224627
v -3.719999 7.2 19.085608
f 33 37 38 34
v -3.719999 -0.25 19.085608
v -4.115092 -0.25 19.224627
f 35 39 40 36
f 33 37 40 36
f 38 34 35 39
v -4.615683 7.2 19.967697
v -4.179486 7.2 19.767663
f 37 41 42 38
v -4.179486 -0.25 19.767663
v -4.615683 -0.25 19.967697
f 39 43 44 40
f 37 41 44 40
f 42 38 39 43
v -1.242816 7.2 20.367594
v -1.146404 7.2 20.127274
f 41 45 46 42
v -1.146404 -0.25 20.127274
v -1.242816 -0.25 20.367594
f 43 47 48 44
f 41 45 48 44
f 46 42 43 47
v -0.432384 7.2 20.463682
v -0.417616 7.2 20.213682
f 45 49 50 46
v -1.146404 5.65 20.127274
v -0.417616 5.65 20.213682
v -0.432384 5.65 20.463682
v -1.242816 5.65 20.367594
f 51 52 53 54
f 45 49 53 54
f 50 46 51 52
v 0.432384 7.2 20.463682
v 0.417616 7.2 20.213682
f 49 55 56 50
v 0.417616 5.65 20.213682
v 0.432384 5.65 20.463682
f 52 57 58 53
f 49 55 58 53
f 56 50 52 57
v 1.242816 7.2 20.367594
v 1.146404 7.2 20.127274
f 55 59 60 56
v 1.146404 5.65 20.127274
v 1.242816 5.65 20.367594
f 57 61 62 58
f 55 59 62 58
f 60 56 57 61
v 4.615683 7.2 19.967697
v 4.179486 7.2 19.767663
f 59 63 64 60
v 1.146404 -0.25 20.127274
v 4.179486 -0.25 19.767663
v 4.615683 -0.25 19.967697
v 1.242816 -0.25 20.367594
f 65 66 67 68
f 59 63 67 68
f 64 60 65 66
v 4.115092 7.2 19.224627
v 3.719999 7.2 19.085608
f 63 69 70 64
v 3.719999 -0.25 19.085608
v 4.115092 -0.25 19.224627
f 66 71 72 67
f 63 69 72 67
f 70 64 66 71
v 8.587563 7.2 17.834833
v 8.323911 7.2 17.654969
f 69 73 74 70
v 8.323911 -0.25 17.654969
v 8.587563 -0.25 17.834833
f 71 75 76 72
f 69 73 76 72
f 74 70 71 75
v 8.411103 7.2 15.393392
v 8.161785 7.2 15.411846
f 73 77 78 74
v 8.161785 -0.25 15.411846
v 8.411103 -0.25 15.393392
f 75 79 80 76
f 73 77 80 76
f 78 74 75 79
v 8.232616 7.2 13.037347
v 7.983422 7.2 13.057443
f 77 81 82 78
v 7.983422 -0.25 13.057443
v 8.232616 -0.25 13.037347
f 79 83 84 80
f 77 81 84 80
f 82 78 79 83
v 8.02834 7.2 10.649169
v 7.779426 7.2 10.672539
f 81 85 86 82
v 7.779426 -0.25 10.672539
v 8.02834 -0.25 10.649169
f 83 87 88 84
f 81 85 88 84
f 86 82 83 87
v 7.77936 7.2 8.214312
v 7.530993 7.2 8.243032
f 85 89 90 86
v 7.530993 -0.25 8.243032
v 7.77936 -0.25 8.214312
f 87 91 92 88
f 85 89 92 88
f 90 86 87 91
v 7.456197 7.2 5.710217
v 7.208504 7.2 5.744161
f 89 93 94 90
v 7.208504 -0.25 5.744161
v 7.456197 -0.25 5.710217
f 91 95 96 92
f 89 93 96 92
f 94 90 91 95
v 7.0716 7.2 3.058638
v 6.833795 7.2 3.16075
f 93 97 98 94
v 6.833795 -0.25 3.16075
v 7.0716 -0.25 3.058638
f 95 99 100 96
f 93 97 100 96
f 98 94 95 99
v 5.818916 7.2 1.468137
v 5.51908 7.2 1.491491
f 97 101 102 98
v 5.51908 -0.25 1.491491
v 5.818916 -0.25 1.468137
f 99 103 104 100
f 97 101 104 100
f 102 98 99 103
v 6.713556 7.2 -0.125
v 6.286444 7.2 0.125
f 101 105 106 102
v 6.286444 -0.25 0.125
v 6.713556 -0.25 -0.125
f 103 107 108 104
f 101 105 108 104
f 106 102 103 107
f 105 1 4 106
f 107 5 8 108
f 105 1 8 108
f 4 106 107 5
f 54 51 47 48
f 61 62 68 65
