# Deterministic B202 final layout
o Treads01
g Treads01
usemtl Treads01
v -7.556950977 0.25 3.913439372
v -6.337697345 0.25 4.117649632
v -7.270364614 0.25 3.488557616
vn 0 1 0
f 1//1 2//1 3//1
v -6.337697345 0.25 4.117649632
v -7.556950977 0.25 3.913439372
v -6.624283708 0.25 4.542531388
vn 0 1 0
f 4//2 5//2 6//2
v -7.84353734 0.5 4.338321128
v -6.624283708 0.5 4.542531388
v -7.556950977 0.5 3.913439372
vn 0 1 0
f 7//3 8//3 9//3
v -6.624283708 0.5 4.542531388
v -7.84353734 0.5 4.338321128
v -6.910870071 0.5 4.967413144
vn 0 1 0
f 10//4 11//4 12//4
v -6.337697345 0 4.117649632
v -7.270364614 0 3.488557616
v -7.270364614 0.25 3.488557616
vn 0.559192903 0 -0.829037573
f 13//5 14//5 15//5
v -6.337697345 0 4.117649632
v -7.270364614 0.25 3.488557616
v -6.337697345 0.25 4.117649632
vn 0.559192903 0 -0.829037573
f 16//6 17//6 18//6
v -6.624283708 0.25 4.542531388
v -7.556950977 0.25 3.913439372
v -7.556950977 0.5 3.913439372
vn 0.559192903 0 -0.829037573
f 19//7 20//7 21//7
v -6.624283708 0.25 4.542531388
v -7.556950977 0.5 3.913439372
v -6.624283708 0.5 4.542531388
vn 0.559192903 0 -0.829037573
f 22//8 23//8 24//8
v -6.624283708 0 4.542531388
v -6.337697345 0 4.117649632
v -6.337697345 0.25 4.117649632
vn 0.829037573 0 0.559192903
f 25//9 26//9 27//9
v -6.624283708 0 4.542531388
v -6.337697345 0.25 4.117649632
v -6.624283708 0.25 4.542531388
vn 0.829037573 0 0.559192903
f 28//10 29//10 30//10
v -6.624283708 0 4.542531388
v -6.624283708 0.25 4.542531388
v -6.910870071 0 4.967413144
vn 0.829037573 0 0.559192903
f 31//11 32//11 33//11
v -6.910870071 0 4.967413144
v -6.624283708 0.25 4.542531388
v -6.910870071 0.5 4.967413144
vn 0.829037573 0 0.559192903
f 34//12 35//12 36//12
v -6.910870071 0.5 4.967413144
v -6.624283708 0.25 4.542531388
v -6.624283708 0.5 4.542531388
vn 0.829037573 0 0.559192903
f 37//13 38//13 39//13
v -4.079671543 0.25 5.839076045
v -2.776755074 0.25 5.767907749
v -3.904386219 0.25 5.357483577
vn 0 1 0
f 40//14 41//14 42//14
v -2.776755074 0.25 5.767907749
v -4.079671543 0.25 5.839076045
v -2.952040398 0.25 6.249500217
vn 0 1 0
f 43//15 44//15 45//15
v -4.254956866 0.5 6.320668513
v -2.952040398 0.5 6.249500217
v -4.079671543 0.5 5.839076045
vn 0 1 0
f 46//16 47//16 48//16
v -2.952040398 0.5 6.249500217
v -4.254956866 0.5 6.320668513
v -3.127325721 0.5 6.731092685
vn 0 1 0
f 49//17 50//17 51//17
v -2.776755074 0 5.767907749
v -3.904386219 0 5.357483577
v -3.904386219 0.25 5.357483577
vn 0.342020143 0 -0.939692621
f 52//18 53//18 54//18
v -2.776755074 0 5.767907749
v -3.904386219 0.25 5.357483577
v -2.776755074 0.25 5.767907749
vn 0.342020143 0 -0.939692621
f 55//19 56//19 57//19
v -2.952040398 0.25 6.249500217
v -4.079671543 0.25 5.839076045
v -4.079671543 0.5 5.839076045
vn 0.342020143 0 -0.939692621
f 58//20 59//20 60//20
v -2.952040398 0.25 6.249500217
v -4.079671543 0.5 5.839076045
v -2.952040398 0.5 6.249500217
vn 0.342020143 0 -0.939692621
f 61//21 62//21 63//21
v -3.904386219 0 5.357483577
v -4.079671543 0 5.839076045
v -4.079671543 0.25 5.839076045
vn -0.939692621 0 -0.342020143
f 64//22 65//22 66//22
v -3.904386219 0 5.357483577
v -4.079671543 0.25 5.839076045
v -3.904386219 0.25 5.357483577
vn -0.939692621 0 -0.342020143
f 67//23 68//23 69//23
v -4.079671543 0 5.839076045
v -4.254956866 0 6.320668513
v -4.079671543 0.25 5.839076045
vn -0.939692621 0 -0.342020143
f 70//24 71//24 72//24
v -4.254956866 0 6.320668513
v -4.254956866 0.5 6.320668513
v -4.079671543 0.25 5.839076045
vn -0.939692621 0 -0.342020143
f 73//25 74//25 75//25
v -4.254956866 0.5 6.320668513
v -4.079671543 0.5 5.839076045
v -4.079671543 0.25 5.839076045
vn -0.939692621 0 -0.342020143
f 76//26 77//26 78//26
v -2.952040398 0 6.249500217
v -2.776755074 0 5.767907749
v -2.776755074 0.25 5.767907749
vn 0.939692621 0 0.342020143
f 79//27 80//27 81//27
v -2.952040398 0 6.249500217
v -2.776755074 0.25 5.767907749
v -2.952040398 0.25 6.249500217
vn 0.939692621 0 0.342020143
f 82//28 83//28 84//28
v -2.952040398 0 6.249500217
v -2.952040398 0.25 6.249500217
v -3.127325721 0 6.731092685
vn 0.939692621 0 0.342020143
f 85//29 86//29 87//29
v -3.127325721 0 6.731092685
v -2.952040398 0.25 6.249500217
v -3.127325721 0.5 6.731092685
vn 0.939692621 0 0.342020143
f 88//30 89//30 90//30
v -3.127325721 0.5 6.731092685
v -2.952040398 0.25 6.249500217
v -2.952040398 0.5 6.249500217
vn 0.939692621 0 0.342020143
f 91//31 92//31 93//31
v -0.6 0.25 6.664228399
v 0.6 0.25 6.151728399
v -0.6 0.25 6.151728399
vn 0 1 0
f 94//32 95//32 96//32
v 0.6 0.25 6.151728399
v -0.6 0.25 6.664228399
v 0.6 0.25 6.664228399
vn 0 1 0
f 97//33 98//33 99//33
v -0.6 0.5 7.176728399
v 0.6 0.5 6.664228399
v -0.6 0.5 6.664228399
vn 0 1 0
f 100//34 101//34 102//34
v 0.6 0.5 6.664228399
v -0.6 0.5 7.176728399
v 0.6 0.5 7.176728399
vn 0 1 0
f 103//35 104//35 105//35
v 0.6 0 6.151728399
v -0.6 0 6.151728399
v -0.6 0.25 6.151728399
vn 0 0 -1
f 106//36 107//36 108//36
v 0.6 0 6.151728399
v -0.6 0.25 6.151728399
v 0.6 0.25 6.151728399
vn 0 0 -1
f 109//37 110//37 111//37
v 0.6 0.25 6.664228399
v -0.6 0.25 6.664228399
v -0.6 0.5 6.664228399
vn 0 0 -1
f 112//38 113//38 114//38
v 0.6 0.25 6.664228399
v -0.6 0.5 6.664228399
v 0.6 0.5 6.664228399
vn 0 0 -1
f 115//39 116//39 117//39
v -0.6 0 6.151728399
v -0.6 0 6.664228399
v -0.6 0.25 6.664228399
vn -1 0 0
f 118//40 119//40 120//40
v -0.6 0 6.151728399
v -0.6 0.25 6.664228399
v -0.6 0.25 6.151728399
vn -1 0 0
f 121//41 122//41 123//41
v -0.6 0 6.664228399
v -0.6 0 7.176728399
v -0.6 0.25 6.664228399
vn -1 0 0
f 124//42 125//42 126//42
v -0.6 0 7.176728399
v -0.6 0.5 7.176728399
v -0.6 0.25 6.664228399
vn -1 0 0
f 127//43 128//43 129//43
v -0.6 0.5 7.176728399
v -0.6 0.5 6.664228399
v -0.6 0.25 6.664228399
vn -1 0 0
f 130//44 131//44 132//44
v 0.6 0 6.664228399
v 0.6 0 6.151728399
v 0.6 0.25 6.151728399
vn 1 0 0
f 133//45 134//45 135//45
v 0.6 0 6.664228399
v 0.6 0.25 6.151728399
v 0.6 0.25 6.664228399
vn 1 0 0
f 136//46 137//46 138//46
v 0.6 0 6.664228399
v 0.6 0.25 6.664228399
v 0.6 0 7.176728399
vn 1 0 0
f 139//47 140//47 141//47
v 0.6 0 7.176728399
v 0.6 0.25 6.664228399
v 0.6 0.5 7.176728399
vn 1 0 0
f 142//48 143//48 144//48
v 0.6 0.5 7.176728399
v 0.6 0.25 6.664228399
v 0.6 0.5 6.664228399
vn 1 0 0
f 145//49 146//49 147//49
v 2.952040398 0.25 6.249500217
v 3.904386219 0.25 5.357483577
v 2.776755074 0.25 5.767907749
vn 0 1 0
f 148//50 149//50 150//50
v 3.904386219 0.25 5.357483577
v 2.952040398 0.25 6.249500217
v 4.079671543 0.25 5.839076045
vn 0 1 0
f 151//51 152//51 153//51
v 3.127325721 0.5 6.731092685
v 4.079671543 0.5 5.839076045
v 2.952040398 0.5 6.249500217
vn 0 1 0
f 154//52 155//52 156//52
v 4.079671543 0.5 5.839076045
v 3.127325721 0.5 6.731092685
v 4.254956866 0.5 6.320668513
vn 0 1 0
f 157//53 158//53 159//53
v 3.904386219 0 5.357483577
v 2.776755074 0 5.767907749
v 2.776755074 0.25 5.767907749
vn -0.342020143 0 -0.939692621
f 160//54 161//54 162//54
v 3.904386219 0 5.357483577
v 2.776755074 0.25 5.767907749
v 3.904386219 0.25 5.357483577
vn -0.342020143 0 -0.939692621
f 163//55 164//55 165//55
v 4.079671543 0.25 5.839076045
v 2.952040398 0.25 6.249500217
v 2.952040398 0.5 6.249500217
vn -0.342020143 0 -0.939692621
f 166//56 167//56 168//56
v 4.079671543 0.25 5.839076045
v 2.952040398 0.5 6.249500217
v 4.079671543 0.5 5.839076045
vn -0.342020143 0 -0.939692621
f 169//57 170//57 171//57
v 2.776755074 0 5.767907749
v 2.952040398 0 6.249500217
v 2.952040398 0.25 6.249500217
vn -0.939692621 0 0.342020143
f 172//58 173//58 174//58
v 2.776755074 0 5.767907749
v 2.952040398 0.25 6.249500217
v 2.776755074 0.25 5.767907749
vn -0.939692621 0 0.342020143
f 175//59 176//59 177//59
v 2.952040398 0 6.249500217
v 3.127325721 0 6.731092685
v 2.952040398 0.25 6.249500217
vn -0.939692621 0 0.342020143
f 178//60 179//60 180//60
v 3.127325721 0 6.731092685
v 3.127325721 0.5 6.731092685
v 2.952040398 0.25 6.249500217
vn -0.939692621 0 0.342020143
f 181//61 182//61 183//61
v 3.127325721 0.5 6.731092685
v 2.952040398 0.5 6.249500217
v 2.952040398 0.25 6.249500217
vn -0.939692621 0 0.342020143
f 184//62 185//62 186//62
v 4.079671543 0 5.839076045
v 3.904386219 0 5.357483577
v 3.904386219 0.25 5.357483577
vn 0.939692621 0 -0.342020143
f 187//63 188//63 189//63
v 4.079671543 0 5.839076045
v 3.904386219 0.25 5.357483577
v 4.079671543 0.25 5.839076045
vn 0.939692621 0 -0.342020143
f 190//64 191//64 192//64
v 4.079671543 0 5.839076045
v 4.079671543 0.25 5.839076045
v 4.254956866 0 6.320668513
vn 0.939692621 0 -0.342020143
f 193//65 194//65 195//65
v 4.254956866 0 6.320668513
v 4.079671543 0.25 5.839076045
v 4.254956866 0.5 6.320668513
vn 0.939692621 0 -0.342020143
f 196//66 197//66 198//66
v 4.254956866 0.5 6.320668513
v 4.079671543 0.25 5.839076045
v 4.079671543 0.5 5.839076045
vn 0.939692621 0 -0.342020143
f 199//67 200//67 201//67
v 6.624283708 0.25 4.542531388
v 7.270364614 0.25 3.488557616
v 6.337697345 0.25 4.117649632
vn 0 1 0
f 202//68 203//68 204//68
v 7.270364614 0.25 3.488557616
v 6.624283708 0.25 4.542531388
v 7.556950977 0.25 3.913439372
vn 0 1 0
f 205//69 206//69 207//69
v 6.910870071 0.5 4.967413144
v 7.556950977 0.5 3.913439372
v 6.624283708 0.5 4.542531388
vn 0 1 0
f 208//70 209//70 210//70
v 7.556950977 0.5 3.913439372
v 6.910870071 0.5 4.967413144
v 7.84353734 0.5 4.338321128
vn 0 1 0
f 211//71 212//71 213//71
v 7.270364614 0 3.488557616
v 6.337697345 0 4.117649632
v 6.337697345 0.25 4.117649632
vn -0.559192903 0 -0.829037573
f 214//72 215//72 216//72
v 7.270364614 0 3.488557616
v 6.337697345 0.25 4.117649632
v 7.270364614 0.25 3.488557616
vn -0.559192903 0 -0.829037573
f 217//73 218//73 219//73
v 7.556950977 0.25 3.913439372
v 6.624283708 0.25 4.542531388
v 6.624283708 0.5 4.542531388
vn -0.559192903 0 -0.829037573
f 220//74 221//74 222//74
v 7.556950977 0.25 3.913439372
v 6.624283708 0.5 4.542531388
v 7.556950977 0.5 3.913439372
vn -0.559192903 0 -0.829037573
f 223//75 224//75 225//75
v 6.337697345 0 4.117649632
v 6.624283708 0 4.542531388
v 6.624283708 0.25 4.542531388
vn -0.829037573 0 0.559192903
f 226//76 227//76 228//76
v 6.337697345 0 4.117649632
v 6.624283708 0.25 4.542531388
v 6.337697345 0.25 4.117649632
vn -0.829037573 0 0.559192903
f 229//77 230//77 231//77
v 6.624283708 0 4.542531388
v 6.910870071 0 4.967413144
v 6.624283708 0.25 4.542531388
vn -0.829037573 0 0.559192903
f 232//78 233//78 234//78
v 6.910870071 0 4.967413144
v 6.910870071 0.5 4.967413144
v 6.624283708 0.25 4.542531388
vn -0.829037573 0 0.559192903
f 235//79 236//79 237//79
v 6.910870071 0.5 4.967413144
v 6.624283708 0.5 4.542531388
v 6.624283708 0.25 4.542531388
vn -0.829037573 0 0.559192903
f 238//80 239//80 240//80
o Treads02
g Treads02
usemtl Treads02
v -8.703296429 0.75 5.612966395
v -7.484042797 0.75 5.817176656
v -8.416710066 0.75 5.188084639
vn 0 1 0
f 241//81 242//81 243//81
v -7.484042797 0.75 5.817176656
v -8.703296429 0.75 5.612966395
v -7.77062916 0.75 6.242058412
vn 0 1 0
f 244//82 245//82 246//82
v -8.989882792 1 6.037848151
v -7.77062916 1 6.242058412
v -8.703296429 1 5.612966395
vn 0 1 0
f 247//83 248//83 249//83
v -7.77062916 1 6.242058412
v -8.989882792 1 6.037848151
v -8.057215523 1 6.666940168
vn 0 1 0
f 250//84 251//84 252//84
v -7.484042797 0.5 5.817176656
v -8.416710066 0.5 5.188084639
v -8.416710066 0.75 5.188084639
vn 0.559192903 0 -0.829037573
f 253//85 254//85 255//85
v -7.484042797 0.5 5.817176656
v -8.416710066 0.75 5.188084639
v -7.484042797 0.75 5.817176656
vn 0.559192903 0 -0.829037573
f 256//86 257//86 258//86
v -7.77062916 0.75 6.242058412
v -8.703296429 0.75 5.612966395
v -8.703296429 1 5.612966395
vn 0.559192903 0 -0.829037573
f 259//87 260//87 261//87
v -7.77062916 0.75 6.242058412
v -8.703296429 1 5.612966395
v -7.77062916 1 6.242058412
vn 0.559192903 0 -0.829037573
f 262//88 263//88 264//88
v -7.77062916 0.5 6.242058412
v -7.484042797 0.5 5.817176656
v -7.484042797 0.75 5.817176656
vn 0.829037573 0 0.559192903
f 265//89 266//89 267//89
v -7.77062916 0.5 6.242058412
v -7.484042797 0.75 5.817176656
v -7.77062916 0.75 6.242058412
vn 0.829037573 0 0.559192903
f 268//90 269//90 270//90
v -7.77062916 0.5 6.242058412
v -7.77062916 0.75 6.242058412
v -8.057215523 0.5 6.666940168
vn 0.829037573 0 0.559192903
f 271//91 272//91 273//91
v -8.057215523 0.5 6.666940168
v -7.77062916 0.75 6.242058412
v -8.057215523 1 6.666940168
vn 0.829037573 0 0.559192903
f 274//92 275//92 276//92
v -8.057215523 1 6.666940168
v -7.77062916 0.75 6.242058412
v -7.77062916 1 6.242058412
vn 0.829037573 0 0.559192903
f 277//93 278//93 279//93
v -4.780812837 0.75 7.765445918
v -3.477896368 0.75 7.694277622
v -4.605527513 0.75 7.28385345
vn 0 1 0
f 280//94 281//94 282//94
v -3.477896368 0.75 7.694277622
v -4.780812837 0.75 7.765445918
v -3.653181692 0.75 8.17587009
vn 0 1 0
f 283//95 284//95 285//95
v -4.95609816 1 8.247038386
v -3.653181692 1 8.17587009
v -4.780812837 1 7.765445918
vn 0 1 0
f 286//96 287//96 288//96
v -3.653181692 1 8.17587009
v -4.95609816 1 8.247038386
v -3.828467015 1 8.657462558
vn 0 1 0
f 289//97 290//97 291//97
v -3.477896368 0.5 7.694277622
v -4.605527513 0.5 7.28385345
v -4.605527513 0.75 7.28385345
vn 0.342020143 0 -0.939692621
f 292//98 293//98 294//98
v -3.477896368 0.5 7.694277622
v -4.605527513 0.75 7.28385345
v -3.477896368 0.75 7.694277622
vn 0.342020143 0 -0.939692621
f 295//99 296//99 297//99
v -3.653181692 0.75 8.17587009
v -4.780812837 0.75 7.765445918
v -4.780812837 1 7.765445918
vn 0.342020143 0 -0.939692621
f 298//100 299//100 300//100
v -3.653181692 0.75 8.17587009
v -4.780812837 1 7.765445918
v -3.653181692 1 8.17587009
vn 0.342020143 0 -0.939692621
f 301//101 302//101 303//101
v -4.605527513 0.5 7.28385345
v -4.780812837 0.5 7.765445918
v -4.780812837 0.75 7.765445918
vn -0.939692621 0 -0.342020143
f 304//102 305//102 306//102
v -4.605527513 0.5 7.28385345
v -4.780812837 0.75 7.765445918
v -4.605527513 0.75 7.28385345
vn -0.939692621 0 -0.342020143
f 307//103 308//103 309//103
v -4.780812837 0.5 7.765445918
v -4.95609816 0.5 8.247038386
v -4.780812837 0.75 7.765445918
vn -0.939692621 0 -0.342020143
f 310//104 311//104 312//104
v -4.95609816 0.5 8.247038386
v -4.95609816 1 8.247038386
v -4.780812837 0.75 7.765445918
vn -0.939692621 0 -0.342020143
f 313//105 314//105 315//105
v -4.95609816 1 8.247038386
v -4.780812837 1 7.765445918
v -4.780812837 0.75 7.765445918
vn -0.939692621 0 -0.342020143
f 316//106 317//106 318//106
v -3.653181692 0.5 8.17587009
v -3.477896368 0.5 7.694277622
v -3.477896368 0.75 7.694277622
vn 0.939692621 0 0.342020143
f 319//107 320//107 321//107
v -3.653181692 0.5 8.17587009
v -3.477896368 0.75 7.694277622
v -3.653181692 0.75 8.17587009
vn 0.939692621 0 0.342020143
f 322//108 323//108 324//108
v -3.653181692 0.5 8.17587009
v -3.653181692 0.75 8.17587009
v -3.828467015 0.5 8.657462558
vn 0.939692621 0 0.342020143
f 325//109 326//109 327//109
v -3.828467015 0.5 8.657462558
v -3.653181692 0.75 8.17587009
v -3.828467015 1 8.657462558
vn 0.939692621 0 0.342020143
f 328//110 329//110 330//110
v -3.828467015 1 8.657462558
v -3.653181692 0.75 8.17587009
v -3.653181692 1 8.17587009
vn 0.939692621 0 0.342020143
f 331//111 332//111 333//111
v -0.6 0.75 8.714228399
v 0.6 0.75 8.201728399
v -0.6 0.75 8.201728399
vn 0 1 0
f 334//112 335//112 336//112
v 0.6 0.75 8.201728399
v -0.6 0.75 8.714228399
v 0.6 0.75 8.714228399
vn 0 1 0
f 337//113 338//113 339//113
v -0.6 1 9.226728399
v 0.6 1 8.714228399
v -0.6 1 8.714228399
vn 0 1 0
f 340//114 341//114 342//114
v 0.6 1 8.714228399
v -0.6 1 9.226728399
v 0.6 1 9.226728399
vn 0 1 0
f 343//115 344//115 345//115
v 0.6 0.5 8.201728399
v -0.6 0.5 8.201728399
v -0.6 0.75 8.201728399
vn 0 0 -1
f 346//116 347//116 348//116
v 0.6 0.5 8.201728399
v -0.6 0.75 8.201728399
v 0.6 0.75 8.201728399
vn 0 0 -1
f 349//117 350//117 351//117
v 0.6 0.75 8.714228399
v -0.6 0.75 8.714228399
v -0.6 1 8.714228399
vn 0 0 -1
f 352//118 353//118 354//118
v 0.6 0.75 8.714228399
v -0.6 1 8.714228399
v 0.6 1 8.714228399
vn 0 0 -1
f 355//119 356//119 357//119
v -0.6 0.5 8.201728399
v -0.6 0.5 8.714228399
v -0.6 0.75 8.714228399
vn -1 0 0
f 358//120 359//120 360//120
v -0.6 0.5 8.201728399
v -0.6 0.75 8.714228399
v -0.6 0.75 8.201728399
vn -1 0 0
f 361//121 362//121 363//121
v -0.6 0.5 8.714228399
v -0.6 0.5 9.226728399
v -0.6 0.75 8.714228399
vn -1 0 0
f 364//122 365//122 366//122
v -0.6 0.5 9.226728399
v -0.6 1 9.226728399
v -0.6 0.75 8.714228399
vn -1 0 0
f 367//123 368//123 369//123
v -0.6 1 9.226728399
v -0.6 1 8.714228399
v -0.6 0.75 8.714228399
vn -1 0 0
f 370//124 371//124 372//124
v 0.6 0.5 8.714228399
v 0.6 0.5 8.201728399
v 0.6 0.75 8.201728399
vn 1 0 0
f 373//125 374//125 375//125
v 0.6 0.5 8.714228399
v 0.6 0.75 8.201728399
v 0.6 0.75 8.714228399
vn 1 0 0
f 376//126 377//126 378//126
v 0.6 0.5 8.714228399
v 0.6 0.75 8.714228399
v 0.6 0.5 9.226728399
vn 1 0 0
f 379//127 380//127 381//127
v 0.6 0.5 9.226728399
v 0.6 0.75 8.714228399
v 0.6 1 9.226728399
vn 1 0 0
f 382//128 383//128 384//128
v 0.6 1 9.226728399
v 0.6 0.75 8.714228399
v 0.6 1 8.714228399
vn 1 0 0
f 385//129 386//129 387//129
v 3.653181692 0.75 8.17587009
v 4.605527513 0.75 7.28385345
v 3.477896368 0.75 7.694277622
vn 0 1 0
f 388//130 389//130 390//130
v 4.605527513 0.75 7.28385345
v 3.653181692 0.75 8.17587009
v 4.780812837 0.75 7.765445918
vn 0 1 0
f 391//131 392//131 393//131
v 3.828467015 1 8.657462558
v 4.780812837 1 7.765445918
v 3.653181692 1 8.17587009
vn 0 1 0
f 394//132 395//132 396//132
v 4.780812837 1 7.765445918
v 3.828467015 1 8.657462558
v 4.95609816 1 8.247038386
vn 0 1 0
f 397//133 398//133 399//133
v 4.605527513 0.5 7.28385345
v 3.477896368 0.5 7.694277622
v 3.477896368 0.75 7.694277622
vn -0.342020143 0 -0.939692621
f 400//134 401//134 402//134
v 4.605527513 0.5 7.28385345
v 3.477896368 0.75 7.694277622
v 4.605527513 0.75 7.28385345
vn -0.342020143 0 -0.939692621
f 403//135 404//135 405//135
v 4.780812837 0.75 7.765445918
v 3.653181692 0.75 8.17587009
v 3.653181692 1 8.17587009
vn -0.342020143 0 -0.939692621
f 406//136 407//136 408//136
v 4.780812837 0.75 7.765445918
v 3.653181692 1 8.17587009
v 4.780812837 1 7.765445918
vn -0.342020143 0 -0.939692621
f 409//137 410//137 411//137
v 3.477896368 0.5 7.694277622
v 3.653181692 0.5 8.17587009
v 3.653181692 0.75 8.17587009
vn -0.939692621 0 0.342020143
f 412//138 413//138 414//138
v 3.477896368 0.5 7.694277622
v 3.653181692 0.75 8.17587009
v 3.477896368 0.75 7.694277622
vn -0.939692621 0 0.342020143
f 415//139 416//139 417//139
v 3.653181692 0.5 8.17587009
v 3.828467015 0.5 8.657462558
v 3.653181692 0.75 8.17587009
vn -0.939692621 0 0.342020143
f 418//140 419//140 420//140
v 3.828467015 0.5 8.657462558
v 3.828467015 1 8.657462558
v 3.653181692 0.75 8.17587009
vn -0.939692621 0 0.342020143
f 421//141 422//141 423//141
v 3.828467015 1 8.657462558
v 3.653181692 1 8.17587009
v 3.653181692 0.75 8.17587009
vn -0.939692621 0 0.342020143
f 424//142 425//142 426//142
v 4.780812837 0.5 7.765445918
v 4.605527513 0.5 7.28385345
v 4.605527513 0.75 7.28385345
vn 0.939692621 0 -0.342020143
f 427//143 428//143 429//143
v 4.780812837 0.5 7.765445918
v 4.605527513 0.75 7.28385345
v 4.780812837 0.75 7.765445918
vn 0.939692621 0 -0.342020143
f 430//144 431//144 432//144
v 4.780812837 0.5 7.765445918
v 4.780812837 0.75 7.765445918
v 4.95609816 0.5 8.247038386
vn 0.939692621 0 -0.342020143
f 433//145 434//145 435//145
v 4.95609816 0.5 8.247038386
v 4.780812837 0.75 7.765445918
v 4.95609816 1 8.247038386
vn 0.939692621 0 -0.342020143
f 436//146 437//146 438//146
v 4.95609816 1 8.247038386
v 4.780812837 0.75 7.765445918
v 4.780812837 1 7.765445918
vn 0.939692621 0 -0.342020143
f 439//147 440//147 441//147
v 7.77062916 0.75 6.242058412
v 8.416710066 0.75 5.188084639
v 7.484042797 0.75 5.817176656
vn 0 1 0
f 442//148 443//148 444//148
v 8.416710066 0.75 5.188084639
v 7.77062916 0.75 6.242058412
v 8.703296429 0.75 5.612966395
vn 0 1 0
f 445//149 446//149 447//149
v 8.057215523 1 6.666940168
v 8.703296429 1 5.612966395
v 7.77062916 1 6.242058412
vn 0 1 0
f 448//150 449//150 450//150
v 8.703296429 1 5.612966395
v 8.057215523 1 6.666940168
v 8.989882792 1 6.037848151
vn 0 1 0
f 451//151 452//151 453//151
v 8.416710066 0.5 5.188084639
v 7.484042797 0.5 5.817176656
v 7.484042797 0.75 5.817176656
vn -0.559192903 0 -0.829037573
f 454//152 455//152 456//152
v 8.416710066 0.5 5.188084639
v 7.484042797 0.75 5.817176656
v 8.416710066 0.75 5.188084639
vn -0.559192903 0 -0.829037573
f 457//153 458//153 459//153
v 8.703296429 0.75 5.612966395
v 7.77062916 0.75 6.242058412
v 7.77062916 1 6.242058412
vn -0.559192903 0 -0.829037573
f 460//154 461//154 462//154
v 8.703296429 0.75 5.612966395
v 7.77062916 1 6.242058412
v 8.703296429 1 5.612966395
vn -0.559192903 0 -0.829037573
f 463//155 464//155 465//155
v 7.484042797 0.5 5.817176656
v 7.77062916 0.5 6.242058412
v 7.77062916 0.75 6.242058412
vn -0.829037573 0 0.559192903
f 466//156 467//156 468//156
v 7.484042797 0.5 5.817176656
v 7.77062916 0.75 6.242058412
v 7.484042797 0.75 5.817176656
vn -0.829037573 0 0.559192903
f 469//157 470//157 471//157
v 7.77062916 0.5 6.242058412
v 8.057215523 0.5 6.666940168
v 7.77062916 0.75 6.242058412
vn -0.829037573 0 0.559192903
f 472//158 473//158 474//158
v 8.057215523 0.5 6.666940168
v 8.057215523 1 6.666940168
v 7.77062916 0.75 6.242058412
vn -0.829037573 0 0.559192903
f 475//159 476//159 477//159
v 8.057215523 1 6.666940168
v 7.77062916 1 6.242058412
v 7.77062916 0.75 6.242058412
vn -0.829037573 0 0.559192903
f 478//160 479//160 480//160
o Treads03
g Treads03
usemtl Treads03
v -9.849641881 1.25 7.312493419
v -8.630388249 1.25 7.51670368
v -9.563055518 1.25 6.887611663
vn 0 1 0
f 481//161 482//161 483//161
v -8.630388249 1.25 7.51670368
v -9.849641881 1.25 7.312493419
v -8.916974612 1.25 7.941585436
vn 0 1 0
f 484//162 485//162 486//162
v -10.136228244 1.5 7.737375175
v -8.916974612 1.5 7.941585436
v -9.849641881 1.5 7.312493419
vn 0 1 0
f 487//163 488//163 489//163
v -8.916974612 1.5 7.941585436
v -10.136228244 1.5 7.737375175
v -9.203560975 1.5 8.366467191
vn 0 1 0
f 490//164 491//164 492//164
v -8.630388249 1 7.51670368
v -9.563055518 1 6.887611663
v -9.563055518 1.25 6.887611663
vn 0.559192903 0 -0.829037573
f 493//165 494//165 495//165
v -8.630388249 1 7.51670368
v -9.563055518 1.25 6.887611663
v -8.630388249 1.25 7.51670368
vn 0.559192903 0 -0.829037573
f 496//166 497//166 498//166
v -8.916974612 1.25 7.941585436
v -9.849641881 1.25 7.312493419
v -9.849641881 1.5 7.312493419
vn 0.559192903 0 -0.829037573
f 499//167 500//167 501//167
v -8.916974612 1.25 7.941585436
v -9.849641881 1.5 7.312493419
v -8.916974612 1.5 7.941585436
vn 0.559192903 0 -0.829037573
f 502//168 503//168 504//168
v -8.916974612 1 7.941585436
v -8.630388249 1 7.51670368
v -8.630388249 1.25 7.51670368
vn 0.829037573 0 0.559192903
f 505//169 506//169 507//169
v -8.916974612 1 7.941585436
v -8.630388249 1.25 7.51670368
v -8.916974612 1.25 7.941585436
vn 0.829037573 0 0.559192903
f 508//170 509//170 510//170
v -8.916974612 1 7.941585436
v -8.916974612 1.25 7.941585436
v -9.203560975 1 8.366467191
vn 0.829037573 0 0.559192903
f 511//171 512//171 513//171
v -9.203560975 1 8.366467191
v -8.916974612 1.25 7.941585436
v -9.203560975 1.5 8.366467191
vn 0.829037573 0 0.559192903
f 514//172 515//172 516//172
v -9.203560975 1.5 8.366467191
v -8.916974612 1.25 7.941585436
v -8.916974612 1.5 7.941585436
vn 0.829037573 0 0.559192903
f 517//173 518//173 519//173
v -5.48195413 1.25 9.69181579
v -4.179037662 1.25 9.620647494
v -5.306668807 1.25 9.210223322
vn 0 1 0
f 520//174 521//174 522//174
v -4.179037662 1.25 9.620647494
v -5.48195413 1.25 9.69181579
v -4.354322986 1.25 10.102239962
vn 0 1 0
f 523//175 524//175 525//175
v -5.657239454 1.5 10.173408259
v -4.354322986 1.5 10.102239962
v -5.48195413 1.5 9.69181579
vn 0 1 0
f 526//176 527//176 528//176
v -4.354322986 1.5 10.102239962
v -5.657239454 1.5 10.173408259
v -4.529608309 1.5 10.583832431
vn 0 1 0
f 529//177 530//177 531//177
v -4.179037662 1 9.620647494
v -5.306668807 1 9.210223322
v -5.306668807 1.25 9.210223322
vn 0.342020143 0 -0.939692621
f 532//178 533//178 534//178
v -4.179037662 1 9.620647494
v -5.306668807 1.25 9.210223322
v -4.179037662 1.25 9.620647494
vn 0.342020143 0 -0.939692621
f 535//179 536//179 537//179
v -4.354322986 1.25 10.102239962
v -5.48195413 1.25 9.69181579
v -5.48195413 1.5 9.69181579
vn 0.342020143 0 -0.939692621
f 538//180 539//180 540//180
v -4.354322986 1.25 10.102239962
v -5.48195413 1.5 9.69181579
v -4.354322986 1.5 10.102239962
vn 0.342020143 0 -0.939692621
f 541//181 542//181 543//181
v -5.306668807 1 9.210223322
v -5.48195413 1 9.69181579
v -5.48195413 1.25 9.69181579
vn -0.939692621 0 -0.342020143
f 544//182 545//182 546//182
v -5.306668807 1 9.210223322
v -5.48195413 1.25 9.69181579
v -5.306668807 1.25 9.210223322
vn -0.939692621 0 -0.342020143
f 547//183 548//183 549//183
v -5.48195413 1 9.69181579
v -5.657239454 1 10.173408259
v -5.48195413 1.25 9.69181579
vn -0.939692621 0 -0.342020143
f 550//184 551//184 552//184
v -5.657239454 1 10.173408259
v -5.657239454 1.5 10.173408259
v -5.48195413 1.25 9.69181579
vn -0.939692621 0 -0.342020143
f 553//185 554//185 555//185
v -5.657239454 1.5 10.173408259
v -5.48195413 1.5 9.69181579
v -5.48195413 1.25 9.69181579
vn -0.939692621 0 -0.342020143
f 556//186 557//186 558//186
v -4.354322986 1 10.102239962
v -4.179037662 1 9.620647494
v -4.179037662 1.25 9.620647494
vn 0.939692621 0 0.342020143
f 559//187 560//187 561//187
v -4.354322986 1 10.102239962
v -4.179037662 1.25 9.620647494
v -4.354322986 1.25 10.102239962
vn 0.939692621 0 0.342020143
f 562//188 563//188 564//188
v -4.354322986 1 10.102239962
v -4.354322986 1.25 10.102239962
v -4.529608309 1 10.583832431
vn 0.939692621 0 0.342020143
f 565//189 566//189 567//189
v -4.529608309 1 10.583832431
v -4.354322986 1.25 10.102239962
v -4.529608309 1.5 10.583832431
vn 0.939692621 0 0.342020143
f 568//190 569//190 570//190
v -4.529608309 1.5 10.583832431
v -4.354322986 1.25 10.102239962
v -4.354322986 1.5 10.102239962
vn 0.939692621 0 0.342020143
f 571//191 572//191 573//191
v -0.6 1.25 10.764228399
v 0.6 1.25 10.251728399
v -0.6 1.25 10.251728399
vn 0 1 0
f 574//192 575//192 576//192
v 0.6 1.25 10.251728399
v -0.6 1.25 10.764228399
v 0.6 1.25 10.764228399
vn 0 1 0
f 577//193 578//193 579//193
v -0.6 1.5 11.276728399
v 0.6 1.5 10.764228399
v -0.6 1.5 10.764228399
vn 0 1 0
f 580//194 581//194 582//194
v 0.6 1.5 10.764228399
v -0.6 1.5 11.276728399
v 0.6 1.5 11.276728399
vn 0 1 0
f 583//195 584//195 585//195
v 0.6 1 10.251728399
v -0.6 1 10.251728399
v -0.6 1.25 10.251728399
vn 0 0 -1
f 586//196 587//196 588//196
v 0.6 1 10.251728399
v -0.6 1.25 10.251728399
v 0.6 1.25 10.251728399
vn 0 0 -1
f 589//197 590//197 591//197
v 0.6 1.25 10.764228399
v -0.6 1.25 10.764228399
v -0.6 1.5 10.764228399
vn 0 0 -1
f 592//198 593//198 594//198
v 0.6 1.25 10.764228399
v -0.6 1.5 10.764228399
v 0.6 1.5 10.764228399
vn 0 0 -1
f 595//199 596//199 597//199
v -0.6 1 10.251728399
v -0.6 1 10.764228399
v -0.6 1.25 10.764228399
vn -1 0 0
f 598//200 599//200 600//200
v -0.6 1 10.251728399
v -0.6 1.25 10.764228399
v -0.6 1.25 10.251728399
vn -1 0 0
f 601//201 602//201 603//201
v -0.6 1 10.764228399
v -0.6 1 11.276728399
v -0.6 1.25 10.764228399
vn -1 0 0
f 604//202 605//202 606//202
v -0.6 1 11.276728399
v -0.6 1.5 11.276728399
v -0.6 1.25 10.764228399
vn -1 0 0
f 607//203 608//203 609//203
v -0.6 1.5 11.276728399
v -0.6 1.5 10.764228399
v -0.6 1.25 10.764228399
vn -1 0 0
f 610//204 611//204 612//204
v 0.6 1 10.764228399
v 0.6 1 10.251728399
v 0.6 1.25 10.251728399
vn 1 0 0
f 613//205 614//205 615//205
v 0.6 1 10.764228399
v 0.6 1.25 10.251728399
v 0.6 1.25 10.764228399
vn 1 0 0
f 616//206 617//206 618//206
v 0.6 1 10.764228399
v 0.6 1.25 10.764228399
v 0.6 1 11.276728399
vn 1 0 0
f 619//207 620//207 621//207
v 0.6 1 11.276728399
v 0.6 1.25 10.764228399
v 0.6 1.5 11.276728399
vn 1 0 0
f 622//208 623//208 624//208
v 0.6 1.5 11.276728399
v 0.6 1.25 10.764228399
v 0.6 1.5 10.764228399
vn 1 0 0
f 625//209 626//209 627//209
v 4.354322986 1.25 10.102239962
v 5.306668807 1.25 9.210223322
v 4.179037662 1.25 9.620647494
vn 0 1 0
f 628//210 629//210 630//210
v 5.306668807 1.25 9.210223322
v 4.354322986 1.25 10.102239962
v 5.48195413 1.25 9.69181579
vn 0 1 0
f 631//211 632//211 633//211
v 4.529608309 1.5 10.583832431
v 5.48195413 1.5 9.69181579
v 4.354322986 1.5 10.102239962
vn 0 1 0
f 634//212 635//212 636//212
v 5.48195413 1.5 9.69181579
v 4.529608309 1.5 10.583832431
v 5.657239454 1.5 10.173408259
vn 0 1 0
f 637//213 638//213 639//213
v 5.306668807 1 9.210223322
v 4.179037662 1 9.620647494
v 4.179037662 1.25 9.620647494
vn -0.342020143 0 -0.939692621
f 640//214 641//214 642//214
v 5.306668807 1 9.210223322
v 4.179037662 1.25 9.620647494
v 5.306668807 1.25 9.210223322
vn -0.342020143 0 -0.939692621
f 643//215 644//215 645//215
v 5.48195413 1.25 9.69181579
v 4.354322986 1.25 10.102239962
v 4.354322986 1.5 10.102239962
vn -0.342020143 0 -0.939692621
f 646//216 647//216 648//216
v 5.48195413 1.25 9.69181579
v 4.354322986 1.5 10.102239962
v 5.48195413 1.5 9.69181579
vn -0.342020143 0 -0.939692621
f 649//217 650//217 651//217
v 4.179037662 1 9.620647494
v 4.354322986 1 10.102239962
v 4.354322986 1.25 10.102239962
vn -0.939692621 0 0.342020143
f 652//218 653//218 654//218
v 4.179037662 1 9.620647494
v 4.354322986 1.25 10.102239962
v 4.179037662 1.25 9.620647494
vn -0.939692621 0 0.342020143
f 655//219 656//219 657//219
v 4.354322986 1 10.102239962
v 4.529608309 1 10.583832431
v 4.354322986 1.25 10.102239962
vn -0.939692621 0 0.342020143
f 658//220 659//220 660//220
v 4.529608309 1 10.583832431
v 4.529608309 1.5 10.583832431
v 4.354322986 1.25 10.102239962
vn -0.939692621 0 0.342020143
f 661//221 662//221 663//221
v 4.529608309 1.5 10.583832431
v 4.354322986 1.5 10.102239962
v 4.354322986 1.25 10.102239962
vn -0.939692621 0 0.342020143
f 664//222 665//222 666//222
v 5.48195413 1 9.69181579
v 5.306668807 1 9.210223322
v 5.306668807 1.25 9.210223322
vn 0.939692621 0 -0.342020143
f 667//223 668//223 669//223
v 5.48195413 1 9.69181579
v 5.306668807 1.25 9.210223322
v 5.48195413 1.25 9.69181579
vn 0.939692621 0 -0.342020143
f 670//224 671//224 672//224
v 5.48195413 1 9.69181579
v 5.48195413 1.25 9.69181579
v 5.657239454 1 10.173408259
vn 0.939692621 0 -0.342020143
f 673//225 674//225 675//225
v 5.657239454 1 10.173408259
v 5.48195413 1.25 9.69181579
v 5.657239454 1.5 10.173408259
vn 0.939692621 0 -0.342020143
f 676//226 677//226 678//226
v 5.657239454 1.5 10.173408259
v 5.48195413 1.25 9.69181579
v 5.48195413 1.5 9.69181579
vn 0.939692621 0 -0.342020143
f 679//227 680//227 681//227
v 8.916974612 1.25 7.941585436
v 9.563055518 1.25 6.887611663
v 8.630388249 1.25 7.51670368
vn 0 1 0
f 682//228 683//228 684//228
v 9.563055518 1.25 6.887611663
v 8.916974612 1.25 7.941585436
v 9.849641881 1.25 7.312493419
vn 0 1 0
f 685//229 686//229 687//229
v 9.203560975 1.5 8.366467191
v 9.849641881 1.5 7.312493419
v 8.916974612 1.5 7.941585436
vn 0 1 0
f 688//230 689//230 690//230
v 9.849641881 1.5 7.312493419
v 9.203560975 1.5 8.366467191
v 10.136228244 1.5 7.737375175
vn 0 1 0
f 691//231 692//231 693//231
v 9.563055518 1 6.887611663
v 8.630388249 1 7.51670368
v 8.630388249 1.25 7.51670368
vn -0.559192903 0 -0.829037573
f 694//232 695//232 696//232
v 9.563055518 1 6.887611663
v 8.630388249 1.25 7.51670368
v 9.563055518 1.25 6.887611663
vn -0.559192903 0 -0.829037573
f 697//233 698//233 699//233
v 9.849641881 1.25 7.312493419
v 8.916974612 1.25 7.941585436
v 8.916974612 1.5 7.941585436
vn -0.559192903 0 -0.829037573
f 700//234 701//234 702//234
v 9.849641881 1.25 7.312493419
v 8.916974612 1.5 7.941585436
v 9.849641881 1.5 7.312493419
vn -0.559192903 0 -0.829037573
f 703//235 704//235 705//235
v 8.630388249 1 7.51670368
v 8.916974612 1 7.941585436
v 8.916974612 1.25 7.941585436
vn -0.829037573 0 0.559192903
f 706//236 707//236 708//236
v 8.630388249 1 7.51670368
v 8.916974612 1.25 7.941585436
v 8.630388249 1.25 7.51670368
vn -0.829037573 0 0.559192903
f 709//237 710//237 711//237
v 8.916974612 1 7.941585436
v 9.203560975 1 8.366467191
v 8.916974612 1.25 7.941585436
vn -0.829037573 0 0.559192903
f 712//238 713//238 714//238
v 9.203560975 1 8.366467191
v 9.203560975 1.5 8.366467191
v 8.916974612 1.25 7.941585436
vn -0.829037573 0 0.559192903
f 715//239 716//239 717//239
v 9.203560975 1.5 8.366467191
v 8.916974612 1.5 7.941585436
v 8.916974612 1.25 7.941585436
vn -0.829037573 0 0.559192903
f 718//240 719//240 720//240
o Treads04
g Treads04
usemtl Treads04
v -10.995987333 1.75 9.012020443
v -9.776733701 1.75 9.216230703
v -10.70940097 1.75 8.587138687
vn 0 1 0
f 721//241 722//241 723//241
v -9.776733701 1.75 9.216230703
v -10.995987333 1.75 9.012020443
v -10.063320064 1.75 9.641112459
vn 0 1 0
f 724//242 725//242 726//242
v -11.282573696 2 9.436902199
v -10.063320064 2 9.641112459
v -10.995987333 2 9.012020443
vn 0 1 0
f 727//243 728//243 729//243
v -10.063320064 2 9.641112459
v -11.282573696 2 9.436902199
v -10.349906427 2 10.065994215
vn 0 1 0
f 730//244 731//244 732//244
v -9.776733701 1.5 9.216230703
v -10.70940097 1.5 8.587138687
v -10.70940097 1.75 8.587138687
vn 0.559192903 0 -0.829037573
f 733//245 734//245 735//245
v -9.776733701 1.5 9.216230703
v -10.70940097 1.75 8.587138687
v -9.776733701 1.75 9.216230703
vn 0.559192903 0 -0.829037573
f 736//246 737//246 738//246
v -10.063320064 1.75 9.641112459
v -10.995987333 1.75 9.012020443
v -10.995987333 2 9.012020443
vn 0.559192903 0 -0.829037573
f 739//247 740//247 741//247
v -10.063320064 1.75 9.641112459
v -10.995987333 2 9.012020443
v -10.063320064 2 9.641112459
vn 0.559192903 0 -0.829037573
f 742//248 743//248 744//248
v -10.063320064 1.5 9.641112459
v -9.776733701 1.5 9.216230703
v -9.776733701 1.75 9.216230703
vn 0.829037573 0 0.559192903
f 745//249 746//249 747//249
v -10.063320064 1.5 9.641112459
v -9.776733701 1.75 9.216230703
v -10.063320064 1.75 9.641112459
vn 0.829037573 0 0.559192903
f 748//250 749//250 750//250
v -10.063320064 1.5 9.641112459
v -10.063320064 1.75 9.641112459
v -10.349906427 1.5 10.065994215
vn 0.829037573 0 0.559192903
f 751//251 752//251 753//251
v -10.349906427 1.5 10.065994215
v -10.063320064 1.75 9.641112459
v -10.349906427 2 10.065994215
vn 0.829037573 0 0.559192903
f 754//252 755//252 756//252
v -10.349906427 2 10.065994215
v -10.063320064 1.75 9.641112459
v -10.063320064 2 9.641112459
vn 0.829037573 0 0.559192903
f 757//253 758//253 759//253
v -6.183095424 1.75 11.618185663
v -4.880178956 1.75 11.547017367
v -6.007810101 1.75 11.136593195
vn 0 1 0
f 760//254 761//254 762//254
v -4.880178956 1.75 11.547017367
v -6.183095424 1.75 11.618185663
v -5.055464279 1.75 12.028609835
vn 0 1 0
f 763//255 764//255 765//255
v -6.358380748 2 12.099778131
v -5.055464279 2 12.028609835
v -6.183095424 2 11.618185663
vn 0 1 0
f 766//256 767//256 768//256
v -5.055464279 2 12.028609835
v -6.358380748 2 12.099778131
v -5.230749603 2 12.510202303
vn 0 1 0
f 769//257 770//257 771//257
v -4.880178956 1.5 11.547017367
v -6.007810101 1.5 11.136593195
v -6.007810101 1.75 11.136593195
vn 0.342020143 0 -0.939692621
f 772//258 773//258 774//258
v -4.880178956 1.5 11.547017367
v -6.007810101 1.75 11.136593195
v -4.880178956 1.75 11.547017367
vn 0.342020143 0 -0.939692621
f 775//259 776//259 777//259
v -5.055464279 1.75 12.028609835
v -6.183095424 1.75 11.618185663
v -6.183095424 2 11.618185663
vn 0.342020143 0 -0.939692621
f 778//260 779//260 780//260
v -5.055464279 1.75 12.028609835
v -6.183095424 2 11.618185663
v -5.055464279 2 12.028609835
vn 0.342020143 0 -0.939692621
f 781//261 782//261 783//261
v -6.007810101 1.5 11.136593195
v -6.183095424 1.5 11.618185663
v -6.183095424 1.75 11.618185663
vn -0.939692621 0 -0.342020143
f 784//262 785//262 786//262
v -6.007810101 1.5 11.136593195
v -6.183095424 1.75 11.618185663
v -6.007810101 1.75 11.136593195
vn -0.939692621 0 -0.342020143
f 787//263 788//263 789//263
v -6.183095424 1.5 11.618185663
v -6.358380748 1.5 12.099778131
v -6.183095424 1.75 11.618185663
vn -0.939692621 0 -0.342020143
f 790//264 791//264 792//264
v -6.358380748 1.5 12.099778131
v -6.358380748 2 12.099778131
v -6.183095424 1.75 11.618185663
vn -0.939692621 0 -0.342020143
f 793//265 794//265 795//265
v -6.358380748 2 12.099778131
v -6.183095424 2 11.618185663
v -6.183095424 1.75 11.618185663
vn -0.939692621 0 -0.342020143
f 796//266 797//266 798//266
v -5.055464279 1.5 12.028609835
v -4.880178956 1.5 11.547017367
v -4.880178956 1.75 11.547017367
vn 0.939692621 0 0.342020143
f 799//267 800//267 801//267
v -5.055464279 1.5 12.028609835
v -4.880178956 1.75 11.547017367
v -5.055464279 1.75 12.028609835
vn 0.939692621 0 0.342020143
f 802//268 803//268 804//268
v -5.055464279 1.5 12.028609835
v -5.055464279 1.75 12.028609835
v -5.230749603 1.5 12.510202303
vn 0.939692621 0 0.342020143
f 805//269 806//269 807//269
v -5.230749603 1.5 12.510202303
v -5.055464279 1.75 12.028609835
v -5.230749603 2 12.510202303
vn 0.939692621 0 0.342020143
f 808//270 809//270 810//270
v -5.230749603 2 12.510202303
v -5.055464279 1.75 12.028609835
v -5.055464279 2 12.028609835
vn 0.939692621 0 0.342020143
f 811//271 812//271 813//271
v -0.6 1.75 12.814228399
v 0.6 1.75 12.301728399
v -0.6 1.75 12.301728399
vn 0 1 0
f 814//272 815//272 816//272
v 0.6 1.75 12.301728399
v -0.6 1.75 12.814228399
v 0.6 1.75 12.814228399
vn 0 1 0
f 817//273 818//273 819//273
v -0.6 2 13.326728399
v 0.6 2 12.814228399
v -0.6 2 12.814228399
vn 0 1 0
f 820//274 821//274 822//274
v 0.6 2 12.814228399
v -0.6 2 13.326728399
v 0.6 2 13.326728399
vn 0 1 0
f 823//275 824//275 825//275
v 0.6 1.5 12.301728399
v -0.6 1.5 12.301728399
v -0.6 1.75 12.301728399
vn 0 0 -1
f 826//276 827//276 828//276
v 0.6 1.5 12.301728399
v -0.6 1.75 12.301728399
v 0.6 1.75 12.301728399
vn 0 0 -1
f 829//277 830//277 831//277
v 0.6 1.75 12.814228399
v -0.6 1.75 12.814228399
v -0.6 2 12.814228399
vn 0 0 -1
f 832//278 833//278 834//278
v 0.6 1.75 12.814228399
v -0.6 2 12.814228399
v 0.6 2 12.814228399
vn 0 0 -1
f 835//279 836//279 837//279
v -0.6 1.5 12.301728399
v -0.6 1.5 12.814228399
v -0.6 1.75 12.814228399
vn -1 0 0
f 838//280 839//280 840//280
v -0.6 1.5 12.301728399
v -0.6 1.75 12.814228399
v -0.6 1.75 12.301728399
vn -1 0 0
f 841//281 842//281 843//281
v -0.6 1.5 12.814228399
v -0.6 1.5 13.326728399
v -0.6 1.75 12.814228399
vn -1 0 0
f 844//282 845//282 846//282
v -0.6 1.5 13.326728399
v -0.6 2 13.326728399
v -0.6 1.75 12.814228399
vn -1 0 0
f 847//283 848//283 849//283
v -0.6 2 13.326728399
v -0.6 2 12.814228399
v -0.6 1.75 12.814228399
vn -1 0 0
f 850//284 851//284 852//284
v 0.6 1.5 12.814228399
v 0.6 1.5 12.301728399
v 0.6 1.75 12.301728399
vn 1 0 0
f 853//285 854//285 855//285
v 0.6 1.5 12.814228399
v 0.6 1.75 12.301728399
v 0.6 1.75 12.814228399
vn 1 0 0
f 856//286 857//286 858//286
v 0.6 1.5 12.814228399
v 0.6 1.75 12.814228399
v 0.6 1.5 13.326728399
vn 1 0 0
f 859//287 860//287 861//287
v 0.6 1.5 13.326728399
v 0.6 1.75 12.814228399
v 0.6 2 13.326728399
vn 1 0 0
f 862//288 863//288 864//288
v 0.6 2 13.326728399
v 0.6 1.75 12.814228399
v 0.6 2 12.814228399
vn 1 0 0
f 865//289 866//289 867//289
v 5.055464279 1.75 12.028609835
v 6.007810101 1.75 11.136593195
v 4.880178956 1.75 11.547017367
vn 0 1 0
f 868//290 869//290 870//290
v 6.007810101 1.75 11.136593195
v 5.055464279 1.75 12.028609835
v 6.183095424 1.75 11.618185663
vn 0 1 0
f 871//291 872//291 873//291
v 5.230749603 2 12.510202303
v 6.183095424 2 11.618185663
v 5.055464279 2 12.028609835
vn 0 1 0
f 874//292 875//292 876//292
v 6.183095424 2 11.618185663
v 5.230749603 2 12.510202303
v 6.358380748 2 12.099778131
vn 0 1 0
f 877//293 878//293 879//293
v 6.007810101 1.5 11.136593195
v 4.880178956 1.5 11.547017367
v 4.880178956 1.75 11.547017367
vn -0.342020143 0 -0.939692621
f 880//294 881//294 882//294
v 6.007810101 1.5 11.136593195
v 4.880178956 1.75 11.547017367
v 6.007810101 1.75 11.136593195
vn -0.342020143 0 -0.939692621
f 883//295 884//295 885//295
v 6.183095424 1.75 11.618185663
v 5.055464279 1.75 12.028609835
v 5.055464279 2 12.028609835
vn -0.342020143 0 -0.939692621
f 886//296 887//296 888//296
v 6.183095424 1.75 11.618185663
v 5.055464279 2 12.028609835
v 6.183095424 2 11.618185663
vn -0.342020143 0 -0.939692621
f 889//297 890//297 891//297
v 4.880178956 1.5 11.547017367
v 5.055464279 1.5 12.028609835
v 5.055464279 1.75 12.028609835
vn -0.939692621 0 0.342020143
f 892//298 893//298 894//298
v 4.880178956 1.5 11.547017367
v 5.055464279 1.75 12.028609835
v 4.880178956 1.75 11.547017367
vn -0.939692621 0 0.342020143
f 895//299 896//299 897//299
v 5.055464279 1.5 12.028609835
v 5.230749603 1.5 12.510202303
v 5.055464279 1.75 12.028609835
vn -0.939692621 0 0.342020143
f 898//300 899//300 900//300
v 5.230749603 1.5 12.510202303
v 5.230749603 2 12.510202303
v 5.055464279 1.75 12.028609835
vn -0.939692621 0 0.342020143
f 901//301 902//301 903//301
v 5.230749603 2 12.510202303
v 5.055464279 2 12.028609835
v 5.055464279 1.75 12.028609835
vn -0.939692621 0 0.342020143
f 904//302 905//302 906//302
v 6.183095424 1.5 11.618185663
v 6.007810101 1.5 11.136593195
v 6.007810101 1.75 11.136593195
vn 0.939692621 0 -0.342020143
f 907//303 908//303 909//303
v 6.183095424 1.5 11.618185663
v 6.007810101 1.75 11.136593195
v 6.183095424 1.75 11.618185663
vn 0.939692621 0 -0.342020143
f 910//304 911//304 912//304
v 6.183095424 1.5 11.618185663
v 6.183095424 1.75 11.618185663
v 6.358380748 1.5 12.099778131
vn 0.939692621 0 -0.342020143
f 913//305 914//305 915//305
v 6.358380748 1.5 12.099778131
v 6.183095424 1.75 11.618185663
v 6.358380748 2 12.099778131
vn 0.939692621 0 -0.342020143
f 916//306 917//306 918//306
v 6.358380748 2 12.099778131
v 6.183095424 1.75 11.618185663
v 6.183095424 2 11.618185663
vn 0.939692621 0 -0.342020143
f 919//307 920//307 921//307
v 10.063320064 1.75 9.641112459
v 10.70940097 1.75 8.587138687
v 9.776733701 1.75 9.216230703
vn 0 1 0
f 922//308 923//308 924//308
v 10.70940097 1.75 8.587138687
v 10.063320064 1.75 9.641112459
v 10.995987333 1.75 9.012020443
vn 0 1 0
f 925//309 926//309 927//309
v 10.349906427 2 10.065994215
v 10.995987333 2 9.012020443
v 10.063320064 2 9.641112459
vn 0 1 0
f 928//310 929//310 930//310
v 10.995987333 2 9.012020443
v 10.349906427 2 10.065994215
v 11.282573696 2 9.436902199
vn 0 1 0
f 931//311 932//311 933//311
v 10.70940097 1.5 8.587138687
v 9.776733701 1.5 9.216230703
v 9.776733701 1.75 9.216230703
vn -0.559192903 0 -0.829037573
f 934//312 935//312 936//312
v 10.70940097 1.5 8.587138687
v 9.776733701 1.75 9.216230703
v 10.70940097 1.75 8.587138687
vn -0.559192903 0 -0.829037573
f 937//313 938//313 939//313
v 10.995987333 1.75 9.012020443
v 10.063320064 1.75 9.641112459
v 10.063320064 2 9.641112459
vn -0.559192903 0 -0.829037573
f 940//314 941//314 942//314
v 10.995987333 1.75 9.012020443
v 10.063320064 2 9.641112459
v 10.995987333 2 9.012020443
vn -0.559192903 0 -0.829037573
f 943//315 944//315 945//315
v 9.776733701 1.5 9.216230703
v 10.063320064 1.5 9.641112459
v 10.063320064 1.75 9.641112459
vn -0.829037573 0 0.559192903
f 946//316 947//316 948//316
v 9.776733701 1.5 9.216230703
v 10.063320064 1.75 9.641112459
v 9.776733701 1.75 9.216230703
vn -0.829037573 0 0.559192903
f 949//317 950//317 951//317
v 10.063320064 1.5 9.641112459
v 10.349906427 1.5 10.065994215
v 10.063320064 1.75 9.641112459
vn -0.829037573 0 0.559192903
f 952//318 953//318 954//318
v 10.349906427 1.5 10.065994215
v 10.349906427 2 10.065994215
v 10.063320064 1.75 9.641112459
vn -0.829037573 0 0.559192903
f 955//319 956//319 957//319
v 10.349906427 2 10.065994215
v 10.063320064 2 9.641112459
v 10.063320064 1.75 9.641112459
vn -0.829037573 0 0.559192903
f 958//320 959//320 960//320
o Treads05
g Treads05
usemtl Treads05
v -12.142332785 2.25 10.711547467
v -10.923079153 2.25 10.915757727
v -11.855746422 2.25 10.286665711
vn 0 1 0
f 961//321 962//321 963//321
v -10.923079153 2.25 10.915757727
v -12.142332785 2.25 10.711547467
v -11.209665516 2.25 11.340639483
vn 0 1 0
f 964//322 965//322 966//322
v -12.428919148 2.5 11.136429223
v -11.209665516 2.5 11.340639483
v -12.142332785 2.5 10.711547467
vn 0 1 0
f 967//323 968//323 969//323
v -11.209665516 2.5 11.340639483
v -12.428919148 2.5 11.136429223
v -11.496251879 2.5 11.765521239
vn 0 1 0
f 970//324 971//324 972//324
v -10.923079153 2 10.915757727
v -11.855746422 2 10.286665711
v -11.855746422 2.25 10.286665711
vn 0.559192903 0 -0.829037573
f 973//325 974//325 975//325
v -10.923079153 2 10.915757727
v -11.855746422 2.25 10.286665711
v -10.923079153 2.25 10.915757727
vn 0.559192903 0 -0.829037573
f 976//326 977//326 978//326
v -11.209665516 2.25 11.340639483
v -12.142332785 2.25 10.711547467
v -12.142332785 2.5 10.711547467
vn 0.559192903 0 -0.829037573
f 979//327 980//327 981//327
v -11.209665516 2.25 11.340639483
v -12.142332785 2.5 10.711547467
v -11.209665516 2.5 11.340639483
vn 0.559192903 0 -0.829037573
f 982//328 983//328 984//328
v -11.209665516 2 11.340639483
v -10.923079153 2 10.915757727
v -10.923079153 2.25 10.915757727
vn 0.829037573 0 0.559192903
f 985//329 986//329 987//329
v -11.209665516 2 11.340639483
v -10.923079153 2.25 10.915757727
v -11.209665516 2.25 11.340639483
vn 0.829037573 0 0.559192903
f 988//330 989//330 990//330
v -11.209665516 2 11.340639483
v -11.209665516 2.25 11.340639483
v -11.496251879 2 11.765521239
vn 0.829037573 0 0.559192903
f 991//331 992//331 993//331
v -11.496251879 2 11.765521239
v -11.209665516 2.25 11.340639483
v -11.496251879 2.5 11.765521239
vn 0.829037573 0 0.559192903
f 994//332 995//332 996//332
v -11.496251879 2.5 11.765521239
v -11.209665516 2.25 11.340639483
v -11.209665516 2.5 11.340639483
vn 0.829037573 0 0.559192903
f 997//333 998//333 999//333
v -6.884236718 2.25 13.544555536
v -5.58132025 2.25 13.473387239
v -6.708951395 2.25 13.062963067
vn 0 1 0
f 1000//334 1001//334 1002//334
v -5.58132025 2.25 13.473387239
v -6.884236718 2.25 13.544555536
v -5.756605573 2.25 13.954979708
vn 0 1 0
f 1003//335 1004//335 1005//335
v -7.059522042 2.5 14.026148004
v -5.756605573 2.5 13.954979708
v -6.884236718 2.5 13.544555536
vn 0 1 0
f 1006//336 1007//336 1008//336
v -5.756605573 2.5 13.954979708
v -7.059522042 2.5 14.026148004
v -5.931890897 2.5 14.436572176
vn 0 1 0
f 1009//337 1010//337 1011//337
v -5.58132025 2 13.473387239
v -6.708951395 2 13.062963067
v -6.708951395 2.25 13.062963067
vn 0.342020143 0 -0.939692621
f 1012//338 1013//338 1014//338
v -5.58132025 2 13.473387239
v -6.708951395 2.25 13.062963067
v -5.58132025 2.25 13.473387239
vn 0.342020143 0 -0.939692621
f 1015//339 1016//339 1017//339
v -5.756605573 2.25 13.954979708
v -6.884236718 2.25 13.544555536
v -6.884236718 2.5 13.544555536
vn 0.342020143 0 -0.939692621
f 1018//340 1019//340 1020//340
v -5.756605573 2.25 13.954979708
v -6.884236718 2.5 13.544555536
v -5.756605573 2.5 13.954979708
vn 0.342020143 0 -0.939692621
f 1021//341 1022//341 1023//341
v -6.708951395 2 13.062963067
v -6.884236718 2 13.544555536
v -6.884236718 2.25 13.544555536
vn -0.939692621 0 -0.342020143
f 1024//342 1025//342 1026//342
v -6.708951395 2 13.062963067
v -6.884236718 2.25 13.544555536
v -6.708951395 2.25 13.062963067
vn -0.939692621 0 -0.342020143
f 1027//343 1028//343 1029//343
v -6.884236718 2 13.544555536
v -7.059522042 2 14.026148004
v -6.884236718 2.25 13.544555536
vn -0.939692621 0 -0.342020143
f 1030//344 1031//344 1032//344
v -7.059522042 2 14.026148004
v -7.059522042 2.5 14.026148004
v -6.884236718 2.25 13.544555536
vn -0.939692621 0 -0.342020143
f 1033//345 1034//345 1035//345
v -7.059522042 2.5 14.026148004
v -6.884236718 2.5 13.544555536
v -6.884236718 2.25 13.544555536
vn -0.939692621 0 -0.342020143
f 1036//346 1037//346 1038//346
v -5.756605573 2 13.954979708
v -5.58132025 2 13.473387239
v -5.58132025 2.25 13.473387239
vn 0.939692621 0 0.342020143
f 1039//347 1040//347 1041//347
v -5.756605573 2 13.954979708
v -5.58132025 2.25 13.473387239
v -5.756605573 2.25 13.954979708
vn 0.939692621 0 0.342020143
f 1042//348 1043//348 1044//348
v -5.756605573 2 13.954979708
v -5.756605573 2.25 13.954979708
v -5.931890897 2 14.436572176
vn 0.939692621 0 0.342020143
f 1045//349 1046//349 1047//349
v -5.931890897 2 14.436572176
v -5.756605573 2.25 13.954979708
v -5.931890897 2.5 14.436572176
vn 0.939692621 0 0.342020143
f 1048//350 1049//350 1050//350
v -5.931890897 2.5 14.436572176
v -5.756605573 2.25 13.954979708
v -5.756605573 2.5 13.954979708
vn 0.939692621 0 0.342020143
f 1051//351 1052//351 1053//351
v -0.6 2.25 14.864228399
v 0.6 2.25 14.351728399
v -0.6 2.25 14.351728399
vn 0 1 0
f 1054//352 1055//352 1056//352
v 0.6 2.25 14.351728399
v -0.6 2.25 14.864228399
v 0.6 2.25 14.864228399
vn 0 1 0
f 1057//353 1058//353 1059//353
v -0.6 2.5 15.376728399
v 0.6 2.5 14.864228399
v -0.6 2.5 14.864228399
vn 0 1 0
f 1060//354 1061//354 1062//354
v 0.6 2.5 14.864228399
v -0.6 2.5 15.376728399
v 0.6 2.5 15.376728399
vn 0 1 0
f 1063//355 1064//355 1065//355
v 0.6 2 14.351728399
v -0.6 2 14.351728399
v -0.6 2.25 14.351728399
vn 0 0 -1
f 1066//356 1067//356 1068//356
v 0.6 2 14.351728399
v -0.6 2.25 14.351728399
v 0.6 2.25 14.351728399
vn 0 0 -1
f 1069//357 1070//357 1071//357
v 0.6 2.25 14.864228399
v -0.6 2.25 14.864228399
v -0.6 2.5 14.864228399
vn 0 0 -1
f 1072//358 1073//358 1074//358
v 0.6 2.25 14.864228399
v -0.6 2.5 14.864228399
v 0.6 2.5 14.864228399
vn 0 0 -1
f 1075//359 1076//359 1077//359
v -0.6 2 14.351728399
v -0.6 2 14.864228399
v -0.6 2.25 14.864228399
vn -1 0 0
f 1078//360 1079//360 1080//360
v -0.6 2 14.351728399
v -0.6 2.25 14.864228399
v -0.6 2.25 14.351728399
vn -1 0 0
f 1081//361 1082//361 1083//361
v -0.6 2 14.864228399
v -0.6 2 15.376728399
v -0.6 2.25 14.864228399
vn -1 0 0
f 1084//362 1085//362 1086//362
v -0.6 2 15.376728399
v -0.6 2.5 15.376728399
v -0.6 2.25 14.864228399
vn -1 0 0
f 1087//363 1088//363 1089//363
v -0.6 2.5 15.376728399
v -0.6 2.5 14.864228399
v -0.6 2.25 14.864228399
vn -1 0 0
f 1090//364 1091//364 1092//364
v 0.6 2 14.864228399
v 0.6 2 14.351728399
v 0.6 2.25 14.351728399
vn 1 0 0
f 1093//365 1094//365 1095//365
v 0.6 2 14.864228399
v 0.6 2.25 14.351728399
v 0.6 2.25 14.864228399
vn 1 0 0
f 1096//366 1097//366 1098//366
v 0.6 2 14.864228399
v 0.6 2.25 14.864228399
v 0.6 2 15.376728399
vn 1 0 0
f 1099//367 1100//367 1101//367
v 0.6 2 15.376728399
v 0.6 2.25 14.864228399
v 0.6 2.5 15.376728399
vn 1 0 0
f 1102//368 1103//368 1104//368
v 0.6 2.5 15.376728399
v 0.6 2.25 14.864228399
v 0.6 2.5 14.864228399
vn 1 0 0
f 1105//369 1106//369 1107//369
v 5.756605573 2.25 13.954979708
v 6.708951395 2.25 13.062963067
v 5.58132025 2.25 13.473387239
vn 0 1 0
f 1108//370 1109//370 1110//370
v 6.708951395 2.25 13.062963067
v 5.756605573 2.25 13.954979708
v 6.884236718 2.25 13.544555536
vn 0 1 0
f 1111//371 1112//371 1113//371
v 5.931890897 2.5 14.436572176
v 6.884236718 2.5 13.544555536
v 5.756605573 2.5 13.954979708
vn 0 1 0
f 1114//372 1115//372 1116//372
v 6.884236718 2.5 13.544555536
v 5.931890897 2.5 14.436572176
v 7.059522042 2.5 14.026148004
vn 0 1 0
f 1117//373 1118//373 1119//373
v 6.708951395 2 13.062963067
v 5.58132025 2 13.473387239
v 5.58132025 2.25 13.473387239
vn -0.342020143 0 -0.939692621
f 1120//374 1121//374 1122//374
v 6.708951395 2 13.062963067
v 5.58132025 2.25 13.473387239
v 6.708951395 2.25 13.062963067
vn -0.342020143 0 -0.939692621
f 1123//375 1124//375 1125//375
v 6.884236718 2.25 13.544555536
v 5.756605573 2.25 13.954979708
v 5.756605573 2.5 13.954979708
vn -0.342020143 0 -0.939692621
f 1126//376 1127//376 1128//376
v 6.884236718 2.25 13.544555536
v 5.756605573 2.5 13.954979708
v 6.884236718 2.5 13.544555536
vn -0.342020143 0 -0.939692621
f 1129//377 1130//377 1131//377
v 5.58132025 2 13.473387239
v 5.756605573 2 13.954979708
v 5.756605573 2.25 13.954979708
vn -0.939692621 0 0.342020143
f 1132//378 1133//378 1134//378
v 5.58132025 2 13.473387239
v 5.756605573 2.25 13.954979708
v 5.58132025 2.25 13.473387239
vn -0.939692621 0 0.342020143
f 1135//379 1136//379 1137//379
v 5.756605573 2 13.954979708
v 5.931890897 2 14.436572176
v 5.756605573 2.25 13.954979708
vn -0.939692621 0 0.342020143
f 1138//380 1139//380 1140//380
v 5.931890897 2 14.436572176
v 5.931890897 2.5 14.436572176
v 5.756605573 2.25 13.954979708
vn -0.939692621 0 0.342020143
f 1141//381 1142//381 1143//381
v 5.931890897 2.5 14.436572176
v 5.756605573 2.5 13.954979708
v 5.756605573 2.25 13.954979708
vn -0.939692621 0 0.342020143
f 1144//382 1145//382 1146//382
v 6.884236718 2 13.544555536
v 6.708951395 2 13.062963067
v 6.708951395 2.25 13.062963067
vn 0.939692621 0 -0.342020143
f 1147//383 1148//383 1149//383
v 6.884236718 2 13.544555536
v 6.708951395 2.25 13.062963067
v 6.884236718 2.25 13.544555536
vn 0.939692621 0 -0.342020143
f 1150//384 1151//384 1152//384
v 6.884236718 2 13.544555536
v 6.884236718 2.25 13.544555536
v 7.059522042 2 14.026148004
vn 0.939692621 0 -0.342020143
f 1153//385 1154//385 1155//385
v 7.059522042 2 14.026148004
v 6.884236718 2.25 13.544555536
v 7.059522042 2.5 14.026148004
vn 0.939692621 0 -0.342020143
f 1156//386 1157//386 1158//386
v 7.059522042 2.5 14.026148004
v 6.884236718 2.25 13.544555536
v 6.884236718 2.5 13.544555536
vn 0.939692621 0 -0.342020143
f 1159//387 1160//387 1161//387
v 11.209665516 2.25 11.340639483
v 11.855746422 2.25 10.286665711
v 10.923079153 2.25 10.915757727
vn 0 1 0
f 1162//388 1163//388 1164//388
v 11.855746422 2.25 10.286665711
v 11.209665516 2.25 11.340639483
v 12.142332785 2.25 10.711547467
vn 0 1 0
f 1165//389 1166//389 1167//389
v 11.496251879 2.5 11.765521239
v 12.142332785 2.5 10.711547467
v 11.209665516 2.5 11.340639483
vn 0 1 0
f 1168//390 1169//390 1170//390
v 12.142332785 2.5 10.711547467
v 11.496251879 2.5 11.765521239
v 12.428919148 2.5 11.136429223
vn 0 1 0
f 1171//391 1172//391 1173//391
v 11.855746422 2 10.286665711
v 10.923079153 2 10.915757727
v 10.923079153 2.25 10.915757727
vn -0.559192903 0 -0.829037573
f 1174//392 1175//392 1176//392
v 11.855746422 2 10.286665711
v 10.923079153 2.25 10.915757727
v 11.855746422 2.25 10.286665711
vn -0.559192903 0 -0.829037573
f 1177//393 1178//393 1179//393
v 12.142332785 2.25 10.711547467
v 11.209665516 2.25 11.340639483
v 11.209665516 2.5 11.340639483
vn -0.559192903 0 -0.829037573
f 1180//394 1181//394 1182//394
v 12.142332785 2.25 10.711547467
v 11.209665516 2.5 11.340639483
v 12.142332785 2.5 10.711547467
vn -0.559192903 0 -0.829037573
f 1183//395 1184//395 1185//395
v 10.923079153 2 10.915757727
v 11.209665516 2 11.340639483
v 11.209665516 2.25 11.340639483
vn -0.829037573 0 0.559192903
f 1186//396 1187//396 1188//396
v 10.923079153 2 10.915757727
v 11.209665516 2.25 11.340639483
v 10.923079153 2.25 10.915757727
vn -0.829037573 0 0.559192903
f 1189//397 1190//397 1191//397
v 11.209665516 2 11.340639483
v 11.496251879 2 11.765521239
v 11.209665516 2.25 11.340639483
vn -0.829037573 0 0.559192903
f 1192//398 1193//398 1194//398
v 11.496251879 2 11.765521239
v 11.496251879 2.5 11.765521239
v 11.209665516 2.25 11.340639483
vn -0.829037573 0 0.559192903
f 1195//399 1196//399 1197//399
v 11.496251879 2.5 11.765521239
v 11.209665516 2.5 11.340639483
v 11.209665516 2.25 11.340639483
vn -0.829037573 0 0.559192903
f 1198//400 1199//400 1200//400
o Treads06
g Treads06
usemtl Treads06
v -13.288678237 2.75 12.41107449
v -12.069424605 2.75 12.615284751
v -13.002091874 2.75 11.986192734
vn 0 1 0
f 1201//401 1202//401 1203//401
v -12.069424605 2.75 12.615284751
v -13.288678237 2.75 12.41107449
v -12.356010968 2.75 13.040166507
vn 0 1 0
f 1204//402 1205//402 1206//402
v -13.5752646 3 12.835956246
v -12.356010968 3 13.040166507
v -13.288678237 3 12.41107449
vn 0 1 0
f 1207//403 1208//403 1209//403
v -12.356010968 3 13.040166507
v -13.5752646 3 12.835956246
v -12.642597331 3 13.465048263
vn 0 1 0
f 1210//404 1211//404 1212//404
v -12.069424605 2.5 12.615284751
v -13.002091874 2.5 11.986192734
v -13.002091874 2.75 11.986192734
vn 0.559192903 0 -0.829037573
f 1213//405 1214//405 1215//405
v -12.069424605 2.5 12.615284751
v -13.002091874 2.75 11.986192734
v -12.069424605 2.75 12.615284751
vn 0.559192903 0 -0.829037573
f 1216//406 1217//406 1218//406
v -12.356010968 2.75 13.040166507
v -13.288678237 2.75 12.41107449
v -13.288678237 3 12.41107449
vn 0.559192903 0 -0.829037573
f 1219//407 1220//407 1221//407
v -12.356010968 2.75 13.040166507
v -13.288678237 3 12.41107449
v -12.356010968 3 13.040166507
vn 0.559192903 0 -0.829037573
f 1222//408 1223//408 1224//408
v -12.356010968 2.5 13.040166507
v -12.069424605 2.5 12.615284751
v -12.069424605 2.75 12.615284751
vn 0.829037573 0 0.559192903
f 1225//409 1226//409 1227//409
v -12.356010968 2.5 13.040166507
v -12.069424605 2.75 12.615284751
v -12.356010968 2.75 13.040166507
vn 0.829037573 0 0.559192903
f 1228//410 1229//410 1230//410
v -12.356010968 2.5 13.040166507
v -12.356010968 2.75 13.040166507
v -12.642597331 2.5 13.465048263
vn 0.829037573 0 0.559192903
f 1231//411 1232//411 1233//411
v -12.642597331 2.5 13.465048263
v -12.356010968 2.75 13.040166507
v -12.642597331 3 13.465048263
vn 0.829037573 0 0.559192903
f 1234//412 1235//412 1236//412
v -12.642597331 3 13.465048263
v -12.356010968 2.75 13.040166507
v -12.356010968 3 13.040166507
vn 0.829037573 0 0.559192903
f 1237//413 1238//413 1239//413
v -7.585378012 2.75 15.470925408
v -6.282461544 2.75 15.399757112
v -7.410092688 2.75 14.98933294
vn 0 1 0
f 1240//414 1241//414 1242//414
v -6.282461544 2.75 15.399757112
v -7.585378012 2.75 15.470925408
v -6.457746867 2.75 15.88134958
vn 0 1 0
f 1243//415 1244//415 1245//415
v -7.760663335 3 15.952517876
v -6.457746867 3 15.88134958
v -7.585378012 3 15.470925408
vn 0 1 0
f 1246//416 1247//416 1248//416
v -6.457746867 3 15.88134958
v -7.760663335 3 15.952517876
v -6.63303219 3 16.362942048
vn 0 1 0
f 1249//417 1250//417 1251//417
v -6.282461544 2.5 15.399757112
v -7.410092688 2.5 14.98933294
v -7.410092688 2.75 14.98933294
vn 0.342020143 0 -0.939692621
f 1252//418 1253//418 1254//418
v -6.282461544 2.5 15.399757112
v -7.410092688 2.75 14.98933294
v -6.282461544 2.75 15.399757112
vn 0.342020143 0 -0.939692621
f 1255//419 1256//419 1257//419
v -6.457746867 2.75 15.88134958
v -7.585378012 2.75 15.470925408
v -7.585378012 3 15.470925408
vn 0.342020143 0 -0.939692621
f 1258//420 1259//420 1260//420
v -6.457746867 2.75 15.88134958
v -7.585378012 3 15.470925408
v -6.457746867 3 15.88134958
vn 0.342020143 0 -0.939692621
f 1261//421 1262//421 1263//421
v -7.410092688 2.5 14.98933294
v -7.585378012 2.5 15.470925408
v -7.585378012 2.75 15.470925408
vn -0.939692621 0 -0.342020143
f 1264//422 1265//422 1266//422
v -7.410092688 2.5 14.98933294
v -7.585378012 2.75 15.470925408
v -7.410092688 2.75 14.98933294
vn -0.939692621 0 -0.342020143
f 1267//423 1268//423 1269//423
v -7.585378012 2.5 15.470925408
v -7.760663335 2.5 15.952517876
v -7.585378012 2.75 15.470925408
vn -0.939692621 0 -0.342020143
f 1270//424 1271//424 1272//424
v -7.760663335 2.5 15.952517876
v -7.760663335 3 15.952517876
v -7.585378012 2.75 15.470925408
vn -0.939692621 0 -0.342020143
f 1273//425 1274//425 1275//425
v -7.760663335 3 15.952517876
v -7.585378012 3 15.470925408
v -7.585378012 2.75 15.470925408
vn -0.939692621 0 -0.342020143
f 1276//426 1277//426 1278//426
v -6.457746867 2.5 15.88134958
v -6.282461544 2.5 15.399757112
v -6.282461544 2.75 15.399757112
vn 0.939692621 0 0.342020143
f 1279//427 1280//427 1281//427
v -6.457746867 2.5 15.88134958
v -6.282461544 2.75 15.399757112
v -6.457746867 2.75 15.88134958
vn 0.939692621 0 0.342020143
f 1282//428 1283//428 1284//428
v -6.457746867 2.5 15.88134958
v -6.457746867 2.75 15.88134958
v -6.63303219 2.5 16.362942048
vn 0.939692621 0 0.342020143
f 1285//429 1286//429 1287//429
v -6.63303219 2.5 16.362942048
v -6.457746867 2.75 15.88134958
v -6.63303219 3 16.362942048
vn 0.939692621 0 0.342020143
f 1288//430 1289//430 1290//430
v -6.63303219 3 16.362942048
v -6.457746867 2.75 15.88134958
v -6.457746867 3 15.88134958
vn 0.939692621 0 0.342020143
f 1291//431 1292//431 1293//431
v -0.6 2.75 16.914228399
v 0.6 2.75 16.401728399
v -0.6 2.75 16.401728399
vn 0 1 0
f 1294//432 1295//432 1296//432
v 0.6 2.75 16.401728399
v -0.6 2.75 16.914228399
v 0.6 2.75 16.914228399
vn 0 1 0
f 1297//433 1298//433 1299//433
v -0.6 3 17.426728399
v 0.6 3 16.914228399
v -0.6 3 16.914228399
vn 0 1 0
f 1300//434 1301//434 1302//434
v 0.6 3 16.914228399
v -0.6 3 17.426728399
v 0.6 3 17.426728399
vn 0 1 0
f 1303//435 1304//435 1305//435
v 0.6 2.5 16.401728399
v -0.6 2.5 16.401728399
v -0.6 2.75 16.401728399
vn 0 0 -1
f 1306//436 1307//436 1308//436
v 0.6 2.5 16.401728399
v -0.6 2.75 16.401728399
v 0.6 2.75 16.401728399
vn 0 0 -1
f 1309//437 1310//437 1311//437
v 0.6 2.75 16.914228399
v -0.6 2.75 16.914228399
v -0.6 3 16.914228399
vn 0 0 -1
f 1312//438 1313//438 1314//438
v 0.6 2.75 16.914228399
v -0.6 3 16.914228399
v 0.6 3 16.914228399
vn 0 0 -1
f 1315//439 1316//439 1317//439
v -0.6 2.5 16.401728399
v -0.6 2.5 16.914228399
v -0.6 2.75 16.914228399
vn -1 0 0
f 1318//440 1319//440 1320//440
v -0.6 2.5 16.401728399
v -0.6 2.75 16.914228399
v -0.6 2.75 16.401728399
vn -1 0 0
f 1321//441 1322//441 1323//441
v -0.6 2.5 16.914228399
v -0.6 2.5 17.426728399
v -0.6 2.75 16.914228399
vn -1 0 0
f 1324//442 1325//442 1326//442
v -0.6 2.5 17.426728399
v -0.6 3 17.426728399
v -0.6 2.75 16.914228399
vn -1 0 0
f 1327//443 1328//443 1329//443
v -0.6 3 17.426728399
v -0.6 3 16.914228399
v -0.6 2.75 16.914228399
vn -1 0 0
f 1330//444 1331//444 1332//444
v 0.6 2.5 16.914228399
v 0.6 2.5 16.401728399
v 0.6 2.75 16.401728399
vn 1 0 0
f 1333//445 1334//445 1335//445
v 0.6 2.5 16.914228399
v 0.6 2.75 16.401728399
v 0.6 2.75 16.914228399
vn 1 0 0
f 1336//446 1337//446 1338//446
v 0.6 2.5 16.914228399
v 0.6 2.75 16.914228399
v 0.6 2.5 17.426728399
vn 1 0 0
f 1339//447 1340//447 1341//447
v 0.6 2.5 17.426728399
v 0.6 2.75 16.914228399
v 0.6 3 17.426728399
vn 1 0 0
f 1342//448 1343//448 1344//448
v 0.6 3 17.426728399
v 0.6 2.75 16.914228399
v 0.6 3 16.914228399
vn 1 0 0
f 1345//449 1346//449 1347//449
v 6.457746867 2.75 15.88134958
v 7.410092688 2.75 14.98933294
v 6.282461544 2.75 15.399757112
vn 0 1 0
f 1348//450 1349//450 1350//450
v 7.410092688 2.75 14.98933294
v 6.457746867 2.75 15.88134958
v 7.585378012 2.75 15.470925408
vn 0 1 0
f 1351//451 1352//451 1353//451
v 6.63303219 3 16.362942048
v 7.585378012 3 15.470925408
v 6.457746867 3 15.88134958
vn 0 1 0
f 1354//452 1355//452 1356//452
v 7.585378012 3 15.470925408
v 6.63303219 3 16.362942048
v 7.760663335 3 15.952517876
vn 0 1 0
f 1357//453 1358//453 1359//453
v 7.410092688 2.5 14.98933294
v 6.282461544 2.5 15.399757112
v 6.282461544 2.75 15.399757112
vn -0.342020143 0 -0.939692621
f 1360//454 1361//454 1362//454
v 7.410092688 2.5 14.98933294
v 6.282461544 2.75 15.399757112
v 7.410092688 2.75 14.98933294
vn -0.342020143 0 -0.939692621
f 1363//455 1364//455 1365//455
v 7.585378012 2.75 15.470925408
v 6.457746867 2.75 15.88134958
v 6.457746867 3 15.88134958
vn -0.342020143 0 -0.939692621
f 1366//456 1367//456 1368//456
v 7.585378012 2.75 15.470925408
v 6.457746867 3 15.88134958
v 7.585378012 3 15.470925408
vn -0.342020143 0 -0.939692621
f 1369//457 1370//457 1371//457
v 6.282461544 2.5 15.399757112
v 6.457746867 2.5 15.88134958
v 6.457746867 2.75 15.88134958
vn -0.939692621 0 0.342020143
f 1372//458 1373//458 1374//458
v 6.282461544 2.5 15.399757112
v 6.457746867 2.75 15.88134958
v 6.282461544 2.75 15.399757112
vn -0.939692621 0 0.342020143
f 1375//459 1376//459 1377//459
v 6.457746867 2.5 15.88134958
v 6.63303219 2.5 16.362942048
v 6.457746867 2.75 15.88134958
vn -0.939692621 0 0.342020143
f 1378//460 1379//460 1380//460
v 6.63303219 2.5 16.362942048
v 6.63303219 3 16.362942048
v 6.457746867 2.75 15.88134958
vn -0.939692621 0 0.342020143
f 1381//461 1382//461 1383//461
v 6.63303219 3 16.362942048
v 6.457746867 3 15.88134958
v 6.457746867 2.75 15.88134958
vn -0.939692621 0 0.342020143
f 1384//462 1385//462 1386//462
v 7.585378012 2.5 15.470925408
v 7.410092688 2.5 14.98933294
v 7.410092688 2.75 14.98933294
vn 0.939692621 0 -0.342020143
f 1387//463 1388//463 1389//463
v 7.585378012 2.5 15.470925408
v 7.410092688 2.75 14.98933294
v 7.585378012 2.75 15.470925408
vn 0.939692621 0 -0.342020143
f 1390//464 1391//464 1392//464
v 7.585378012 2.5 15.470925408
v 7.585378012 2.75 15.470925408
v 7.760663335 2.5 15.952517876
vn 0.939692621 0 -0.342020143
f 1393//465 1394//465 1395//465
v 7.760663335 2.5 15.952517876
v 7.585378012 2.75 15.470925408
v 7.760663335 3 15.952517876
vn 0.939692621 0 -0.342020143
f 1396//466 1397//466 1398//466
v 7.760663335 3 15.952517876
v 7.585378012 2.75 15.470925408
v 7.585378012 3 15.470925408
vn 0.939692621 0 -0.342020143
f 1399//467 1400//467 1401//467
v 12.356010968 2.75 13.040166507
v 13.002091874 2.75 11.986192734
v 12.069424605 2.75 12.615284751
vn 0 1 0
f 1402//468 1403//468 1404//468
v 13.002091874 2.75 11.986192734
v 12.356010968 2.75 13.040166507
v 13.288678237 2.75 12.41107449
vn 0 1 0
f 1405//469 1406//469 1407//469
v 12.642597331 3 13.465048263
v 13.288678237 3 12.41107449
v 12.356010968 3 13.040166507
vn 0 1 0
f 1408//470 1409//470 1410//470
v 13.288678237 3 12.41107449
v 12.642597331 3 13.465048263
v 13.5752646 3 12.835956246
vn 0 1 0
f 1411//471 1412//471 1413//471
v 13.002091874 2.5 11.986192734
v 12.069424605 2.5 12.615284751
v 12.069424605 2.75 12.615284751
vn -0.559192903 0 -0.829037573
f 1414//472 1415//472 1416//472
v 13.002091874 2.5 11.986192734
v 12.069424605 2.75 12.615284751
v 13.002091874 2.75 11.986192734
vn -0.559192903 0 -0.829037573
f 1417//473 1418//473 1419//473
v 13.288678237 2.75 12.41107449
v 12.356010968 2.75 13.040166507
v 12.356010968 3 13.040166507
vn -0.559192903 0 -0.829037573
f 1420//474 1421//474 1422//474
v 13.288678237 2.75 12.41107449
v 12.356010968 3 13.040166507
v 13.288678237 3 12.41107449
vn -0.559192903 0 -0.829037573
f 1423//475 1424//475 1425//475
v 12.069424605 2.5 12.615284751
v 12.356010968 2.5 13.040166507
v 12.356010968 2.75 13.040166507
vn -0.829037573 0 0.559192903
f 1426//476 1427//476 1428//476
v 12.069424605 2.5 12.615284751
v 12.356010968 2.75 13.040166507
v 12.069424605 2.75 12.615284751
vn -0.829037573 0 0.559192903
f 1429//477 1430//477 1431//477
v 12.356010968 2.5 13.040166507
v 12.642597331 2.5 13.465048263
v 12.356010968 2.75 13.040166507
vn -0.829037573 0 0.559192903
f 1432//478 1433//478 1434//478
v 12.642597331 2.5 13.465048263
v 12.642597331 3 13.465048263
v 12.356010968 2.75 13.040166507
vn -0.829037573 0 0.559192903
f 1435//479 1436//479 1437//479
v 12.642597331 3 13.465048263
v 12.356010968 3 13.040166507
v 12.356010968 2.75 13.040166507
vn -0.829037573 0 0.559192903
f 1438//480 1439//480 1440//480
