# Deterministic B202 final layout
o Ceiling
g Ceiling
usemtl Ceiling
v -6.697191888 7.2 2.638794104
v -4 7.2 -0.85
v 4 7.2 -0.85
vn 0 -1 0
f 1//1 2//1 3//1
v -6.697191888 7.2 2.638794104
v 4 7.2 -0.85
v 6.697191888 7.2 2.638794104
vn 0 -1 0
f 4//2 5//2 6//2
v -6.697191888 7.2 2.638794104
v 6.697191888 7.2 2.638794104
v 7.84353734 7.2 4.338321128
vn 0 -1 0
f 7//3 8//3 9//3
v -6.697191888 7.2 2.638794104
v 7.84353734 7.2 4.338321128
v 8.989882792 7.2 6.037848151
vn 0 -1 0
f 10//4 11//4 12//4
v -6.697191888 7.2 2.638794104
v 8.989882792 7.2 6.037848151
v 10.136228244 7.2 7.737375175
vn 0 -1 0
f 13//5 14//5 15//5
v -6.697191888 7.2 2.638794104
v 10.136228244 7.2 7.737375175
v 11.282573696 7.2 9.436902199
vn 0 -1 0
f 16//6 17//6 18//6
v -6.697191888 7.2 2.638794104
v 11.282573696 7.2 9.436902199
v 12.428919148 7.2 11.136429223
vn 0 -1 0
f 19//7 20//7 21//7
v -6.697191888 7.2 2.638794104
v 12.428919148 7.2 11.136429223
v 13.5752646 7.2 12.835956246
vn 0 -1 0
f 22//8 23//8 24//8
v -6.697191888 7.2 2.638794104
v 13.5752646 7.2 12.835956246
v 18.744727386 7.2 20.5
vn 0 -1 0
f 25//9 26//9 27//9
v 18.744727386 7.2 20.5
v -18.744727386 7.2 20.5
v -13.5752646 7.2 12.835956246
vn 0 -1 0
f 28//10 29//10 30//10
v 18.744727386 7.2 20.5
v -13.5752646 7.2 12.835956246
v -12.428919148 7.2 11.136429223
vn 0 -1 0
f 31//11 32//11 33//11
v 18.744727386 7.2 20.5
v -12.428919148 7.2 11.136429223
v -11.282573696 7.2 9.436902199
vn 0 -1 0
f 34//12 35//12 36//12
v 18.744727386 7.2 20.5
v -11.282573696 7.2 9.436902199
v -10.136228244 7.2 7.737375175
vn 0 -1 0
f 37//13 38//13 39//13
v 18.744727386 7.2 20.5
v -10.136228244 7.2 7.737375175
v -8.989882792 7.2 6.037848151
vn 0 -1 0
f 40//14 41//14 42//14
v 18.744727386 7.2 20.5
v -8.989882792 7.2 6.037848151
v -7.84353734 7.2 4.338321128
vn 0 -1 0
f 43//15 44//15 45//15
v 18.744727386 7.2 20.5
v -7.84353734 7.2 4.338321128
v -6.697191888 7.2 2.638794104
vn 0 -1 0
f 46//16 47//16 48//16
