# Deterministic B202 final layout
o LowestFloor
g LowestFloor
usemtl LowestFloor
v -6.697191888 0 2.638794104
v 4 0 -0.85
v -4 0 -0.85
vn 0 1 0
f 1//1 2//1 3//1
v -6.697191888 0 2.638794104
v 6.697191888 0 2.638794104
v 4 0 -0.85
vn 0 1 0
f 4//2 5//2 6//2
v -6.697191888 0 2.638794104
v 5.764524619 0 3.26788612
v 6.697191888 0 2.638794104
vn 0 1 0
f 7//3 8//3 9//3
v -6.697191888 0 2.638794104
v 3.553815572 0 4.394298641
v 5.764524619 0 3.26788612
vn 0 1 0
f 10//4 11//4 12//4
v -6.697191888 0 2.638794104
v 2.426184428 0 4.804722813
v 3.553815572 0 4.394298641
vn 0 1 0
f 13//5 14//5 15//5
v -6.697191888 0 2.638794104
v 0.6 0 5.126728399
v 2.426184428 0 4.804722813
vn 0 1 0
f 16//6 17//6 18//6
v -6.697191888 0 2.638794104
v -0.6 0 5.126728399
v 0.6 0 5.126728399
vn 0 1 0
f 19//7 20//7 21//7
v -6.697191888 0 2.638794104
v -2.426184428 0 4.804722813
v -0.6 0 5.126728399
vn 0 1 0
f 22//8 23//8 24//8
v -6.697191888 0 2.638794104
v -3.553815572 0 4.394298641
v -2.426184428 0 4.804722813
vn 0 1 0
f 25//9 26//9 27//9
v -3.553815572 0 4.394298641
v -6.697191888 0 2.638794104
v -5.764524619 0 3.26788612
vn 0 1 0
f 28//10 29//10 30//10
v -7.270364614 0 3.488557616
v -5.764524619 0 3.26788612
v -6.697191888 0 2.638794104
vn 0 1 0
f 31//11 32//11 33//11
v -5.764524619 0 3.26788612
v -7.270364614 0 3.488557616
v -6.337697345 0 4.117649632
vn 0 1 0
f 34//12 35//12 36//12
v -6.337697345 0 4.117649632
v -3.553815572 0 4.394298641
v -5.764524619 0 3.26788612
vn 0 1 0
f 37//13 38//13 39//13
v -6.337697345 0 4.117649632
v -3.904386219 0 5.357483577
v -3.553815572 0 4.394298641
vn 0 1 0
f 40//14 41//14 42//14
v -6.337697345 0 4.117649632
v -4.254956866 0 6.320668513
v -3.904386219 0 5.357483577
vn 0 1 0
f 43//15 44//15 45//15
v -4.254956866 0 6.320668513
v -6.337697345 0 4.117649632
v -6.910870071 0 4.967413144
vn 0 1 0
f 46//16 47//16 48//16
v -3.904386219 0 5.357483577
v -2.426184428 0 4.804722813
v -3.553815572 0 4.394298641
vn 0 1 0
f 49//17 50//17 51//17
v -2.426184428 0 4.804722813
v -3.904386219 0 5.357483577
v -2.776755074 0 5.767907749
vn 0 1 0
f 52//18 53//18 54//18
v -2.776755074 0 5.767907749
v -0.6 0 5.126728399
v -2.426184428 0 4.804722813
vn 0 1 0
f 55//19 56//19 57//19
v -2.776755074 0 5.767907749
v -0.6 0 6.151728399
v -0.6 0 5.126728399
vn 0 1 0
f 58//20 59//20 60//20
v -2.776755074 0 5.767907749
v -0.6 0 7.176728399
v -0.6 0 6.151728399
vn 0 1 0
f 61//21 62//21 63//21
v -0.6 0 7.176728399
v -2.776755074 0 5.767907749
v -3.127325721 0 6.731092685
vn 0 1 0
f 64//22 65//22 66//22
v -0.6 0 6.151728399
v 0.6 0 5.126728399
v -0.6 0 5.126728399
vn 0 1 0
f 67//23 68//23 69//23
v 0.6 0 5.126728399
v -0.6 0 6.151728399
v 0.6 0 6.151728399
vn 0 1 0
f 70//24 71//24 72//24
v 0.6 0 6.151728399
v 2.426184428 0 4.804722813
v 0.6 0 5.126728399
vn 0 1 0
f 73//25 74//25 75//25
v 0.6 0 6.151728399
v 2.776755074 0 5.767907749
v 2.426184428 0 4.804722813
vn 0 1 0
f 76//26 77//26 78//26
v 0.6 0 6.151728399
v 3.127325721 0 6.731092685
v 2.776755074 0 5.767907749
vn 0 1 0
f 79//27 80//27 81//27
v 3.127325721 0 6.731092685
v 0.6 0 6.151728399
v 0.6 0 7.176728399
vn 0 1 0
f 82//28 83//28 84//28
v 2.776755074 0 5.767907749
v 3.553815572 0 4.394298641
v 2.426184428 0 4.804722813
vn 0 1 0
f 85//29 86//29 87//29
v 3.553815572 0 4.394298641
v 2.776755074 0 5.767907749
v 3.904386219 0 5.357483577
vn 0 1 0
f 88//30 89//30 90//30
v 3.904386219 0 5.357483577
v 5.764524619 0 3.26788612
v 3.553815572 0 4.394298641
vn 0 1 0
f 91//31 92//31 93//31
v 3.904386219 0 5.357483577
v 6.337697345 0 4.117649632
v 5.764524619 0 3.26788612
vn 0 1 0
f 94//32 95//32 96//32
v 3.904386219 0 5.357483577
v 6.910870071 0 4.967413144
v 6.337697345 0 4.117649632
vn 0 1 0
f 97//33 98//33 99//33
v 6.910870071 0 4.967413144
v 3.904386219 0 5.357483577
v 4.254956866 0 6.320668513
vn 0 1 0
f 100//34 101//34 102//34
v 6.337697345 0 4.117649632
v 6.697191888 0 2.638794104
v 5.764524619 0 3.26788612
vn 0 1 0
f 103//35 104//35 105//35
v 6.697191888 0 2.638794104
v 6.337697345 0 4.117649632
v 7.270364614 0 3.488557616
vn 0 1 0
f 106//36 107//36 108//36
o Terrace02
g Terrace02
usemtl Terrace02
v -8.416710066 0.5 5.188084639
v -6.910870071 0.5 4.967413144
v -7.84353734 0.5 4.338321128
vn 0 1 0
f 109//37 110//37 111//37
v -6.910870071 0.5 4.967413144
v -8.416710066 0.5 5.188084639
v -7.484042797 0.5 5.817176656
vn 0 1 0
f 112//38 113//38 114//38
v -7.484042797 0.5 5.817176656
v -4.254956866 0.5 6.320668513
v -6.910870071 0.5 4.967413144
vn 0 1 0
f 115//39 116//39 117//39
v -7.484042797 0.5 5.817176656
v -4.605527513 0.5 7.28385345
v -4.254956866 0.5 6.320668513
vn 0 1 0
f 118//40 119//40 120//40
v -7.484042797 0.5 5.817176656
v -4.95609816 0.5 8.247038386
v -4.605527513 0.5 7.28385345
vn 0 1 0
f 121//41 122//41 123//41
v -4.95609816 0.5 8.247038386
v -7.484042797 0.5 5.817176656
v -8.057215523 0.5 6.666940168
vn 0 1 0
f 124//42 125//42 126//42
v -4.605527513 0.5 7.28385345
v -3.127325721 0.5 6.731092685
v -4.254956866 0.5 6.320668513
vn 0 1 0
f 127//43 128//43 129//43
v -3.127325721 0.5 6.731092685
v -4.605527513 0.5 7.28385345
v -3.477896368 0.5 7.694277622
vn 0 1 0
f 130//44 131//44 132//44
v -3.477896368 0.5 7.694277622
v -0.6 0.5 7.176728399
v -3.127325721 0.5 6.731092685
vn 0 1 0
f 133//45 134//45 135//45
v -3.477896368 0.5 7.694277622
v -0.6 0.5 8.201728399
v -0.6 0.5 7.176728399
vn 0 1 0
f 136//46 137//46 138//46
v -3.477896368 0.5 7.694277622
v -0.6 0.5 9.226728399
v -0.6 0.5 8.201728399
vn 0 1 0
f 139//47 140//47 141//47
v -0.6 0.5 9.226728399
v -3.477896368 0.5 7.694277622
v -3.828467015 0.5 8.657462558
vn 0 1 0
f 142//48 143//48 144//48
v -0.6 0.5 8.201728399
v 0.6 0.5 7.176728399
v -0.6 0.5 7.176728399
vn 0 1 0
f 145//49 146//49 147//49
v 0.6 0.5 7.176728399
v -0.6 0.5 8.201728399
v 0.6 0.5 8.201728399
vn 0 1 0
f 148//50 149//50 150//50
v 0.6 0.5 8.201728399
v 3.127325721 0.5 6.731092685
v 0.6 0.5 7.176728399
vn 0 1 0
f 151//51 152//51 153//51
v 0.6 0.5 8.201728399
v 3.477896368 0.5 7.694277622
v 3.127325721 0.5 6.731092685
vn 0 1 0
f 154//52 155//52 156//52
v 0.6 0.5 8.201728399
v 3.828467015 0.5 8.657462558
v 3.477896368 0.5 7.694277622
vn 0 1 0
f 157//53 158//53 159//53
v 3.828467015 0.5 8.657462558
v 0.6 0.5 8.201728399
v 0.6 0.5 9.226728399
vn 0 1 0
f 160//54 161//54 162//54
v 3.477896368 0.5 7.694277622
v 4.254956866 0.5 6.320668513
v 3.127325721 0.5 6.731092685
vn 0 1 0
f 163//55 164//55 165//55
v 4.254956866 0.5 6.320668513
v 3.477896368 0.5 7.694277622
v 4.605527513 0.5 7.28385345
vn 0 1 0
f 166//56 167//56 168//56
v 4.605527513 0.5 7.28385345
v 6.910870071 0.5 4.967413144
v 4.254956866 0.5 6.320668513
vn 0 1 0
f 169//57 170//57 171//57
v 4.605527513 0.5 7.28385345
v 7.484042797 0.5 5.817176656
v 6.910870071 0.5 4.967413144
vn 0 1 0
f 172//58 173//58 174//58
v 4.605527513 0.5 7.28385345
v 8.057215523 0.5 6.666940168
v 7.484042797 0.5 5.817176656
vn 0 1 0
f 175//59 176//59 177//59
v 8.057215523 0.5 6.666940168
v 4.605527513 0.5 7.28385345
v 4.95609816 0.5 8.247038386
vn 0 1 0
f 178//60 179//60 180//60
v 7.484042797 0.5 5.817176656
v 7.84353734 0.5 4.338321128
v 6.910870071 0.5 4.967413144
vn 0 1 0
f 181//61 182//61 183//61
v 7.84353734 0.5 4.338321128
v 7.484042797 0.5 5.817176656
v 8.416710066 0.5 5.188084639
vn 0 1 0
f 184//62 185//62 186//62
o Terrace03
g Terrace03
usemtl Terrace03
v -9.563055518 1 6.887611663
v -8.057215523 1 6.666940168
v -8.989882792 1 6.037848151
vn 0 1 0
f 187//63 188//63 189//63
v -8.057215523 1 6.666940168
v -9.563055518 1 6.887611663
v -8.630388249 1 7.51670368
vn 0 1 0
f 190//64 191//64 192//64
v -8.630388249 1 7.51670368
v -4.95609816 1 8.247038386
v -8.057215523 1 6.666940168
vn 0 1 0
f 193//65 194//65 195//65
v -8.630388249 1 7.51670368
v -5.306668807 1 9.210223322
v -4.95609816 1 8.247038386
vn 0 1 0
f 196//66 197//66 198//66
v -8.630388249 1 7.51670368
v -5.657239454 1 10.173408259
v -5.306668807 1 9.210223322
vn 0 1 0
f 199//67 200//67 201//67
v -5.657239454 1 10.173408259
v -8.630388249 1 7.51670368
v -9.203560975 1 8.366467191
vn 0 1 0
f 202//68 203//68 204//68
v -5.306668807 1 9.210223322
v -3.828467015 1 8.657462558
v -4.95609816 1 8.247038386
vn 0 1 0
f 205//69 206//69 207//69
v -3.828467015 1 8.657462558
v -5.306668807 1 9.210223322
v -4.179037662 1 9.620647494
vn 0 1 0
f 208//70 209//70 210//70
v -4.179037662 1 9.620647494
v -0.6 1 9.226728399
v -3.828467015 1 8.657462558
vn 0 1 0
f 211//71 212//71 213//71
v -4.179037662 1 9.620647494
v -0.6 1 10.251728399
v -0.6 1 9.226728399
vn 0 1 0
f 214//72 215//72 216//72
v -4.179037662 1 9.620647494
v -0.6 1 11.276728399
v -0.6 1 10.251728399
vn 0 1 0
f 217//73 218//73 219//73
v -0.6 1 11.276728399
v -4.179037662 1 9.620647494
v -4.529608309 1 10.583832431
vn 0 1 0
f 220//74 221//74 222//74
v -0.6 1 10.251728399
v 0.6 1 9.226728399
v -0.6 1 9.226728399
vn 0 1 0
f 223//75 224//75 225//75
v 0.6 1 9.226728399
v -0.6 1 10.251728399
v 0.6 1 10.251728399
vn 0 1 0
f 226//76 227//76 228//76
v 0.6 1 10.251728399
v 3.828467015 1 8.657462558
v 0.6 1 9.226728399
vn 0 1 0
f 229//77 230//77 231//77
v 0.6 1 10.251728399
v 4.179037662 1 9.620647494
v 3.828467015 1 8.657462558
vn 0 1 0
f 232//78 233//78 234//78
v 0.6 1 10.251728399
v 4.529608309 1 10.583832431
v 4.179037662 1 9.620647494
vn 0 1 0
f 235//79 236//79 237//79
v 4.529608309 1 10.583832431
v 0.6 1 10.251728399
v 0.6 1 11.276728399
vn 0 1 0
f 238//80 239//80 240//80
v 4.179037662 1 9.620647494
v 4.95609816 1 8.247038386
v 3.828467015 1 8.657462558
vn 0 1 0
f 241//81 242//81 243//81
v 4.95609816 1 8.247038386
v 4.179037662 1 9.620647494
v 5.306668807 1 9.210223322
vn 0 1 0
f 244//82 245//82 246//82
v 5.306668807 1 9.210223322
v 8.057215523 1 6.666940168
v 4.95609816 1 8.247038386
vn 0 1 0
f 247//83 248//83 249//83
v 5.306668807 1 9.210223322
v 8.630388249 1 7.51670368
v 8.057215523 1 6.666940168
vn 0 1 0
f 250//84 251//84 252//84
v 5.306668807 1 9.210223322
v 9.203560975 1 8.366467191
v 8.630388249 1 7.51670368
vn 0 1 0
f 253//85 254//85 255//85
v 9.203560975 1 8.366467191
v 5.306668807 1 9.210223322
v 5.657239454 1 10.173408259
vn 0 1 0
f 256//86 257//86 258//86
v 8.630388249 1 7.51670368
v 8.989882792 1 6.037848151
v 8.057215523 1 6.666940168
vn 0 1 0
f 259//87 260//87 261//87
v 8.989882792 1 6.037848151
v 8.630388249 1 7.51670368
v 9.563055518 1 6.887611663
vn 0 1 0
f 262//88 263//88 264//88
o Terrace04
g Terrace04
usemtl Terrace04
v -10.70940097 1.5 8.587138687
v -9.203560975 1.5 8.366467191
v -10.136228244 1.5 7.737375175
vn 0 1 0
f 265//89 266//89 267//89
v -9.203560975 1.5 8.366467191
v -10.70940097 1.5 8.587138687
v -9.776733701 1.5 9.216230703
vn 0 1 0
f 268//90 269//90 270//90
v -9.776733701 1.5 9.216230703
v -5.657239454 1.5 10.173408259
v -9.203560975 1.5 8.366467191
vn 0 1 0
f 271//91 272//91 273//91
v -9.776733701 1.5 9.216230703
v -6.007810101 1.5 11.136593195
v -5.657239454 1.5 10.173408259
vn 0 1 0
f 274//92 275//92 276//92
v -9.776733701 1.5 9.216230703
v -6.358380748 1.5 12.099778131
v -6.007810101 1.5 11.136593195
vn 0 1 0
f 277//93 278//93 279//93
v -6.358380748 1.5 12.099778131
v -9.776733701 1.5 9.216230703
v -10.349906427 1.5 10.065994215
vn 0 1 0
f 280//94 281//94 282//94
v -6.007810101 1.5 11.136593195
v -4.529608309 1.5 10.583832431
v -5.657239454 1.5 10.173408259
vn 0 1 0
f 283//95 284//95 285//95
v -4.529608309 1.5 10.583832431
v -6.007810101 1.5 11.136593195
v -4.880178956 1.5 11.547017367
vn 0 1 0
f 286//96 287//96 288//96
v -4.880178956 1.5 11.547017367
v -0.6 1.5 11.276728399
v -4.529608309 1.5 10.583832431
vn 0 1 0
f 289//97 290//97 291//97
v -4.880178956 1.5 11.547017367
v -0.6 1.5 12.301728399
v -0.6 1.5 11.276728399
vn 0 1 0
f 292//98 293//98 294//98
v -4.880178956 1.5 11.547017367
v -0.6 1.5 13.326728399
v -0.6 1.5 12.301728399
vn 0 1 0
f 295//99 296//99 297//99
v -0.6 1.5 13.326728399
v -4.880178956 1.5 11.547017367
v -5.230749603 1.5 12.510202303
vn 0 1 0
f 298//100 299//100 300//100
v -0.6 1.5 12.301728399
v 0.6 1.5 11.276728399
v -0.6 1.5 11.276728399
vn 0 1 0
f 301//101 302//101 303//101
v 0.6 1.5 11.276728399
v -0.6 1.5 12.301728399
v 0.6 1.5 12.301728399
vn 0 1 0
f 304//102 305//102 306//102
v 0.6 1.5 12.301728399
v 4.529608309 1.5 10.583832431
v 0.6 1.5 11.276728399
vn 0 1 0
f 307//103 308//103 309//103
v 0.6 1.5 12.301728399
v 4.880178956 1.5 11.547017367
v 4.529608309 1.5 10.583832431
vn 0 1 0
f 310//104 311//104 312//104
v 0.6 1.5 12.301728399
v 5.230749603 1.5 12.510202303
v 4.880178956 1.5 11.547017367
vn 0 1 0
f 313//105 314//105 315//105
v 5.230749603 1.5 12.510202303
v 0.6 1.5 12.301728399
v 0.6 1.5 13.326728399
vn 0 1 0
f 316//106 317//106 318//106
v 4.880178956 1.5 11.547017367
v 5.657239454 1.5 10.173408259
v 4.529608309 1.5 10.583832431
vn 0 1 0
f 319//107 320//107 321//107
v 5.657239454 1.5 10.173408259
v 4.880178956 1.5 11.547017367
v 6.007810101 1.5 11.136593195
vn 0 1 0
f 322//108 323//108 324//108
v 6.007810101 1.5 11.136593195
v 9.203560975 1.5 8.366467191
v 5.657239454 1.5 10.173408259
vn 0 1 0
f 325//109 326//109 327//109
v 6.007810101 1.5 11.136593195
v 9.776733701 1.5 9.216230703
v 9.203560975 1.5 8.366467191
vn 0 1 0
f 328//110 329//110 330//110
v 6.007810101 1.5 11.136593195
v 10.349906427 1.5 10.065994215
v 9.776733701 1.5 9.216230703
vn 0 1 0
f 331//111 332//111 333//111
v 10.349906427 1.5 10.065994215
v 6.007810101 1.5 11.136593195
v 6.358380748 1.5 12.099778131
vn 0 1 0
f 334//112 335//112 336//112
v 9.776733701 1.5 9.216230703
v 10.136228244 1.5 7.737375175
v 9.203560975 1.5 8.366467191
vn 0 1 0
f 337//113 338//113 339//113
v 10.136228244 1.5 7.737375175
v 9.776733701 1.5 9.216230703
v 10.70940097 1.5 8.587138687
vn 0 1 0
f 340//114 341//114 342//114
o Terrace05
g Terrace05
usemtl Terrace05
v -11.855746422 2 10.286665711
v -10.349906427 2 10.065994215
v -11.282573696 2 9.436902199
vn 0 1 0
f 343//115 344//115 345//115
v -10.349906427 2 10.065994215
v -11.855746422 2 10.286665711
v -10.923079153 2 10.915757727
vn 0 1 0
f 346//116 347//116 348//116
v -10.923079153 2 10.915757727
v -6.358380748 2 12.099778131
v -10.349906427 2 10.065994215
vn 0 1 0
f 349//117 350//117 351//117
v -10.923079153 2 10.915757727
v -6.708951395 2 13.062963067
v -6.358380748 2 12.099778131
vn 0 1 0
f 352//118 353//118 354//118
v -10.923079153 2 10.915757727
v -7.059522042 2 14.026148004
v -6.708951395 2 13.062963067
vn 0 1 0
f 355//119 356//119 357//119
v -7.059522042 2 14.026148004
v -10.923079153 2 10.915757727
v -11.496251879 2 11.765521239
vn 0 1 0
f 358//120 359//120 360//120
v -6.708951395 2 13.062963067
v -5.230749603 2 12.510202303
v -6.358380748 2 12.099778131
vn 0 1 0
f 361//121 362//121 363//121
v -5.230749603 2 12.510202303
v -6.708951395 2 13.062963067
v -5.58132025 2 13.473387239
vn 0 1 0
f 364//122 365//122 366//122
v -5.58132025 2 13.473387239
v -0.6 2 13.326728399
v -5.230749603 2 12.510202303
vn 0 1 0
f 367//123 368//123 369//123
v -5.58132025 2 13.473387239
v -0.6 2 14.351728399
v -0.6 2 13.326728399
vn 0 1 0
f 370//124 371//124 372//124
v -5.58132025 2 13.473387239
v -0.6 2 15.376728399
v -0.6 2 14.351728399
vn 0 1 0
f 373//125 374//125 375//125
v -0.6 2 15.376728399
v -5.58132025 2 13.473387239
v -5.931890897 2 14.436572176
vn 0 1 0
f 376//126 377//126 378//126
v -0.6 2 14.351728399
v 0.6 2 13.326728399
v -0.6 2 13.326728399
vn 0 1 0
f 379//127 380//127 381//127
v 0.6 2 13.326728399
v -0.6 2 14.351728399
v 0.6 2 14.351728399
vn 0 1 0
f 382//128 383//128 384//128
v 0.6 2 14.351728399
v 5.230749603 2 12.510202303
v 0.6 2 13.326728399
vn 0 1 0
f 385//129 386//129 387//129
v 0.6 2 14.351728399
v 5.58132025 2 13.473387239
v 5.230749603 2 12.510202303
vn 0 1 0
f 388//130 389//130 390//130
v 0.6 2 14.351728399
v 5.931890897 2 14.436572176
v 5.58132025 2 13.473387239
vn 0 1 0
f 391//131 392//131 393//131
v 5.931890897 2 14.436572176
v 0.6 2 14.351728399
v 0.6 2 15.376728399
vn 0 1 0
f 394//132 395//132 396//132
v 5.58132025 2 13.473387239
v 6.358380748 2 12.099778131
v 5.230749603 2 12.510202303
vn 0 1 0
f 397//133 398//133 399//133
v 6.358380748 2 12.099778131
v 5.58132025 2 13.473387239
v 6.708951395 2 13.062963067
vn 0 1 0
f 400//134 401//134 402//134
v 6.708951395 2 13.062963067
v 10.349906427 2 10.065994215
v 6.358380748 2 12.099778131
vn 0 1 0
f 403//135 404//135 405//135
v 6.708951395 2 13.062963067
v 10.923079153 2 10.915757727
v 10.349906427 2 10.065994215
vn 0 1 0
f 406//136 407//136 408//136
v 6.708951395 2 13.062963067
v 11.496251879 2 11.765521239
v 10.923079153 2 10.915757727
vn 0 1 0
f 409//137 410//137 411//137
v 11.496251879 2 11.765521239
v 6.708951395 2 13.062963067
v 7.059522042 2 14.026148004
vn 0 1 0
f 412//138 413//138 414//138
v 10.923079153 2 10.915757727
v 11.282573696 2 9.436902199
v 10.349906427 2 10.065994215
vn 0 1 0
f 415//139 416//139 417//139
v 11.282573696 2 9.436902199
v 10.923079153 2 10.915757727
v 11.855746422 2 10.286665711
vn 0 1 0
f 418//140 419//140 420//140
o Terrace06
g Terrace06
usemtl Terrace06
v -13.002091874 2.5 11.986192734
v -11.496251879 2.5 11.765521239
v -12.428919148 2.5 11.136429223
vn 0 1 0
f 421//141 422//141 423//141
v -11.496251879 2.5 11.765521239
v -13.002091874 2.5 11.986192734
v -12.069424605 2.5 12.615284751
vn 0 1 0
f 424//142 425//142 426//142
v -12.069424605 2.5 12.615284751
v -7.059522042 2.5 14.026148004
v -11.496251879 2.5 11.765521239
vn 0 1 0
f 427//143 428//143 429//143
v -12.069424605 2.5 12.615284751
v -7.410092688 2.5 14.98933294
v -7.059522042 2.5 14.026148004
vn 0 1 0
f 430//144 431//144 432//144
v -12.069424605 2.5 12.615284751
v -7.760663335 2.5 15.952517876
v -7.410092688 2.5 14.98933294
vn 0 1 0
f 433//145 434//145 435//145
v -7.760663335 2.5 15.952517876
v -12.069424605 2.5 12.615284751
v -12.642597331 2.5 13.465048263
vn 0 1 0
f 436//146 437//146 438//146
v -7.410092688 2.5 14.98933294
v -5.931890897 2.5 14.436572176
v -7.059522042 2.5 14.026148004
vn 0 1 0
f 439//147 440//147 441//147
v -5.931890897 2.5 14.436572176
v -7.410092688 2.5 14.98933294
v -6.282461544 2.5 15.399757112
vn 0 1 0
f 442//148 443//148 444//148
v -6.282461544 2.5 15.399757112
v -0.6 2.5 15.376728399
v -5.931890897 2.5 14.436572176
vn 0 1 0
f 445//149 446//149 447//149
v -6.282461544 2.5 15.399757112
v -0.6 2.5 16.401728399
v -0.6 2.5 15.376728399
vn 0 1 0
f 448//150 449//150 450//150
v -6.282461544 2.5 15.399757112
v -0.6 2.5 17.426728399
v -0.6 2.5 16.401728399
vn 0 1 0
f 451//151 452//151 453//151
v -0.6 2.5 17.426728399
v -6.282461544 2.5 15.399757112
v -6.63303219 2.5 16.362942048
vn 0 1 0
f 454//152 455//152 456//152
v -0.6 2.5 16.401728399
v 0.6 2.5 15.376728399
v -0.6 2.5 15.376728399
vn 0 1 0
f 457//153 458//153 459//153
v 0.6 2.5 15.376728399
v -0.6 2.5 16.401728399
v 0.6 2.5 16.401728399
vn 0 1 0
f 460//154 461//154 462//154
v 0.6 2.5 16.401728399
v 5.931890897 2.5 14.436572176
v 0.6 2.5 15.376728399
vn 0 1 0
f 463//155 464//155 465//155
v 0.6 2.5 16.401728399
v 6.282461544 2.5 15.399757112
v 5.931890897 2.5 14.436572176
vn 0 1 0
f 466//156 467//156 468//156
v 0.6 2.5 16.401728399
v 6.63303219 2.5 16.362942048
v 6.282461544 2.5 15.399757112
vn 0 1 0
f 469//157 470//157 471//157
v 6.63303219 2.5 16.362942048
v 0.6 2.5 16.401728399
v 0.6 2.5 17.426728399
vn 0 1 0
f 472//158 473//158 474//158
v 6.282461544 2.5 15.399757112
v 7.059522042 2.5 14.026148004
v 5.931890897 2.5 14.436572176
vn 0 1 0
f 475//159 476//159 477//159
v 7.059522042 2.5 14.026148004
v 6.282461544 2.5 15.399757112
v 7.410092688 2.5 14.98933294
vn 0 1 0
f 478//160 479//160 480//160
v 7.410092688 2.5 14.98933294
v 11.496251879 2.5 11.765521239
v 7.059522042 2.5 14.026148004
vn 0 1 0
f 481//161 482//161 483//161
v 7.410092688 2.5 14.98933294
v 12.069424605 2.5 12.615284751
v 11.496251879 2.5 11.765521239
vn 0 1 0
f 484//162 485//162 486//162
v 7.410092688 2.5 14.98933294
v 12.642597331 2.5 13.465048263
v 12.069424605 2.5 12.615284751
vn 0 1 0
f 487//163 488//163 489//163
v 12.642597331 2.5 13.465048263
v 7.410092688 2.5 14.98933294
v 7.760663335 2.5 15.952517876
vn 0 1 0
f 490//164 491//164 492//164
v 12.069424605 2.5 12.615284751
v 12.428919148 2.5 11.136429223
v 11.496251879 2.5 11.765521239
vn 0 1 0
f 493//165 494//165 495//165
v 12.428919148 2.5 11.136429223
v 12.069424605 2.5 12.615284751
v 13.002091874 2.5 11.986192734
vn 0 1 0
f 496//166 497//166 498//166
o RearLanding
g RearLanding
usemtl RearLanding
v -18.744727386 3 20.5
v -12.642597331 3 13.465048263
v -13.5752646 3 12.835956246
vn 0 1 0
f 499//167 500//167 501//167
v -18.744727386 3 20.5
v -7.760663335 3 15.952517876
v -12.642597331 3 13.465048263
vn 0 1 0
f 502//168 503//168 504//168
v -18.744727386 3 20.5
v -6.63303219 3 16.362942048
v -7.760663335 3 15.952517876
vn 0 1 0
f 505//169 506//169 507//169
v -18.744727386 3 20.5
v -0.6 3 17.426728399
v -6.63303219 3 16.362942048
vn 0 1 0
f 508//170 509//170 510//170
v -18.744727386 3 20.5
v 0.6 3 17.426728399
v -0.6 3 17.426728399
vn 0 1 0
f 511//171 512//171 513//171
v 12.642597331 3 13.465048263
v 18.744727386 3 20.5
v 13.5752646 3 12.835956246
vn 0 1 0
f 514//172 515//172 516//172
v 7.760663335 3 15.952517876
v 18.744727386 3 20.5
v 12.642597331 3 13.465048263
vn 0 1 0
f 517//173 518//173 519//173
v 6.63303219 3 16.362942048
v 18.744727386 3 20.5
v 7.760663335 3 15.952517876
vn 0 1 0
f 520//174 521//174 522//174
v 0.6 3 17.426728399
v 18.744727386 3 20.5
v 6.63303219 3 16.362942048
vn 0 1 0
f 523//175 524//175 525//175
v 0.6 3 17.426728399
v -18.744727386 3 20.5
v 18.744727386 3 20.5
vn 0 1 0
f 526//176 527//176 528//176
o Riser01
g Riser01
usemtl Riser01
v -6.910870071 0 4.967413144
v -6.910870071 0.5 4.967413144
v -4.254956866 0.5 6.320668513
vn 0.4539905 0 -0.891006524
f 529//177 530//177 531//177
v -6.910870071 0 4.967413144
v -4.254956866 0.5 6.320668513
v -4.254956866 0 6.320668513
vn 0.4539905 0 -0.891006524
f 532//178 533//178 534//178
v -3.127325721 0 6.731092685
v -3.127325721 0.5 6.731092685
v -0.6 0.5 7.176728399
vn 0.173648178 0 -0.984807753
f 535//179 536//179 537//179
v -3.127325721 0 6.731092685
v -0.6 0.5 7.176728399
v -0.6 0 7.176728399
vn 0.173648178 0 -0.984807753
f 538//180 539//180 540//180
v 0.6 0 7.176728399
v 0.6 0.5 7.176728399
v 3.127325721 0.5 6.731092685
vn -0.173648178 0 -0.984807753
f 541//181 542//181 543//181
v 0.6 0 7.176728399
v 3.127325721 0.5 6.731092685
v 3.127325721 0 6.731092685
vn -0.173648178 0 -0.984807753
f 544//182 545//182 546//182
v 4.254956866 0 6.320668513
v 4.254956866 0.5 6.320668513
v 6.910870071 0.5 4.967413144
vn -0.4539905 0 -0.891006524
f 547//183 548//183 549//183
v 4.254956866 0 6.320668513
v 6.910870071 0.5 4.967413144
v 6.910870071 0 4.967413144
vn -0.4539905 0 -0.891006524
f 550//184 551//184 552//184
o Riser02
g Riser02
usemtl Riser02
v -8.057215523 0.5 6.666940168
v -8.057215523 1 6.666940168
v -4.95609816 1 8.247038386
vn 0.4539905 0 -0.891006524
f 553//185 554//185 555//185
v -8.057215523 0.5 6.666940168
v -4.95609816 1 8.247038386
v -4.95609816 0.5 8.247038386
vn 0.4539905 0 -0.891006524
f 556//186 557//186 558//186
v -3.828467015 0.5 8.657462558
v -3.828467015 1 8.657462558
v -0.6 1 9.226728399
vn 0.173648178 0 -0.984807753
f 559//187 560//187 561//187
v -3.828467015 0.5 8.657462558
v -0.6 1 9.226728399
v -0.6 0.5 9.226728399
vn 0.173648178 0 -0.984807753
f 562//188 563//188 564//188
v 0.6 0.5 9.226728399
v 0.6 1 9.226728399
v 3.828467015 1 8.657462558
vn -0.173648178 0 -0.984807753
f 565//189 566//189 567//189
v 0.6 0.5 9.226728399
v 3.828467015 1 8.657462558
v 3.828467015 0.5 8.657462558
vn -0.173648178 0 -0.984807753
f 568//190 569//190 570//190
v 4.95609816 0.5 8.247038386
v 4.95609816 1 8.247038386
v 8.057215523 1 6.666940168
vn -0.4539905 0 -0.891006524
f 571//191 572//191 573//191
v 4.95609816 0.5 8.247038386
v 8.057215523 1 6.666940168
v 8.057215523 0.5 6.666940168
vn -0.4539905 0 -0.891006524
f 574//192 575//192 576//192
o Riser03
g Riser03
usemtl Riser03
v -9.203560975 1 8.366467191
v -9.203560975 1.5 8.366467191
v -5.657239454 1.5 10.173408259
vn 0.4539905 0 -0.891006524
f 577//193 578//193 579//193
v -9.203560975 1 8.366467191
v -5.657239454 1.5 10.173408259
v -5.657239454 1 10.173408259
vn 0.4539905 0 -0.891006524
f 580//194 581//194 582//194
v -4.529608309 1 10.583832431
v -4.529608309 1.5 10.583832431
v -0.6 1.5 11.276728399
vn 0.173648178 0 -0.984807753
f 583//195 584//195 585//195
v -4.529608309 1 10.583832431
v -0.6 1.5 11.276728399
v -0.6 1 11.276728399
vn 0.173648178 0 -0.984807753
f 586//196 587//196 588//196
v 0.6 1 11.276728399
v 0.6 1.5 11.276728399
v 4.529608309 1.5 10.583832431
vn -0.173648178 0 -0.984807753
f 589//197 590//197 591//197
v 0.6 1 11.276728399
v 4.529608309 1.5 10.583832431
v 4.529608309 1 10.583832431
vn -0.173648178 0 -0.984807753
f 592//198 593//198 594//198
v 5.657239454 1 10.173408259
v 5.657239454 1.5 10.173408259
v 9.203560975 1.5 8.366467191
vn -0.4539905 0 -0.891006524
f 595//199 596//199 597//199
v 5.657239454 1 10.173408259
v 9.203560975 1.5 8.366467191
v 9.203560975 1 8.366467191
vn -0.4539905 0 -0.891006524
f 598//200 599//200 600//200
o Riser04
g Riser04
usemtl Riser04
v -10.349906427 1.5 10.065994215
v -10.349906427 2 10.065994215
v -6.358380748 2 12.099778131
vn 0.4539905 0 -0.891006524
f 601//201 602//201 603//201
v -10.349906427 1.5 10.065994215
v -6.358380748 2 12.099778131
v -6.358380748 1.5 12.099778131
vn 0.4539905 0 -0.891006524
f 604//202 605//202 606//202
v -5.230749603 1.5 12.510202303
v -5.230749603 2 12.510202303
v -0.6 2 13.326728399
vn 0.173648178 0 -0.984807753
f 607//203 608//203 609//203
v -5.230749603 1.5 12.510202303
v -0.6 2 13.326728399
v -0.6 1.5 13.326728399
vn 0.173648178 0 -0.984807753
f 610//204 611//204 612//204
v 0.6 1.5 13.326728399
v 0.6 2 13.326728399
v 5.230749603 2 12.510202303
vn -0.173648178 0 -0.984807753
f 613//205 614//205 615//205
v 0.6 1.5 13.326728399
v 5.230749603 2 12.510202303
v 5.230749603 1.5 12.510202303
vn -0.173648178 0 -0.984807753
f 616//206 617//206 618//206
v 6.358380748 1.5 12.099778131
v 6.358380748 2 12.099778131
v 10.349906427 2 10.065994215
vn -0.4539905 0 -0.891006524
f 619//207 620//207 621//207
v 6.358380748 1.5 12.099778131
v 10.349906427 2 10.065994215
v 10.349906427 1.5 10.065994215
vn -0.4539905 0 -0.891006524
f 622//208 623//208 624//208
o Riser05
g Riser05
usemtl Riser05
v -11.496251879 2 11.765521239
v -11.496251879 2.5 11.765521239
v -7.059522042 2.5 14.026148004
vn 0.4539905 0 -0.891006524
f 625//209 626//209 627//209
v -11.496251879 2 11.765521239
v -7.059522042 2.5 14.026148004
v -7.059522042 2 14.026148004
vn 0.4539905 0 -0.891006524
f 628//210 629//210 630//210
v -5.931890897 2 14.436572176
v -5.931890897 2.5 14.436572176
v -0.6 2.5 15.376728399
vn 0.173648178 0 -0.984807753
f 631//211 632//211 633//211
v -5.931890897 2 14.436572176
v -0.6 2.5 15.376728399
v -0.6 2 15.376728399
vn 0.173648178 0 -0.984807753
f 634//212 635//212 636//212
v 0.6 2 15.376728399
v 0.6 2.5 15.376728399
v 5.931890897 2.5 14.436572176
vn -0.173648178 0 -0.984807753
f 637//213 638//213 639//213
v 0.6 2 15.376728399
v 5.931890897 2.5 14.436572176
v 5.931890897 2 14.436572176
vn -0.173648178 0 -0.984807753
f 640//214 641//214 642//214
v 7.059522042 2 14.026148004
v 7.059522042 2.5 14.026148004
v 11.496251879 2.5 11.765521239
vn -0.4539905 0 -0.891006524
f 643//215 644//215 645//215
v 7.059522042 2 14.026148004
v 11.496251879 2.5 11.765521239
v 11.496251879 2 11.765521239
vn -0.4539905 0 -0.891006524
f 646//216 647//216 648//216
o Riser06
g Riser06
usemtl Riser06
v -12.642597331 2.5 13.465048263
v -12.642597331 3 13.465048263
v -7.760663335 3 15.952517876
vn 0.4539905 0 -0.891006524
f 649//217 650//217 651//217
v -12.642597331 2.5 13.465048263
v -7.760663335 3 15.952517876
v -7.760663335 2.5 15.952517876
vn 0.4539905 0 -0.891006524
f 652//218 653//218 654//218
v -6.63303219 2.5 16.362942048
v -6.63303219 3 16.362942048
v -0.6 3 17.426728399
vn 0.173648178 0 -0.984807753
f 655//219 656//219 657//219
v -6.63303219 2.5 16.362942048
v -0.6 3 17.426728399
v -0.6 2.5 17.426728399
vn 0.173648178 0 -0.984807753
f 658//220 659//220 660//220
v 0.6 2.5 17.426728399
v 0.6 3 17.426728399
v 6.63303219 3 16.362942048
vn -0.173648178 0 -0.984807753
f 661//221 662//221 663//221
v 0.6 2.5 17.426728399
v 6.63303219 3 16.362942048
v 6.63303219 2.5 16.362942048
vn -0.173648178 0 -0.984807753
f 664//222 665//222 666//222
v 7.760663335 2.5 15.952517876
v 7.760663335 3 15.952517876
v 12.642597331 3 13.465048263
vn -0.4539905 0 -0.891006524
f 667//223 668//223 669//223
v 7.760663335 2.5 15.952517876
v 12.642597331 3 13.465048263
v 12.642597331 2.5 13.465048263
vn -0.4539905 0 -0.891006524
f 670//224 671//224 672//224
