# U-PoC B202 faceted hall: ceiling
o Ceiling
g Ceiling
usemtl Ceiling
v -0.425 7.4 20.338682
v 0 7.4 20.338682
v 0 7.4 0
f 1 2 3
v 0.425 7.4 20.338682
f 3 2 4
v -3.917545 7.4 19.155117
v -4.397584 7.4 19.86768
f 5 6 1
v 4.397584 7.4 19.86768
v 3.917545 7.4 19.155117
f 4 7 8
f 5 1 3
f 3 4 8
v -8.455737 7.4 17.744901
f 9 5 3
v 8.455737 7.4 17.744901
f 3 8 10
v -8.286444 7.4 15.402619
f 11 9 3
v 8.286444 7.4 15.402619
f 3 10 12
v -8.108019 7.4 13.047395
f 13 11 3
v 8.108019 7.4 13.047395
f 3 12 14
v -7.903883 7.4 10.660854
f 15 13 3
v 7.903883 7.4 10.660854
f 3 14 16
v -7.655177 7.4 8.228672
f 17 15 3
v 7.655177 7.4 8.228672
f 3 16 18
v -7.33235 7.4 5.727189
f 19 17 3
v 7.33235 7.4 5.727189
f 3 18 20
v -6.952698 7.4 3.109694
f 21 19 3
v 6.952698 7.4 3.109694
f 3 20 22
v -5.668998 7.4 1.479814
f 23 21 3
v 5.668998 7.4 1.479814
f 3 22 24
v -6.5 7.4 0
f 25 23 3
v 6.5 7.4 0
f 3 24 26
v 0 7.2 0
v 0 7.2 20.338682
v -0.425 7.2 20.338682
f 27 28 29
v 0.425 7.2 20.338682
f 30 28 27
v -4.397584 7.2 19.86768
v -3.917545 7.2 19.155117
f 29 31 32
v 3.917545 7.2 19.155117
v 4.397584 7.2 19.86768
f 33 34 30
f 27 29 32
f 33 30 27
v -8.455737 7.2 17.744901
f 27 32 35
v 8.455737 7.2 17.744901
f 36 33 27
v -8.286444 7.2 15.402619
f 27 35 37
v 8.286444 7.2 15.402619
f 38 36 27
v -8.108019 7.2 13.047395
f 27 37 39
v 8.108019 7.2 13.047395
f 40 38 27
v -7.903883 7.2 10.660854
f 27 39 41
v 7.903883 7.2 10.660854
f 42 40 27
v -7.655177 7.2 8.228672
f 27 41 43
v 7.655177 7.2 8.228672
f 44 42 27
v -7.33235 7.2 5.727189
f 27 43 45
v 7.33235 7.2 5.727189
f 46 44 27
v -6.952698 7.2 3.109694
f 27 45 47
v 6.952698 7.2 3.109694
f 48 46 27
v -5.668998 7.2 1.479814
f 27 47 49
v 5.668998 7.2 1.479814
f 50 48 27
v -6.5 7.2 0
f 27 49 51
v 6.5 7.2 0
f 52 50 27
f 25 23 49 51
f 23 21 47 49
f 21 19 45 47
f 19 17 43 45
f 17 15 41 43
f 15 13 39 41
f 13 11 37 39
f 11 9 35 37
f 9 5 32 35
f 5 6 31 32
f 6 1 29 31
f 1 4 30 29
f 4 7 34 30
f 7 8 33 34
f 8 10 36 33
f 10 12 38 36
f 12 14 40 38
f 14 16 42 40
f 16 18 44 42
f 18 20 46 44
f 20 22 48 46
f 22 24 50 48
f 24 26 52 50
f 26 25 51 52
