# U-PoC B202 faceted hall: treads
o Treads01
g Treads01
usemtl Tread
v -5.668998 0.25 1.479814
v -5.20319 0.25 2.067625
v -4.553916 0.25 1.806007
v -4.991694 0.25 1.303013
f 1 2 3 4
v -4.553916 0 1.806007
v -4.991694 0 1.303013
f 4 3 5 6
v -5.20319 0.5 2.067625
v -5.668998 0.5 1.479814
f 7 8 1 2
v -5.668998 0 1.479814
f 1 4 6 9
v -5.20319 0 2.067625
f 3 2 10 5
v -2.801423 0.25 4.019074
v -2.918496 0.25 3.337975
v -3.379249 0.25 3.864953
v -3.201702 0.25 4.593336
f 11 12 13 14
v -2.918496 0 3.337975
v -2.801423 0 4.019074
f 11 12 15 16
v -3.379249 0.5 3.864953
v -3.201702 0.5 4.593336
f 17 18 14 13
v -3.201702 0 4.593336
f 14 11 16 19
v -3.379249 0 3.864953
f 12 13 20 15
v -0.348609 0.25 5.122076
v 0.348609 0.25 5.122076
v 0.301077 0.25 4.423691
v -0.301077 0.25 4.423691
f 21 22 23 24
v 0.301077 0 4.423691
v -0.301077 0 4.423691
f 24 23 25 26
v 0.348609 0.5 5.122076
v -0.348609 0.5 5.122076
f 27 28 21 22
v -0.348609 0 5.122076
f 21 24 26 29
v 0.348609 0 5.122076
f 23 22 30 25
v 2.918496 0.25 3.337975
v 2.801423 0.25 4.019074
v 3.201702 0.25 4.593336
v 3.379249 0.25 3.864953
f 31 32 33 34
v 2.801423 0 4.019074
v 2.918496 0 3.337975
f 31 32 35 36
v 3.201702 0.5 4.593336
v 3.379249 0.5 3.864953
f 37 38 34 33
v 3.379249 0 3.864953
f 34 31 36 39
v 3.201702 0 4.593336
f 32 33 40 35
v 5.20319 0.25 2.067625
v 5.668998 0.25 1.479814
v 4.991694 0.25 1.303013
v 4.553916 0.25 1.806007
f 41 42 43 44
v 4.991694 0 1.303013
v 4.553916 0 1.806007
f 44 43 45 46
v 5.668998 0.5 1.479814
v 5.20319 0.5 2.067625
f 47 48 41 42
v 5.20319 0 2.067625
f 41 44 46 49
v 5.668998 0 1.479814
f 43 42 50 45
o Treads02
g Treads02
v -6.952698 0.75 3.109694
v -6.427899 0.75 3.645499
v -6.030771 0.75 3.069053
v -6.51958 0.75 2.559776
f 51 52 53 54
v -6.030771 0.5 3.069053
v -6.51958 0.5 2.559776
f 54 53 55 56
v -6.427899 1 3.645499
v -6.952698 1 3.109694
f 57 58 51 52
v -6.952698 0.5 3.109694
f 51 54 56 59
v -6.427899 0.5 3.645499
f 53 52 60 55
v -3.488836 0.75 5.799744
v -3.931752 0.75 5.278365
v -4.186603 0.75 5.930324
v -3.650914 0.75 6.480722
f 61 62 63 64
v -3.931752 0.5 5.278365
v -3.488836 0.5 5.799744
f 61 62 65 66
v -4.186603 1 5.930324
v -3.650914 1 6.480722
f 67 68 64 63
v -3.650914 0.5 6.480722
f 64 61 66 69
v -4.186603 0.5 5.930324
f 62 63 70 65
v -0.425 0.75 7.276038
v 0.425 0.75 7.276038
v 0.40019 0.75 6.576478
v -0.40019 0.75 6.576478
f 71 72 73 74
v 0.40019 0.5 6.576478
v -0.40019 0.5 6.576478
f 74 73 75 76
v 0.425 1 7.276038
v -0.425 1 7.276038
f 77 78 71 72
v -0.425 0.5 7.276038
f 71 74 76 79
v 0.425 0.5 7.276038
f 73 72 80 75
v 3.931752 0.75 5.278365
v 3.488836 0.75 5.799744
v 3.650914 0.75 6.480722
v 4.186603 0.75 5.930324
f 81 82 83 84
v 3.488836 0.5 5.799744
v 3.931752 0.5 5.278365
f 81 82 85 86
v 3.650914 1 6.480722
v 4.186603 1 5.930324
f 87 88 84 83
v 4.186603 0.5 5.930324
f 84 81 86 89
v 3.650914 0.5 6.480722
f 82 83 90 85
v 6.427899 0.75 3.645499
v 6.952698 0.75 3.109694
v 6.51958 0.75 2.559776
v 6.030771 0.75 3.069053
f 91 92 93 94
v 6.51958 0.5 2.559776
v 6.030771 0.5 3.069053
f 94 93 95 96
v 6.952698 1 3.109694
v 6.427899 1 3.645499
f 97 98 91 92
v 6.427899 0.5 3.645499
f 91 94 96 99
v 6.952698 0.5 3.109694
f 93 92 100 95
o Treads03
g Treads03
v -7.33235 1.25 5.727189
v -6.719946 1.25 6.160156
v -6.639908 1.25 5.464747
v -7.231871 1.25 5.034438
f 101 102 103 104
v -6.639908 1 5.464747
v -7.231871 1 5.034438
f 104 103 105 106
v -6.719946 1.5 6.160156
v -7.33235 1.5 5.727189
f 107 108 101 102
v -7.33235 1 5.727189
f 101 104 106 109
v -6.719946 1 6.160156
f 103 102 110 105
v -3.528449 1.25 7.766607
v -4.256391 1.25 7.632895
v -4.285059 1.25 8.332308
v -3.462082 1.25 8.463454
f 111 112 113 114
v -4.256391 1 7.632895
v -3.528449 1 7.766607
f 111 112 115 116
v -4.285059 1.5 8.332308
v -3.462082 1.5 8.463454
f 117 118 114 113
v -3.462082 1 8.463454
f 114 111 116 119
v -4.285059 1 8.332308
f 112 113 120 115
v -0.425 1.25 9.374054
v 0.425 1.25 9.374054
v 0.425 1.25 8.674054
v -0.425 1.25 8.674054
f 121 122 123 124
v 0.425 1 8.674054
v -0.425 1 8.674054
f 124 123 125 126
v 0.425 1.5 9.374054
v -0.425 1.5 9.374054
f 127 128 121 122
v -0.425 1 9.374054
f 121 124 126 129
v 0.425 1 9.374054
f 123 122 130 125
v 4.256391 1.25 7.632895
v 3.528449 1.25 7.766607
v 3.462082 1.25 8.463454
v 4.285059 1.25 8.332308
f 131 132 133 134
v 3.528449 1 7.766607
v 4.256391 1 7.632895
f 131 132 135 136
v 3.462082 1.5 8.463454
v 4.285059 1.5 8.332308
f 137 138 134 133
v 4.285059 1 8.332308
f 134 131 136 139
v 3.462082 1 8.463454
f 132 133 140 135
v 6.719946 1.25 6.160156
v 7.33235 1.25 5.727189
v 7.231871 1.25 5.034438
v 6.639908 1.25 5.464747
f 141 142 143 144
v 7.231871 1 5.034438
v 6.639908 1 5.464747
f 144 143 145 146
v 7.33235 1.5 5.727189
v 6.719946 1.5 6.160156
f 147 148 141 142
v 6.719946 1 6.160156
f 141 144 146 149
v 7.33235 1 5.727189
f 143 142 150 145
o Treads04
g Treads04
v -7.655177 1.75 8.228672
v -6.999319 1.75 8.592472
v -6.919666 1.75 7.897019
v -7.565582 1.75 7.534429
f 151 152 153 154
v -6.919666 1.5 7.897019
v -7.565582 1.5 7.534429
f 154 153 155 156
v -6.999319 2 8.592472
v -7.655177 2 8.228672
f 157 158 151 152
v -7.655177 1.5 8.228672
f 151 154 156 159
v -6.999319 1.5 8.592472
f 153 152 160 155
v -3.490703 1.75 9.83071
v -4.319238 1.75 9.980506
v -4.333752 1.75 10.680355
v -3.505353 1.75 10.530557
f 161 162 163 164
v -4.319238 1.5 9.980506
v -3.490703 1.5 9.83071
f 161 162 165 166
v -4.333752 2 10.680355
v -3.505353 2 10.530557
f 167 168 164 163
v -3.505353 1.5 10.530557
f 164 161 166 169
v -4.333752 1.5 10.680355
f 162 163 170 165
v -0.425 1.75 11.526007
v 0.425 1.75 11.526007
v 0.425 1.75 10.826007
v -0.425 1.75 10.826007
f 171 172 173 174
v 0.425 1.5 10.826007
v -0.425 1.5 10.826007
f 174 173 175 176
v 0.425 2 11.526007
v -0.425 2 11.526007
f 177 178 171 172
v -0.425 1.5 11.526007
f 171 174 176 179
v 0.425 1.5 11.526007
f 173 172 180 175
v 4.319238 1.75 9.980506
v 3.490703 1.75 9.83071
v 3.505353 1.75 10.530557
v 4.333752 1.75 10.680355
f 181 182 183 184
v 3.490703 1.5 9.83071
v 4.319238 1.5 9.980506
f 181 182 185 186
v 3.505353 2 10.530557
v 4.333752 2 10.680355
f 187 188 184 183
v 4.333752 1.5 10.680355
f 184 181 186 189
v 3.505353 1.5 10.530557
f 182 183 190 185
v 6.999319 1.75 8.592472
v 7.655177 1.75 8.228672
v 7.565582 1.75 7.534429
v 6.919666 1.75 7.897019
f 191 192 193 194
v 7.565582 1.5 7.534429
v 6.919666 1.5 7.897019
f 194 193 195 196
v 7.655177 2 8.228672
v 6.999319 2 8.592472
f 197 198 191 192
v 6.999319 1.5 8.592472
f 191 194 196 199
v 7.655177 1.5 8.228672
f 193 192 200 195
o Treads05
g Treads05
v -7.903883 2.25 10.660854
v -7.222741 2.25 10.974775
v -7.157473 2.25 10.277824
v -7.832675 2.25 9.964485
f 201 202 203 204
v -7.157473 2 10.277824
v -7.832675 2 9.964485
f 204 203 205 206
v -7.222741 2.5 10.974775
v -7.903883 2.5 10.660854
f 207 208 201 202
v -7.903883 2 10.660854
f 201 204 206 209
v -7.222741 2 10.974775
f 203 202 210 205
v -3.563421 2.25 11.948647
v -4.352798 2.25 12.298159
v -4.361039 2.25 12.998111
v -3.592061 2.25 12.64806
f 211 212 213 214
v -4.352798 2 12.298159
v -3.563421 2 11.948647
f 211 212 215 216
v -4.361039 2.5 12.998111
v -3.592061 2.5 12.64806
f 217 218 214 213
v -3.592061 2 12.64806
f 214 211 216 219
v -4.361039 2 12.998111
f 212 213 220 215
v -0.425 2.25 13.708251
v 0.425 2.25 13.708251
v 0.425 2.25 13.008251
v -0.425 2.25 13.008251
f 221 222 223 224
v 0.425 2 13.008251
v -0.425 2 13.008251
f 224 223 225 226
v 0.425 2.5 13.708251
v -0.425 2.5 13.708251
f 227 228 221 222
v -0.425 2 13.708251
f 221 224 226 229
v 0.425 2 13.708251
f 223 222 230 225
v 4.352798 2.25 12.298159
v 3.563421 2.25 11.948647
v 3.592061 2.25 12.64806
v 4.361039 2.25 12.998111
f 231 232 233 234
v 3.563421 2 11.948647
v 4.352798 2 12.298159
f 231 232 235 236
v 3.592061 2.5 12.64806
v 4.361039 2.5 12.998111
f 237 238 234 233
v 4.361039 2 12.998111
f 234 231 236 239
v 3.592061 2 12.64806
f 232 233 240 235
v 7.222741 2.25 10.974775
v 7.903883 2.25 10.660854
v 7.832675 2.25 9.964485
v 7.157473 2.25 10.277824
f 241 242 243 244
v 7.832675 2 9.964485
v 7.157473 2 10.277824
f 244 243 245 246
v 7.903883 2.5 10.660854
v 7.222741 2.5 10.974775
f 247 248 241 242
v 7.222741 2 10.974775
f 241 244 246 249
v 7.903883 2 10.660854
f 243 242 250 245
o Treads06
g Treads06
v -8.108019 2.75 13.047395
v -7.410889 2.75 13.324
v -7.35505 2.75 12.626231
v -8.048361 2.75 12.349942
f 251 252 253 254
v -7.35505 2.5 12.626231
v -8.048361 2.5 12.349942
f 254 253 255 256
v -7.410889 3 13.324
v -8.108019 3 13.047395
f 257 258 251 252
v -8.108019 2.5 13.047395
f 251 254 256 259
v -7.410889 2.5 13.324
f 253 252 260 255
v -3.660888 2.75 14.099544
v -4.372675 2.75 14.597503
v -4.377768 2.75 15.297485
v -3.694044 2.75 14.798758
f 261 262 263 264
v -4.372675 2.5 14.597503
v -3.660888 2.5 14.099544
f 261 262 265 266
v -4.377768 3 15.297485
v -3.694044 3 14.798758
f 267 268 264 263
v -3.694044 2.5 14.798758
f 264 261 266 269
v -4.377768 2.5 15.297485
f 262 263 270 265
v -0.425 2.75 15.908877
v 0.425 2.75 15.908877
v 0.425 2.75 15.208877
v -0.425 2.75 15.208877
f 271 272 273 274
v 0.425 2.5 15.208877
v -0.425 2.5 15.208877
f 274 273 275 276
v 0.425 3 15.908877
v -0.425 3 15.908877
f 277 278 271 272
v -0.425 2.5 15.908877
f 271 274 276 279
v 0.425 2.5 15.908877
f 273 272 280 275
v 4.372675 2.75 14.597503
v 3.660888 2.75 14.099544
v 3.694044 2.75 14.798758
v 4.377768 2.75 15.297485
f 281 282 283 284
v 3.660888 2.5 14.099544
v 4.372675 2.5 14.597503
f 281 282 285 286
v 3.694044 3 14.798758
v 4.377768 3 15.297485
f 287 288 284 283
v 4.377768 2.5 15.297485
f 284 281 286 289
v 3.694044 2.5 14.798758
f 282 283 290 285
v 7.410889 2.75 13.324
v 8.108019 2.75 13.047395
v 8.048361 2.75 12.349942
v 7.35505 2.75 12.626231
f 291 292 293 294
v 8.048361 2.5 12.349942
v 7.35505 2.5 12.626231
f 294 293 295 296
v 8.108019 3 13.047395
v 7.410889 3 13.324
f 297 298 291 292
v 7.410889 2.5 13.324
f 291 294 296 299
v 8.108019 2.5 13.047395
f 293 292 300 295
