# U-PoC B202 faceted hall: floors
o LowerFloor
g LowerFloor
usemtl LowerFloor
v 0 0 5.122076
v 0 0 0
v -6.5 0 0
f 1 2 3
v 6.5 0 0
f 4 2 1
v -0.348609 0 5.122076
f 5 1 3
v 0.348609 0 5.122076
f 4 1 6
v -3.379249 0 3.864953
f 7 5 3
v 3.379249 0 3.864953
f 4 6 8
v -3.201702 0 4.593336
f 9 7 3
v 3.201702 0 4.593336
f 4 8 10
v -5.668998 0 1.479814
f 3 11 9
v 5.668998 0 1.479814
f 10 12 4
o Terrace01
g Terrace01
usemtl Terrace
v -3.201702 0.5 4.593336
v -5.668998 0.5 1.479814
v -6.952698 0.5 3.109694
f 13 14 15
v 6.952698 0.5 3.109694
v 5.668998 0.5 1.479814
v 3.201702 0.5 4.593336
f 16 17 18
v -0.348609 0.5 5.122076
v -3.379249 0.5 3.864953
f 19 20 13
v 3.379249 0.5 3.864953
v 0.348609 0.5 5.122076
f 18 21 22
v 0 0.5 7.276038
v 0 0.5 5.122076
f 23 24 19
f 22 24 23
f 23 19 13
f 18 22 23
f 23 13 15
f 16 18 23
v -0.425 0.5 7.276038
f 25 23 15
v 0.425 0.5 7.276038
f 16 23 26
v -4.186603 0.5 5.930324
f 27 25 15
v 4.186603 0.5 5.930324
f 16 26 28
v -3.650914 0.5 6.480722
f 15 29 27
v 3.650914 0.5 6.480722
f 28 30 16
o Terrace02
g Terrace02
v -3.650914 1 6.480722
v -6.952698 1 3.109694
v -7.33235 1 5.727189
f 31 32 33
v 7.33235 1 5.727189
v 6.952698 1 3.109694
v 3.650914 1 6.480722
f 34 35 36
v -0.425 1 7.276038
v -4.186603 1 5.930324
f 37 38 31
v 4.186603 1 5.930324
v 0.425 1 7.276038
f 36 39 40
f 37 31 33
f 34 36 40
v 0 1 9.374054
v 0 1 7.276038
f 41 42 37
f 40 42 41
f 41 37 33
f 34 40 41
v -0.425 1 9.374054
f 43 41 33
v 0.425 1 9.374054
f 34 41 44
v -3.462082 1 8.463454
v -4.285059 1 8.332308
f 45 46 43
v 4.285059 1 8.332308
v 3.462082 1 8.463454
f 44 47 48
f 33 45 43
f 44 48 34
o Terrace03
g Terrace03
v -4.285059 1.5 8.332308
v -3.462082 1.5 8.463454
v -7.33235 1.5 5.727189
f 49 50 51
v 7.33235 1.5 5.727189
v 3.462082 1.5 8.463454
v 4.285059 1.5 8.332308
f 52 53 54
v -7.655177 1.5 8.228672
f 49 51 55
v 7.655177 1.5 8.228672
f 56 52 54
v -0.425 1.5 9.374054
f 57 49 55
v 0.425 1.5 9.374054
f 56 54 58
v 0 1.5 11.526007
v 0 1.5 9.374054
f 59 60 57
f 58 60 59
f 59 57 55
f 56 58 59
v -0.425 1.5 11.526007
f 61 59 55
v 0.425 1.5 11.526007
f 56 59 62
v -3.505353 1.5 10.530557
v -4.333752 1.5 10.680355
f 63 64 61
v 4.333752 1.5 10.680355
v 3.505353 1.5 10.530557
f 62 65 66
f 55 63 61
f 62 66 56
o Terrace04
g Terrace04
v -3.505353 2 10.530557
v -7.655177 2 8.228672
v -7.903883 2 10.660854
f 67 68 69
v 7.903883 2 10.660854
v 7.655177 2 8.228672
v 3.505353 2 10.530557
f 70 71 72
v -4.333752 2 10.680355
f 73 67 69
v 4.333752 2 10.680355
f 70 72 74
v -0.425 2 11.526007
f 75 73 69
v 0.425 2 11.526007
f 70 74 76
v 0 2 13.708251
v 0 2 11.526007
f 77 78 75
f 76 78 77
f 77 75 69
f 70 76 77
v -0.425 2 13.708251
f 79 77 69
v 0.425 2 13.708251
f 70 77 80
v -3.592061 2 12.64806
v -4.361039 2 12.998111
f 81 82 79
v 4.361039 2 12.998111
v 3.592061 2 12.64806
f 80 83 84
f 69 81 79
f 80 84 70
o Terrace05
g Terrace05
v -3.592061 2.5 12.64806
v -7.903883 2.5 10.660854
v -8.108019 2.5 13.047395
f 85 86 87
v 8.108019 2.5 13.047395
v 7.903883 2.5 10.660854
v 3.592061 2.5 12.64806
f 88 89 90
v -4.361039 2.5 12.998111
f 91 85 87
v 4.361039 2.5 12.998111
f 88 90 92
v -0.425 2.5 13.708251
f 93 91 87
v 0.425 2.5 13.708251
f 88 92 94
v 0 2.5 15.908877
v 0 2.5 13.708251
f 95 96 93
f 94 96 95
f 95 93 87
f 88 94 95
v -0.425 2.5 15.908877
f 97 95 87
v 0.425 2.5 15.908877
f 88 95 98
v -3.694044 2.5 14.798758
v -4.377768 2.5 15.297485
f 99 100 97
v 4.377768 2.5 15.297485
v 3.694044 2.5 14.798758
f 98 101 102
f 87 99 97
f 98 102 88
o Terrace06
g Terrace06
v -3.694044 3 14.798758
v -8.108019 3 13.047395
v -8.286444 3 15.402619
f 103 104 105
v 8.286444 3 15.402619
v 8.108019 3 13.047395
v 3.694044 3 14.798758
f 106 107 108
v -4.377768 3 15.297485
f 109 103 105
v 4.377768 3 15.297485
f 106 108 110
v -0.425 3 15.908877
f 111 109 105
v 0.425 3 15.908877
f 106 110 112
v 0 3 18.121396
v 0 3 15.908877
f 113 114 111
f 112 114 113
f 113 111 105
f 106 112 113
v -0.425 3 18.121396
f 115 113 105
v 0.425 3 18.121396
f 106 113 116
v -3.804069 3 16.972232
v -4.38873 3 17.584966
f 117 118 115
v 4.38873 3 17.584966
v 3.804069 3 16.972232
f 116 119 120
f 105 117 115
f 116 120 106
o RearLanding
g RearLanding
usemtl Landing
v -8.455737 3 17.744901
f 117 105 121
v 8.455737 3 17.744901
f 122 106 120
f 118 117 121
f 122 120 119
f 115 118 121
f 122 119 116
v 0 3 20.338682
f 123 113 115
f 116 113 123
f 123 115 121
f 122 116 123
v -4.397584 3 19.86768
v -0.425 3 20.338682
f 124 125 123
v 0.425 3 20.338682
v 4.397584 3 19.86768
f 123 126 127
v -3.917545 3 19.155117
f 128 124 123
v 3.917545 3 19.155117
f 123 127 129
f 121 128 123
f 123 129 122
o Riser01
g Riser01
usemtl Terrace
v -5.20319 0.5 2.067625
v -5.20319 0 2.067625
f 130 13 9 131
f 20 19 5 7
f 22 21 8 6
v 5.20319 0.5 2.067625
v 5.20319 0 2.067625
f 18 132 133 10
o Riser02
g Riser02
v -6.427899 1 3.645499
v -6.427899 0.5 3.645499
f 134 31 29 135
f 38 37 25 27
f 40 39 28 26
v 6.427899 1 3.645499
v 6.427899 0.5 3.645499
f 36 136 137 30
o Riser03
g Riser03
v -6.719946 1.5 6.160156
v -6.719946 1 6.160156
f 138 50 45 139
f 49 57 43 46
f 58 54 47 44
v 6.719946 1.5 6.160156
v 6.719946 1 6.160156
f 53 140 141 48
o Riser04
g Riser04
v -6.999319 2 8.592472
v -6.999319 1.5 8.592472
f 142 67 63 143
f 73 75 61 64
f 76 74 65 62
v 6.999319 2 8.592472
v 6.999319 1.5 8.592472
f 72 144 145 66
o Riser05
g Riser05
v -7.222741 2.5 10.974775
v -7.222741 2 10.974775
f 146 85 81 147
f 91 93 79 82
f 94 92 83 80
v 7.222741 2.5 10.974775
v 7.222741 2 10.974775
f 90 148 149 84
o Riser06
g Riser06
v -7.410889 3 13.324
v -7.410889 2.5 13.324
f 150 103 99 151
f 109 111 97 100
f 112 110 101 98
v 7.410889 3 13.324
v 7.410889 2.5 13.324
f 108 152 153 102
v -6.952698 -0.25 3.109694
v -5.668998 -0.25 1.479814
f 14 15 154 155
v 5.668998 -0.25 1.479814
v 6.952698 -0.25 3.109694
f 16 17 156 157
v -7.33235 -0.25 5.727189
f 32 33 158 154
v 7.33235 -0.25 5.727189
f 34 35 157 159
v -7.655177 -0.25 8.228672
f 51 55 160 158
v 7.655177 -0.25 8.228672
f 56 52 159 161
v -7.903883 -0.25 10.660854
f 68 69 162 160
v 7.903883 -0.25 10.660854
f 70 71 161 163
v -8.108019 -0.25 13.047395
f 86 87 164 162
v 8.108019 -0.25 13.047395
f 88 89 163 165
v -8.286444 -0.25 15.402619
f 104 105 166 164
v 8.286444 -0.25 15.402619
f 106 107 165 167
v -8.455737 -0.25 17.744901
f 105 121 168 166
v 8.455737 -0.25 17.744901
f 122 106 167 169
v -3.917545 -0.25 19.155117
f 121 128 170 168
v -4.397584 -0.25 19.86768
f 128 124 171 170
v -0.425 -0.25 20.338682
f 124 125 172 171
v 0.425 -0.25 20.338682
f 125 126 173 172
v 4.397584 -0.25 19.86768
f 126 127 174 173
v 3.917545 -0.25 19.155117
f 127 129 175 174
f 129 122 169 175
